<?xml version="1.0" standalone="no"?>
<!DOCTYPE svg PUBLIC "-//W3C//DTD SVG 1.1//EN" "http://www.w3.org/Graphics/SVG/1.1/DTD/svg11.dtd" >
<svg xmlns="http://www.w3.org/2000/svg" xmlns:xlink="http://www.w3.org/1999/xlink" version="1.1">
<metadata>
Created by FontForge 20190801 at Thu Nov 28 22:24:39 2019
 By Jimmy Wärting
Copyright 2010 The Josefin Sans Project Authors (https://github.com/ThomasJockin/JosefinSansFont-master), with Reserved Font Name "Josefin Sans".
</metadata>
<defs>
<font id="JosefinSans-MediumItalic" horiz-adv-x="0" >
  <font-face 
    font-family="Josefin Sans Medium"
    font-weight="500"
    font-style="italic"
    font-stretch="normal"
    units-per-em="1000"
    panose-1="0 0 0 0 0 0 0 0 0 0"
    ascent="750"
    descent="-250"
    x-height="419"
    cap-height="726"
    bbox="-99 -313 1449 1191"
    underline-thickness="50"
    underline-position="-125"
    slope="-7"
    unicode-range="U+000D-FB02"
  />
<missing-glyph horiz-adv-x="300" 
 />
    <glyph glyph-name="fi" unicode="fi" horiz-adv-x="589" 
d="M87 0l39 328h-71l12 91h71l20 170q11 90 60 139t131 49q22 0 48.5 -6.5t46.5 -20.5l-54 -75q-7 10 -18 14t-22 4q-36 0 -59 -24t-29 -82l-21 -168h117l-11 -91h-118l-39 -328h-103zM425 419h103l-52 -419h-103zM432 561q1 24 19 41.5t45 16.5q20 0 39 -12.5t18 -39.5
q0 -24 -18 -41.5t-45 -17.5q-21 0 -39.5 13t-18.5 40z" />
    <glyph glyph-name="fl" unicode="fl" horiz-adv-x="601" 
d="M87 0l39 328h-71l12 91h71l20 170q11 90 60 139t131 49q22 0 48.5 -6.5t46.5 -20.5l-54 -75q-7 10 -18 14t-22 4q-36 0 -59 -24t-29 -82l-21 -168h117l-11 -91h-118l-39 -328h-103zM488 777h104l-96 -777h-102z" />
    <glyph glyph-name=".notdef" horiz-adv-x="300" 
 />
    <glyph glyph-name="A" unicode="A" horiz-adv-x="700" 
d="M104 0h-105l412 755h6l227 -755h-123l-160 586l83 50zM227 272h259l24 -92h-326z" />
    <glyph glyph-name="Agrave" unicode="&#xc0;" horiz-adv-x="700" 
d="M104 0h-105l412 755h6l227 -755h-123l-160 586l83 50zM227 272h259l24 -92h-326zM387 941l66 -134h-65l-115 134h114z" />
    <glyph glyph-name="Aacute" unicode="&#xc1;" horiz-adv-x="700" 
d="M104 0h-105l412 755h6l227 -755h-123l-160 586l83 50zM227 272h259l24 -92h-326zM583 941l-136 -134h-64l86 134h114z" />
    <glyph glyph-name="Acircumflex" unicode="&#xc2;" horiz-adv-x="700" 
d="M104 0h-105l412 755h6l227 -755h-123l-160 586l83 50zM227 272h259l24 -92h-326zM497 807l-74 99l27 8l-100 -107h-94l188 183v0l147 -183h-94z" />
    <glyph glyph-name="Atilde" unicode="&#xc3;" horiz-adv-x="700" 
d="M104 0h-105l412 755h6l227 -755h-123l-160 586l83 50zM227 272h259l24 -92h-326zM496 772q-37 2 -59.5 20.5t-40.5 37.5q-12 13 -23.5 23.5t-28.5 11.5q-14 1 -25.5 -9.5t-18.5 -28.5t-10 -43l-63 5q2 44 19.5 80t46.5 56.5t67 17.5q30 -1 50 -18.5t36 -36.5
q14 -16 27 -28t29 -13t26 10t15.5 30.5t7.5 44.5l64 -5q0 -48 -16.5 -83.5t-43.5 -54t-59 -17.5z" />
    <glyph glyph-name="Adieresis" unicode="&#xc4;" horiz-adv-x="700" 
d="M104 0h-105l412 755h6l227 -755h-123l-160 586l83 50zM227 272h259l24 -92h-326zM278 858q3 25 22 40.5t40 13.5q20 -1 36 -18t13 -42t-22 -40t-39 -14q-21 1 -37 18.5t-13 41.5v0zM467 858q3 25 22 40.5t40 13.5q20 -1 36 -18.5t13 -41.5q-3 -25 -22 -40t-39 -14
q-21 1 -37 18t-13 42v0z" />
    <glyph glyph-name="Aring" unicode="&#xc5;" horiz-adv-x="700" 
d="M104 0h-105l412 755h6l227 -755h-123l-160 586l83 50zM227 272h259l24 -92h-326zM335 862q4 43 34.5 67t73.5 22q41 -3 66 -29t20 -67q-3 -42 -34 -66.5t-72 -22.5t-66.5 28.5t-21.5 67.5zM391 858q-2 -19 8.5 -31t28.5 -13q19 -1 32 10.5t15 31.5q1 21 -9 32.5t-29 12.5
q-18 1 -31.5 -10t-14.5 -33z" />
    <glyph glyph-name="Amacron" unicode="&#x100;" horiz-adv-x="700" 
d="M104 0h-105l412 755h6l227 -755h-123l-160 586l83 50zM227 272h259l24 -92h-326zM312 862h233l-7 -58h-233z" />
    <glyph glyph-name="Abreve" unicode="&#x102;" horiz-adv-x="700" 
d="M104 0h-105l412 755h6l227 -755h-123l-160 586l83 50zM227 272h259l24 -92h-326zM417 788q-28 1 -52 12.5t-42.5 33t-29 56t-10.5 83.5h69q1 -40 10.5 -65t26.5 -36.5t36 -13.5q26 -1 44 13t30.5 40.5t20.5 61.5h69q-11 -65 -35.5 -106.5t-59 -61t-77.5 -17.5z" />
    <glyph glyph-name="Aogonek" unicode="&#x104;" horiz-adv-x="700" 
d="M104 0h-105l412 755h6l227 -755h-123l-160 586l83 50zM227 272h259l24 -92h-326zM544 -213q-47 2 -79.5 31.5t-32.5 75.5q0 20 10.5 44t32 45.5t56.5 34.5l113 -17q-55 -21 -88.5 -42t-36.5 -50q-2 -26 11.5 -37.5t32.5 -12.5q20 -1 38 11t34 34l33 -54
q-22 -29 -56.5 -47t-67.5 -16z" />
    <glyph glyph-name="Aringacute" unicode="&#x1fa;" horiz-adv-x="700" 
d="M104 0h-105l412 755h6l227 -755h-123l-160 586l83 50zM227 272h259l24 -92h-326zM335 862q4 43 34.5 67t73.5 22q41 -3 66 -29t20 -67q-3 -42 -34 -66.5t-72 -22.5t-66.5 28.5t-21.5 67.5zM391 858q-2 -19 8.5 -31t28.5 -13q19 -1 32 10.5t15 31.5q1 21 -9 32.5t-29 12.5
q-18 1 -31.5 -10t-14.5 -33zM609 1152l-136 -134h-64l86 134h114z" />
    <glyph glyph-name="uni0200" unicode="&#x200;" horiz-adv-x="700" 
d="M104 0h-105l412 755h6l227 -755h-123l-160 586l83 50zM227 272h259l24 -92h-326zM333 941l66 -134h-65l-115 134h114zM474 941l66 -134h-65l-115 134h114z" />
    <glyph glyph-name="uni0202" unicode="&#x202;" horiz-adv-x="700" 
d="M104 0h-105l412 755h6l227 -755h-123l-160 586l83 50zM227 272h259l24 -92h-326zM441 961q27 -1 51.5 -12t43 -33t28.5 -56.5t11 -83.5h-70q1 41 -9.5 65.5t-26.5 37t-37 12.5q-25 2 -43.5 -12t-30.5 -40t-21 -63h-69q12 66 36 107.5t59 60.5t78 17z" />
    <glyph glyph-name="uni1EA0" unicode="&#x1ea0;" horiz-adv-x="700" 
d="M104 0h-105l412 755h6l227 -755h-123l-160 586l83 50zM227 272h259l24 -92h-326zM248 -101q1 25 19 42t45 17q21 0 39.5 -12.5t17.5 -39.5q0 -25 -18 -42t-45 -17q-20 0 -39 12.5t-19 39.5z" />
    <glyph glyph-name="uni1EA2" unicode="&#x1ea2;" horiz-adv-x="700" 
d="M104 0h-105l412 755h6l227 -755h-123l-160 586l83 50zM227 272h259l24 -92h-326zM400 815q20 14 34 26.5t17 29.5q2 17 -5 28t-27 12q-14 0 -25 -7t-20 -20l-36 25q20 30 45.5 44t53.5 14q39 -1 57 -23t17 -53q-1 -26 -22 -53.5t-70 -51.5z" />
    <glyph glyph-name="uni1EA4" unicode="&#x1ea4;" horiz-adv-x="700" 
d="M104 0h-105l412 755h6l227 -755h-123l-160 586l83 50zM227 272h259l24 -92h-326zM465 807l-74 99l27 8l-100 -107h-94l188 183v0l147 -183h-94zM696 1071l-136 -134h-64l86 134h114z" />
    <glyph glyph-name="uni1EA6" unicode="&#x1ea6;" horiz-adv-x="700" 
d="M104 0h-105l412 755h6l227 -755h-123l-160 586l83 50zM227 272h259l24 -92h-326zM495 789l-74 99l27 8l-100 -107h-94l188 183v0l147 -183h-94zM269 1033l66 -134h-65l-115 134h114z" />
    <glyph glyph-name="uni1EA8" unicode="&#x1ea8;" horiz-adv-x="700" 
d="M104 0h-105l412 755h6l227 -755h-123l-160 586l83 50zM227 272h259l24 -92h-326zM485 789l-74 99l27 8l-100 -107h-94l188 183v0l147 -183h-94zM549 922q20 14 34 26.5t17 29.5q2 17 -5 28t-27 12q-14 0 -25 -7t-20 -20l-36 25q20 30 45.5 44t53.5 14q39 -1 57 -23
t17 -53q-1 -26 -22 -53.5t-70 -51.5z" />
    <glyph glyph-name="uni1EAA" unicode="&#x1eaa;" horiz-adv-x="700" 
d="M104 0h-105l412 755h6l227 -755h-123l-160 586l83 50zM227 272h259l24 -92h-326zM525 999q-33 2 -52.5 17.5t-34.5 32.5q-11 12 -21.5 21.5t-24.5 9.5q-12 1 -22.5 -8t-17 -25t-8.5 -38l-54 4q2 39 17 70t40.5 48.5t57.5 15.5q26 -1 43.5 -16.5t31.5 -31.5q13 -14 24 -25
t26 -11q19 -2 29.5 19t13.5 55l55 -4q-1 -42 -15 -73t-37.5 -47t-50.5 -14zM501 786l-74 99l27 8l-100 -107h-94l188 183v0l147 -183h-94z" />
    <glyph glyph-name="uni1EAC" unicode="&#x1eac;" horiz-adv-x="700" 
d="M104 0h-105l412 755h6l227 -755h-123l-160 586l83 50zM227 272h259l24 -92h-326zM248 -101q1 25 19 42t45 17q21 0 39.5 -12.5t17.5 -39.5q0 -25 -18 -42t-45 -17q-20 0 -39 12.5t-19 39.5zM497 807l-74 99l27 8l-100 -107h-94l188 183v0l147 -183h-94z" />
    <glyph glyph-name="uni1EAE" unicode="&#x1eae;" horiz-adv-x="700" 
d="M104 0h-105l412 755h6l227 -755h-123l-160 586l83 50zM227 272h259l24 -92h-326zM419 800q-28 1 -52 12.5t-42.5 33t-29 56t-10.5 83.5h69q1 -40 10.5 -65t26.5 -36.5t36 -13.5q26 -1 44 13t30.5 40.5t20.5 61.5h69q-11 -65 -35.5 -106.5t-59 -61t-77.5 -17.5zM611 1171
l-136 -134h-64l86 134h114z" />
    <glyph glyph-name="uni1EB0" unicode="&#x1eb0;" horiz-adv-x="700" 
d="M104 0h-105l412 755h6l227 -755h-123l-160 586l83 50zM227 272h259l24 -92h-326zM415 800q-28 1 -52 12.5t-42.5 33t-29 56t-10.5 83.5h69q1 -40 10.5 -65t26.5 -36.5t36 -13.5q26 -1 44 13t30.5 40.5t20.5 61.5h69q-11 -65 -35.5 -106.5t-59 -61t-77.5 -17.5zM411 1144
l66 -134h-65l-115 134h114z" />
    <glyph glyph-name="uni1EB2" unicode="&#x1eb2;" horiz-adv-x="700" 
d="M104 0h-105l412 755h6l227 -755h-123l-160 586l83 50zM227 272h259l24 -92h-326zM417 788q-28 1 -52 12.5t-42.5 33t-29 56t-10.5 83.5h69q1 -40 10.5 -65t26.5 -36.5t36 -13.5q26 -1 44 13t30.5 40.5t20.5 61.5h69q-11 -65 -35.5 -106.5t-59 -61t-77.5 -17.5zM427 1039
q20 14 34 26.5t17 29.5q2 17 -5 28t-27 12q-14 0 -25 -7t-20 -20l-36 25q20 30 45.5 44t53.5 14q39 -1 57 -23t17 -53q-1 -26 -22 -53.5t-70 -51.5z" />
    <glyph glyph-name="uni1EB4" unicode="&#x1eb4;" horiz-adv-x="700" 
d="M104 0h-105l412 755h6l227 -755h-123l-160 586l83 50zM227 272h259l24 -92h-326zM509 1023q-33 2 -52 17.5t-35 32.5q-10 12 -20.5 21.5t-24.5 9.5q-13 1 -23 -7.5t-16.5 -25t-8.5 -38.5l-54 5q2 38 17 69.5t40.5 48.5t57.5 15q26 -1 43.5 -16t31.5 -32q12 -14 23.5 -25
t26.5 -11q19 -2 29.5 19t13.5 55l55 -4q-1 -42 -15.5 -72.5t-37.5 -47t-51 -14.5zM407 800q-28 1 -52 12.5t-42.5 33t-29 56t-10.5 83.5h69q1 -40 10.5 -65t26.5 -36.5t36 -13.5q26 -1 44 13t30.5 40.5t20.5 61.5h69q-11 -65 -35 -106.5t-58.5 -61t-78.5 -17.5z" />
    <glyph glyph-name="uni1EB6" unicode="&#x1eb6;" horiz-adv-x="700" 
d="M104 0h-105l412 755h6l227 -755h-123l-160 586l83 50zM227 272h259l24 -92h-326zM248 -101q1 25 19 42t45 17q21 0 39.5 -12.5t17.5 -39.5q0 -25 -18 -42t-45 -17q-20 0 -39 12.5t-19 39.5zM417 788q-28 1 -52 12.5t-42.5 33t-29 56t-10.5 83.5h69q1 -40 10.5 -65
t26.5 -36.5t36 -13.5q26 -1 44 13t30.5 40.5t20.5 61.5h69q-11 -65 -35.5 -106.5t-59 -61t-77.5 -17.5z" />
    <glyph glyph-name="B" unicode="B" horiz-adv-x="619" 
d="M355 726q100 0 156 -37t56 -123q0 -39 -12 -80.5t-40.5 -73.5t-79.5 -45l-3 4q33 -6 62 -24.5t47.5 -50t18.5 -77.5q0 -57 -21 -99t-57 -68.5t-83 -39t-98 -12.5h-226l88 726h192zM335 412q35 0 58 12.5t36.5 32t19.5 41t6 39.5q0 46 -29 67.5t-81 21.5h-84l-26 -214h100
zM305 99q47 0 79.5 16t50 44t17.5 65q0 36 -19.5 56.5t-49.5 29.5t-62 9h-98l-26 -220h108z" />
    <glyph glyph-name="C" unicode="C" horiz-adv-x="699" 
d="M620 39q-16 -10 -45.5 -22t-68 -21t-83.5 -9q-62 0 -123.5 19.5t-112 60t-81 105t-30.5 153.5q0 58 13.5 115.5t42 110t73.5 92.5t107.5 63t143.5 23q75 0 133 -22.5t96 -50.5l-55 -97q-27 23 -69 43.5t-95 23.5q-68 2 -120 -20.5t-87.5 -63.5t-53.5 -94.5t-18 -114.5
q0 -54 17.5 -98.5t49 -76.5t76 -49.5t97.5 -17.5q39 0 69 8t52.5 18.5t37.5 19.5z" />
    <glyph glyph-name="Ccedilla" unicode="&#xc7;" horiz-adv-x="699" 
d="M620 39q-16 -10 -45.5 -22t-68 -21t-83.5 -9q-62 0 -123.5 19.5t-112 60t-81 105t-30.5 153.5q0 58 13.5 115.5t42 110t73.5 92.5t107.5 63t143.5 23q75 0 133 -22.5t96 -50.5l-55 -97q-27 23 -69 43.5t-95 23.5q-68 2 -120 -20.5t-87.5 -63.5t-53.5 -94.5t-18 -114.5
q0 -54 17.5 -98.5t49 -76.5t76 -49.5t97.5 -17.5q39 0 69 8t52.5 18.5t37.5 19.5zM327 -145q9 -13 25 -21t37 -10q24 -1 46 9t24 31q3 16 -9 30t-48 16q-16 1 -33.5 -2t-31.5 -6l-11 51l70 49l78 -2l-77 -78l-19 27q12 3 26.5 5t28.5 1q54 -2 86 -26t26 -69q-3 -34 -26 -55
t-56.5 -30t-69.5 -7q-39 3 -64 16t-39 30z" />
    <glyph glyph-name="Cacute" unicode="&#x106;" horiz-adv-x="699" 
d="M620 39q-16 -10 -45.5 -22t-68 -21t-83.5 -9q-62 0 -123.5 19.5t-112 60t-81 105t-30.5 153.5q0 58 13.5 115.5t42 110t73.5 92.5t107.5 63t143.5 23q75 0 133 -22.5t96 -50.5l-55 -97q-27 23 -69 43.5t-95 23.5q-68 2 -120 -20.5t-87.5 -63.5t-53.5 -94.5t-18 -114.5
q0 -54 17.5 -98.5t49 -76.5t76 -49.5t97.5 -17.5q39 0 69 8t52.5 18.5t37.5 19.5zM622 921l-136 -134h-64l86 134h114z" />
    <glyph glyph-name="Ccircumflex" unicode="&#x108;" horiz-adv-x="699" 
d="M620 39q-16 -10 -45.5 -22t-68 -21t-83.5 -9q-62 0 -123.5 19.5t-112 60t-81 105t-30.5 153.5q0 58 13.5 115.5t42 110t73.5 92.5t107.5 63t143.5 23q75 0 133 -22.5t96 -50.5l-55 -97q-27 23 -69 43.5t-95 23.5q-68 2 -120 -20.5t-87.5 -63.5t-53.5 -94.5t-18 -114.5
q0 -54 17.5 -98.5t49 -76.5t76 -49.5t97.5 -17.5q39 0 69 8t52.5 18.5t37.5 19.5zM536 787l-74 99l27 8l-100 -107h-94l188 183v0l147 -183h-94z" />
    <glyph glyph-name="Cdotaccent" unicode="&#x10a;" horiz-adv-x="699" 
d="M620 39q-16 -10 -45.5 -22t-68 -21t-83.5 -9q-62 0 -123.5 19.5t-112 60t-81 105t-30.5 153.5q0 58 13.5 115.5t42 110t73.5 92.5t107.5 63t143.5 23q75 0 133 -22.5t96 -50.5l-55 -97q-27 23 -69 43.5t-95 23.5q-68 2 -120 -20.5t-87.5 -63.5t-53.5 -94.5t-18 -114.5
q0 -54 17.5 -98.5t49 -76.5t76 -49.5t97.5 -17.5q39 0 69 8t52.5 18.5t37.5 19.5zM411 862q1 25 19 42t45 17q21 0 39.5 -12.5t17.5 -39.5q0 -25 -18 -42t-45 -17q-20 0 -39 12.5t-19 39.5z" />
    <glyph glyph-name="Ccaron" unicode="&#x10c;" horiz-adv-x="699" 
d="M620 39q-16 -10 -45.5 -22t-68 -21t-83.5 -9q-62 0 -123.5 19.5t-112 60t-81 105t-30.5 153.5q0 58 13.5 115.5t42 110t73.5 92.5t107.5 63t143.5 23q75 0 133 -22.5t96 -50.5l-55 -97q-27 23 -69 43.5t-95 23.5q-68 2 -120 -20.5t-87.5 -63.5t-53.5 -94.5t-18 -114.5
q0 -54 17.5 -98.5t49 -76.5t76 -49.5t97.5 -17.5q39 0 69 8t52.5 18.5t37.5 19.5zM412 959l75 -99l-28 -7l101 106h94l-188 -183h-1l-147 183h94z" />
    <glyph glyph-name="D" unicode="D" horiz-adv-x="755" 
d="M75 0l88 726h222q100 0 167 -31t104.5 -82.5t51.5 -116t8 -131.5q-7 -86 -40.5 -153.5t-87 -115t-120.5 -72t-142 -24.5h-251zM193 103h130q58 0 108 17t88 50.5t61 84t27 116.5q6 68 -11 116t-50.5 78t-76.5 44t-88 14h-124z" />
    <glyph glyph-name="Dcaron" unicode="&#x10e;" horiz-adv-x="755" 
d="M75 0l88 726h222q100 0 167 -31t104.5 -82.5t51.5 -116t8 -131.5q-7 -86 -40.5 -153.5t-87 -115t-120.5 -72t-142 -24.5h-251zM193 103h130q58 0 108 17t88 50.5t61 84t27 116.5q6 68 -11 116t-50.5 78t-76.5 44t-88 14h-124zM357 939l75 -99l-28 -7l101 106h94
l-188 -183h-1l-147 183h94z" />
    <glyph glyph-name="E" unicode="E" horiz-adv-x="656" 
d="M163 726h477l-12 -100h-367l-26 -212h327l-13 -101h-326l-26 -211h381l-13 -102h-490z" />
    <glyph glyph-name="Egrave" unicode="&#xc8;" horiz-adv-x="656" 
d="M163 726h477l-12 -100h-367l-26 -212h327l-13 -101h-326l-26 -211h381l-13 -102h-490zM365 923l66 -134h-65l-115 134h114z" />
    <glyph glyph-name="Eacute" unicode="&#xc9;" horiz-adv-x="656" 
d="M163 726h477l-12 -100h-367l-26 -212h327l-13 -101h-326l-26 -211h381l-13 -102h-490zM561 923l-136 -134h-64l86 134h114z" />
    <glyph glyph-name="Ecircumflex" unicode="&#xca;" horiz-adv-x="656" 
d="M163 726h477l-12 -100h-367l-26 -212h327l-13 -101h-326l-26 -211h381l-13 -102h-490zM475 789l-74 99l27 8l-100 -107h-94l188 183v0l147 -183h-94z" />
    <glyph glyph-name="Edieresis" unicode="&#xcb;" horiz-adv-x="656" 
d="M163 726h477l-12 -100h-367l-26 -212h327l-13 -101h-326l-26 -211h381l-13 -102h-490zM257 840q3 25 22 40.5t40 13.5q20 -1 36 -18t13 -42t-22 -40t-39 -14q-21 1 -37 18.5t-13 41.5v0zM446 840q3 25 22 40.5t40 13.5q20 -1 36 -18.5t13 -41.5q-3 -25 -22 -40t-39 -14
q-21 1 -37 18t-13 42v0z" />
    <glyph glyph-name="Emacron" unicode="&#x112;" horiz-adv-x="656" 
d="M163 726h477l-12 -100h-367l-26 -212h327l-13 -101h-326l-26 -211h381l-13 -102h-490zM290 844h233l-7 -58h-233z" />
    <glyph glyph-name="Ebreve" unicode="&#x114;" horiz-adv-x="656" 
d="M163 726h477l-12 -100h-367l-26 -212h327l-13 -101h-326l-26 -211h381l-13 -102h-490zM395 770q-28 1 -52 12.5t-42.5 33t-29 56t-10.5 83.5h69q1 -40 10.5 -65t26.5 -36.5t36 -13.5q26 -1 44 13t30.5 40.5t20.5 61.5h69q-11 -65 -35.5 -106.5t-59 -61t-77.5 -17.5z" />
    <glyph glyph-name="Edotaccent" unicode="&#x116;" horiz-adv-x="656" 
d="M163 726h477l-12 -100h-367l-26 -212h327l-13 -101h-326l-26 -211h381l-13 -102h-490zM349 863q1 25 19 42t45 17q21 0 39.5 -12.5t17.5 -39.5q0 -25 -18 -42t-45 -17q-20 0 -39 12.5t-19 39.5z" />
    <glyph glyph-name="Eogonek" unicode="&#x118;" horiz-adv-x="656" 
d="M163 726h477l-12 -100h-367l-26 -212h327l-13 -101h-326l-26 -211h381l-13 -102h-490zM465 -213q-47 2 -79.5 31.5t-32.5 75.5q0 20 10.5 44t32 45.5t56.5 34.5l113 -17q-55 -21 -88.5 -42t-36.5 -50q-2 -26 11.5 -37.5t32.5 -12.5q20 -1 38 11t34 34l33 -54
q-22 -29 -56.5 -47t-67.5 -16z" />
    <glyph glyph-name="Ecaron" unicode="&#x11a;" horiz-adv-x="656" 
d="M163 726h477l-12 -100h-367l-26 -212h327l-13 -101h-326l-26 -211h381l-13 -102h-490zM351 960l75 -99l-28 -7l101 106h94l-188 -183h-1l-147 183h94z" />
    <glyph glyph-name="uni0204" unicode="&#x204;" horiz-adv-x="656" 
d="M163 726h477l-12 -100h-367l-26 -212h327l-13 -101h-326l-26 -211h381l-13 -102h-490zM311 923l66 -134h-65l-115 134h114zM452 923l66 -134h-65l-115 134h114z" />
    <glyph glyph-name="uni0206" unicode="&#x206;" horiz-adv-x="656" 
d="M163 726h477l-12 -100h-367l-26 -212h327l-13 -101h-326l-26 -211h381l-13 -102h-490zM419 943q27 -1 51.5 -12t43 -33t28.5 -56.5t11 -83.5h-70q1 41 -9.5 65.5t-26.5 37t-37 12.5q-25 2 -43.5 -12t-30.5 -40t-21 -63h-69q12 66 36 107.5t59 60.5t78 17z" />
    <glyph glyph-name="uni1EB8" unicode="&#x1eb8;" horiz-adv-x="656" 
d="M163 726h477l-12 -100h-367l-26 -212h327l-13 -101h-326l-26 -211h381l-13 -102h-490zM255 -101q1 25 19 42t45 17q21 0 39.5 -12.5t17.5 -39.5q0 -25 -18 -42t-45 -17q-20 0 -39 12.5t-19 39.5z" />
    <glyph glyph-name="uni1EBA" unicode="&#x1eba;" horiz-adv-x="656" 
d="M163 726h477l-12 -100h-367l-26 -212h327l-13 -101h-326l-26 -211h381l-13 -102h-490zM378 797q20 14 34 26.5t17 29.5q2 17 -5 28t-27 12q-14 0 -25 -7t-20 -20l-36 25q20 30 45.5 44t53.5 14q39 -1 57 -23t17 -53q-1 -26 -22 -53.5t-70 -51.5z" />
    <glyph glyph-name="uni1EBC" unicode="&#x1ebc;" horiz-adv-x="656" 
d="M163 726h477l-12 -100h-367l-26 -212h327l-13 -101h-326l-26 -211h381l-13 -102h-490zM474 754q-37 2 -59.5 20.5t-40.5 37.5q-12 13 -23.5 23.5t-28.5 11.5q-14 1 -25.5 -9.5t-18.5 -28.5t-10 -43l-63 5q2 44 19.5 80t46.5 56.5t67 17.5q30 -1 50 -18.5t36 -36.5
q14 -16 27 -28t29 -13t26 10t15.5 30.5t7.5 44.5l64 -5q0 -48 -16.5 -83.5t-43.5 -54t-59 -17.5z" />
    <glyph glyph-name="uni1EBE" unicode="&#x1ebe;" horiz-adv-x="656" 
d="M163 726h477l-12 -100h-367l-26 -212h327l-13 -101h-326l-26 -211h381l-13 -102h-490zM443 789l-74 99l27 8l-100 -107h-94l188 183v0l147 -183h-94zM674 1053l-136 -134h-64l86 134h114z" />
    <glyph glyph-name="uni1EC0" unicode="&#x1ec0;" horiz-adv-x="656" 
d="M163 726h477l-12 -100h-367l-26 -212h327l-13 -101h-326l-26 -211h381l-13 -102h-490zM473 771l-74 99l27 8l-100 -107h-94l188 183v0l147 -183h-94zM247 1015l66 -134h-65l-115 134h114z" />
    <glyph glyph-name="uni1EC2" unicode="&#x1ec2;" horiz-adv-x="656" 
d="M163 726h477l-12 -100h-367l-26 -212h327l-13 -101h-326l-26 -211h381l-13 -102h-490zM464 771l-74 99l27 8l-100 -107h-94l188 183v0l147 -183h-94zM528 904q20 14 34 26.5t17 29.5q2 17 -5 28t-27 12q-14 0 -25 -7t-20 -20l-36 25q20 30 45.5 44t53.5 14q39 -1 57 -23
t17 -53q-1 -26 -22 -53.5t-70 -51.5z" />
    <glyph glyph-name="uni1EC4" unicode="&#x1ec4;" horiz-adv-x="656" 
d="M163 726h477l-12 -100h-367l-26 -212h327l-13 -101h-326l-26 -211h381l-13 -102h-490zM503 981q-33 2 -52.5 17.5t-34.5 32.5q-11 12 -21.5 21.5t-24.5 9.5q-12 1 -22.5 -8t-17 -25t-8.5 -38l-54 4q2 39 17 70t40.5 48.5t57.5 15.5q26 -1 43.5 -16.5t31.5 -31.5
q13 -14 24 -25t26 -11q19 -2 29.5 19t13.5 55l55 -4q-1 -42 -15 -73t-37.5 -47t-50.5 -14zM479 768l-74 99l27 8l-100 -107h-94l188 183v0l147 -183h-94z" />
    <glyph glyph-name="uni1EC6" unicode="&#x1ec6;" horiz-adv-x="656" 
d="M163 726h477l-12 -100h-367l-26 -212h327l-13 -101h-326l-26 -211h381l-13 -102h-490zM255 -101q1 25 19 42t45 17q21 0 39.5 -12.5t17.5 -39.5q0 -25 -18 -42t-45 -17q-20 0 -39 12.5t-19 39.5zM475 789l-74 99l27 8l-100 -107h-94l188 183v0l147 -183h-94z" />
    <glyph glyph-name="F" unicode="F" horiz-adv-x="591" 
d="M163 726h435l-12 -102h-325l-27 -219h284l-13 -102h-284l-36 -303h-110z" />
    <glyph glyph-name="G" unicode="G" horiz-adv-x="762" 
d="M660 48q-21 -16 -59.5 -29.5t-84 -21.5t-86.5 -8q-32 0 -71 8t-79 24.5t-77 43t-66 64t-46 87.5t-16 113q1 52 16 108t45 108.5t77 93.5t111 65.5t148 23.5q61 -1 122.5 -17.5t110.5 -48.5l-47 -97q-38 26 -89 41.5t-99 14.5q-64 0 -111 -18.5t-80 -49t-53 -68
t-29.5 -77.5t-10.5 -76q0 -51 16 -89t43.5 -66t61 -45.5t69 -26.5t66.5 -10q31 -2 62.5 3t54.5 16l17 141h-141l13 101h249z" />
    <glyph glyph-name="Gcircumflex" unicode="&#x11c;" horiz-adv-x="762" 
d="M660 48q-21 -16 -59.5 -29.5t-84 -21.5t-86.5 -8q-32 0 -71 8t-79 24.5t-77 43t-66 64t-46 87.5t-16 113q1 52 16 108t45 108.5t77 93.5t111 65.5t148 23.5q61 -1 122.5 -17.5t110.5 -48.5l-47 -97q-38 26 -89 41.5t-99 14.5q-64 0 -111 -18.5t-80 -49t-53 -68
t-29.5 -77.5t-10.5 -76q0 -51 16 -89t43.5 -66t61 -45.5t69 -26.5t66.5 -10q31 -2 62.5 3t54.5 16l17 141h-141l13 101h249zM554 796l-74 99l27 8l-100 -107h-94l188 183v0l147 -183h-94z" />
    <glyph glyph-name="Gbreve" unicode="&#x11e;" horiz-adv-x="762" 
d="M660 48q-21 -16 -59.5 -29.5t-84 -21.5t-86.5 -8q-32 0 -71 8t-79 24.5t-77 43t-66 64t-46 87.5t-16 113q1 52 16 108t45 108.5t77 93.5t111 65.5t148 23.5q61 -1 122.5 -17.5t110.5 -48.5l-47 -97q-38 26 -89 41.5t-99 14.5q-64 0 -111 -18.5t-80 -49t-53 -68
t-29.5 -77.5t-10.5 -76q0 -51 16 -89t43.5 -66t61 -45.5t69 -26.5t66.5 -10q31 -2 62.5 3t54.5 16l17 141h-141l13 101h249zM474 777q-28 1 -52 12.5t-42.5 33t-29 56t-10.5 83.5h69q1 -40 10.5 -65t26.5 -36.5t36 -13.5q26 -1 44 13t30.5 40.5t20.5 61.5h69
q-11 -65 -35.5 -106.5t-59 -61t-77.5 -17.5z" />
    <glyph glyph-name="Gdotaccent" unicode="&#x120;" horiz-adv-x="762" 
d="M660 48q-21 -16 -59.5 -29.5t-84 -21.5t-86.5 -8q-32 0 -71 8t-79 24.5t-77 43t-66 64t-46 87.5t-16 113q1 52 16 108t45 108.5t77 93.5t111 65.5t148 23.5q61 -1 122.5 -17.5t110.5 -48.5l-47 -97q-38 26 -89 41.5t-99 14.5q-64 0 -111 -18.5t-80 -49t-53 -68
t-29.5 -77.5t-10.5 -76q0 -51 16 -89t43.5 -66t61 -45.5t69 -26.5t66.5 -10q31 -2 62.5 3t54.5 16l17 141h-141l13 101h249zM428 870q1 25 19 42t45 17q21 0 39.5 -12.5t17.5 -39.5q0 -25 -18 -42t-45 -17q-20 0 -39 12.5t-19 39.5z" />
    <glyph glyph-name="uni0122" unicode="&#x122;" horiz-adv-x="762" 
d="M660 48q-21 -16 -59.5 -29.5t-84 -21.5t-86.5 -8q-32 0 -71 8t-79 24.5t-77 43t-66 64t-46 87.5t-16 113q1 52 16 108t45 108.5t77 93.5t111 65.5t148 23.5q61 -1 122.5 -17.5t110.5 -48.5l-47 -97q-38 26 -89 41.5t-99 14.5q-64 0 -111 -18.5t-80 -49t-53 -68
t-29.5 -77.5t-10.5 -76q0 -51 16 -89t43.5 -66t61 -45.5t69 -26.5t66.5 -10q31 -2 62.5 3t54.5 16l17 141h-141l13 101h249zM351 -213l-53 36q25 21 36 58.5t6 75.5l91 -1q4 -28 -4.5 -60.5t-27.5 -61.5t-48 -47z" />
    <glyph glyph-name="Gcaron" unicode="&#x1e6;" horiz-adv-x="762" 
d="M660 48q-21 -16 -59.5 -29.5t-84 -21.5t-86.5 -8q-32 0 -71 8t-79 24.5t-77 43t-66 64t-46 87.5t-16 113q1 52 16 108t45 108.5t77 93.5t111 65.5t148 23.5q61 -1 122.5 -17.5t110.5 -48.5l-47 -97q-38 26 -89 41.5t-99 14.5q-64 0 -111 -18.5t-80 -49t-53 -68
t-29.5 -77.5t-10.5 -76q0 -51 16 -89t43.5 -66t61 -45.5t69 -26.5t66.5 -10q31 -2 62.5 3t54.5 16l17 141h-141l13 101h249zM430 968l75 -99l-28 -7l101 106h94l-188 -183h-1l-147 183h94z" />
    <glyph glyph-name="H" unicode="H" horiz-adv-x="787" 
d="M745 726l-89 -726h-110l39 313h-362l-38 -313h-110l88 726h110l-38 -309h362l38 309h110z" />
    <glyph glyph-name="Hcircumflex" unicode="&#x124;" horiz-adv-x="787" 
d="M745 726l-89 -726h-110l39 313h-362l-38 -313h-110l88 726h110l-38 -309h362l38 309h110zM529 796l-74 99l27 8l-100 -107h-94l188 183v0l147 -183h-94z" />
    <glyph glyph-name="I" unicode="I" horiz-adv-x="316" 
d="M163 726h110l-88 -726h-110z" />
    <glyph glyph-name="Igrave" unicode="&#xcc;" horiz-adv-x="316" 
d="M163 726h110l-88 -726h-110zM190 923l66 -134h-65l-115 134h114z" />
    <glyph glyph-name="Iacute" unicode="&#xcd;" horiz-adv-x="316" 
d="M163 726h110l-88 -726h-110zM386 923l-136 -134h-64l86 134h114z" />
    <glyph glyph-name="Icircumflex" unicode="&#xce;" horiz-adv-x="316" 
d="M163 726h110l-88 -726h-110zM300 789l-74 99l27 8l-100 -107h-94l188 183v0l147 -183h-94z" />
    <glyph glyph-name="Idieresis" unicode="&#xcf;" horiz-adv-x="316" 
d="M163 726h110l-88 -726h-110zM81 840q3 25 22 40.5t40 13.5q20 -1 36 -18t13 -42t-22 -40t-39 -14q-21 1 -37 18.5t-13 41.5v0zM270 840q3 25 22 40.5t40 13.5q20 -1 36 -18.5t13 -41.5q-3 -25 -22 -40t-39 -14q-21 1 -37 18t-13 42v0z" />
    <glyph glyph-name="Itilde" unicode="&#x128;" horiz-adv-x="316" 
d="M163 726h110l-88 -726h-110zM299 754q-37 2 -59.5 20.5t-40.5 37.5q-12 13 -23.5 23.5t-28.5 11.5q-14 1 -25.5 -9.5t-18.5 -28.5t-10 -43l-63 5q2 44 19.5 80t46.5 56.5t67 17.5q30 -1 50 -18.5t36 -36.5q14 -16 27 -28t29 -13t26 10t15.5 30.5t7.5 44.5l64 -5
q0 -48 -16.5 -83.5t-43.5 -54t-59 -17.5z" />
    <glyph glyph-name="Imacron" unicode="&#x12a;" horiz-adv-x="316" 
d="M163 726h110l-88 -726h-110zM115 844h233l-7 -58h-233z" />
    <glyph glyph-name="Ibreve" unicode="&#x12c;" horiz-adv-x="316" 
d="M163 726h110l-88 -726h-110zM220 770q-28 1 -52 12.5t-42.5 33t-29 56t-10.5 83.5h69q1 -40 10.5 -65t26.5 -36.5t36 -13.5q26 -1 44 13t30.5 40.5t20.5 61.5h69q-11 -65 -35.5 -106.5t-59 -61t-77.5 -17.5z" />
    <glyph glyph-name="Iogonek" unicode="&#x12e;" horiz-adv-x="308" 
d="M91 -218q-47 3 -79.5 32t-32.5 75q0 22 10.5 47.5t33.5 49t58 36.5l-6 -22l88 726h110l-88 -726q-52 -21 -84.5 -43t-35.5 -53q-2 -25 12 -36.5t32 -12.5q20 -1 38 10.5t35 33.5l32 -54q-22 -29 -56.5 -47t-66.5 -16z" />
    <glyph glyph-name="Idotaccent" unicode="&#x130;" horiz-adv-x="316" 
d="M163 726h110l-88 -726h-110zM174 863q1 25 19 42t45 17q21 0 39.5 -12.5t17.5 -39.5q0 -25 -18 -42t-45 -17q-20 0 -39 12.5t-19 39.5z" />
    <glyph glyph-name="uni0208" unicode="&#x208;" horiz-adv-x="316" 
d="M163 726h110l-88 -726h-110zM136 923l66 -134h-65l-115 134h114zM277 923l66 -134h-65l-115 134h114z" />
    <glyph glyph-name="uni020A" unicode="&#x20a;" horiz-adv-x="316" 
d="M163 726h110l-88 -726h-110zM244 943q27 -1 51.5 -12t43 -33t28.5 -56.5t11 -83.5h-70q1 41 -9.5 65.5t-26.5 37t-37 12.5q-25 2 -43.5 -12t-30.5 -40t-21 -63h-69q12 66 36 107.5t59 60.5t78 17z" />
    <glyph glyph-name="uni1EC8" unicode="&#x1ec8;" horiz-adv-x="316" 
d="M163 726h110l-88 -726h-110zM203 797q20 14 34 26.5t17 29.5q2 17 -5 28t-27 12q-14 0 -25 -7t-20 -20l-36 25q20 30 45.5 44t53.5 14q39 -1 57 -23t17 -53q-1 -26 -22 -53.5t-70 -51.5z" />
    <glyph glyph-name="uni1ECA" unicode="&#x1eca;" horiz-adv-x="316" 
d="M163 726h110l-88 -726h-110zM43 -101q1 25 19 42t45 17q21 0 39.5 -12.5t17.5 -39.5q0 -25 -18 -42t-45 -17q-20 0 -39 12.5t-19 39.5z" />
    <glyph glyph-name="J" unicode="J" horiz-adv-x="375" 
d="M261 136q-11 -89 -53 -152.5t-106 -97t-142 -36.5v0l13 104q46 3 84.5 23t64 60t32.5 102l72 587h107z" />
    <glyph glyph-name="Jcircumflex" unicode="&#x134;" horiz-adv-x="375" 
d="M261 136q-11 -89 -53 -152.5t-106 -97t-142 -36.5v0l13 104q46 3 84.5 23t64 60t32.5 102l72 587h107zM357 793l-74 99l27 8l-100 -107h-94l188 183v0l147 -183h-94z" />
    <glyph glyph-name="K" unicode="K" horiz-adv-x="683" 
d="M236 440l-8 -36l17 21l322 301h138l-338 -315l263 -411h-135l-215 344l-62 -55l-36 -289h-107l88 726h108z" />
    <glyph glyph-name="uni0136" unicode="&#x136;" horiz-adv-x="683" 
d="M236 440l-8 -36l17 21l322 301h138l-338 -315l263 -411h-135l-215 344l-62 -55l-36 -289h-107l88 726h108zM276 -213l-53 36q25 21 36 58.5t6 75.5l91 -1q4 -28 -4.5 -60.5t-27.5 -61.5t-48 -47z" />
    <glyph glyph-name="L" unicode="L" horiz-adv-x="614" 
d="M163 726h107l-77 -623h364l-13 -103h-469z" />
    <glyph glyph-name="Lacute" unicode="&#x139;" horiz-adv-x="614" 
d="M163 726h107l-77 -623h364l-13 -103h-469zM384 941l-136 -134h-64l86 134h114z" />
    <glyph glyph-name="uni013B" unicode="&#x13b;" horiz-adv-x="614" 
d="M163 726h107l-77 -623h364l-13 -103h-469zM260 -213l-53 36q25 21 36 58.5t6 75.5l91 -1q4 -28 -4.5 -60.5t-27.5 -61.5t-48 -47z" />
    <glyph glyph-name="Lcaron" unicode="&#x13d;" horiz-adv-x="614" 
d="M163 726h107l-77 -623h364l-13 -103h-469zM560 555l-53 36q25 21 36 58.5t6 75.5l91 -1q4 -28 -4.5 -60.5t-27.5 -61.5t-48 -47z" />
    <glyph glyph-name="M" unicode="M" horiz-adv-x="932" 
d="M177 0h-103l92 750h1l319 -547l-45 10l451 537h1l-92 -750h-106l62 509v-55l-314 -379h-2l-226 379l24 50z" />
    <glyph glyph-name="N" unicode="N" horiz-adv-x="841" 
d="M707 -25h-3l-490 557l29 -12l-62 -520h-107l92 749h4l484 -557l-24 8l63 526h106z" />
    <glyph glyph-name="Ntilde" unicode="&#xd1;" horiz-adv-x="841" 
d="M707 -25h-3l-490 557l29 -12l-62 -520h-107l92 749h4l484 -557l-24 8l63 526h106zM555 732q-37 2 -59.5 20.5t-40.5 37.5q-12 13 -23.5 23.5t-28.5 11.5q-14 1 -25.5 -9.5t-18.5 -28.5t-10 -43l-63 5q2 44 19.5 80t46.5 56.5t67 17.5q30 -1 50 -18.5t36 -36.5
q14 -16 27 -28t29 -13t26 10t15.5 30.5t7.5 44.5l64 -5q0 -48 -16.5 -83.5t-43.5 -54t-59 -17.5z" />
    <glyph glyph-name="Nacute" unicode="&#x143;" horiz-adv-x="841" 
d="M707 -25h-3l-490 557l29 -12l-62 -520h-107l92 749h4l484 -557l-24 8l63 526h106zM642 901l-136 -134h-64l86 134h114z" />
    <glyph glyph-name="uni0145" unicode="&#x145;" horiz-adv-x="841" 
d="M707 -25h-3l-490 557l29 -12l-62 -520h-107l92 749h4l484 -557l-24 8l63 526h106zM364 -213l-53 36q25 21 36 58.5t6 75.5l91 -1q4 -28 -4.5 -60.5t-27.5 -61.5t-48 -47z" />
    <glyph glyph-name="Ncaron" unicode="&#x147;" horiz-adv-x="841" 
d="M707 -25h-3l-490 557l29 -12l-62 -520h-107l92 749h4l484 -557l-24 8l63 526h106zM432 939l75 -99l-28 -7l101 106h94l-188 -183h-1l-147 183h94z" />
    <glyph glyph-name="O" unicode="O" horiz-adv-x="857" 
d="M424 -7q-65 0 -127.5 21.5t-112 64.5t-79 107.5t-29.5 150.5q0 66 24.5 135.5t74 128.5t123.5 95.5t172 36.5q66 0 128 -21.5t112 -64.5t79.5 -108t29.5 -151q0 -66 -25 -135.5t-74 -128t-123 -95t-173 -36.5zM426 96q73 0 126.5 26.5t88 69t51.5 93t17 98.5
q0 50 -18.5 94t-51 78.5t-76.5 54.5t-97 20q-74 0 -127 -26.5t-87 -69.5t-50 -93.5t-16 -97.5q0 -50 17.5 -94.5t49.5 -79t76 -54t97 -19.5z" />
    <glyph glyph-name="Ograve" unicode="&#xd2;" horiz-adv-x="857" 
d="M424 -7q-65 0 -127.5 21.5t-112 64.5t-79 107.5t-29.5 150.5q0 66 24.5 135.5t74 128.5t123.5 95.5t172 36.5q66 0 128 -21.5t112 -64.5t79.5 -108t29.5 -151q0 -66 -25 -135.5t-74 -128t-123 -95t-173 -36.5zM426 96q73 0 126.5 26.5t88 69t51.5 93t17 98.5
q0 50 -18.5 94t-51 78.5t-76.5 54.5t-97 20q-74 0 -127 -26.5t-87 -69.5t-50 -93.5t-16 -97.5q0 -50 17.5 -94.5t49.5 -79t76 -54t97 -19.5zM447 923l66 -134h-65l-115 134h114z" />
    <glyph glyph-name="Oacute" unicode="&#xd3;" horiz-adv-x="857" 
d="M424 -7q-65 0 -127.5 21.5t-112 64.5t-79 107.5t-29.5 150.5q0 66 24.5 135.5t74 128.5t123.5 95.5t172 36.5q66 0 128 -21.5t112 -64.5t79.5 -108t29.5 -151q0 -66 -25 -135.5t-74 -128t-123 -95t-173 -36.5zM426 96q73 0 126.5 26.5t88 69t51.5 93t17 98.5
q0 50 -18.5 94t-51 78.5t-76.5 54.5t-97 20q-74 0 -127 -26.5t-87 -69.5t-50 -93.5t-16 -97.5q0 -50 17.5 -94.5t49.5 -79t76 -54t97 -19.5zM643 923l-136 -134h-64l86 134h114z" />
    <glyph glyph-name="Ocircumflex" unicode="&#xd4;" horiz-adv-x="857" 
d="M424 -7q-65 0 -127.5 21.5t-112 64.5t-79 107.5t-29.5 150.5q0 66 24.5 135.5t74 128.5t123.5 95.5t172 36.5q66 0 128 -21.5t112 -64.5t79.5 -108t29.5 -151q0 -66 -25 -135.5t-74 -128t-123 -95t-173 -36.5zM426 96q73 0 126.5 26.5t88 69t51.5 93t17 98.5
q0 50 -18.5 94t-51 78.5t-76.5 54.5t-97 20q-74 0 -127 -26.5t-87 -69.5t-50 -93.5t-16 -97.5q0 -50 17.5 -94.5t49.5 -79t76 -54t97 -19.5zM557 789l-74 99l27 8l-100 -107h-94l188 183v0l147 -183h-94z" />
    <glyph glyph-name="Otilde" unicode="&#xd5;" horiz-adv-x="857" 
d="M424 -7q-65 0 -127.5 21.5t-112 64.5t-79 107.5t-29.5 150.5q0 66 24.5 135.5t74 128.5t123.5 95.5t172 36.5q66 0 128 -21.5t112 -64.5t79.5 -108t29.5 -151q0 -66 -25 -135.5t-74 -128t-123 -95t-173 -36.5zM426 96q73 0 126.5 26.5t88 69t51.5 93t17 98.5
q0 50 -18.5 94t-51 78.5t-76.5 54.5t-97 20q-74 0 -127 -26.5t-87 -69.5t-50 -93.5t-16 -97.5q0 -50 17.5 -94.5t49.5 -79t76 -54t97 -19.5zM556 754q-37 2 -59.5 20.5t-40.5 37.5q-12 13 -23.5 23.5t-28.5 11.5q-14 1 -25.5 -9.5t-18.5 -28.5t-10 -43l-63 5q2 44 19.5 80
t46.5 56.5t67 17.5q30 -1 50 -18.5t36 -36.5q14 -16 27 -28t29 -13t26 10t15.5 30.5t7.5 44.5l64 -5q0 -48 -16.5 -83.5t-43.5 -54t-59 -17.5z" />
    <glyph glyph-name="Odieresis" unicode="&#xd6;" horiz-adv-x="857" 
d="M424 -7q-65 0 -127.5 21.5t-112 64.5t-79 107.5t-29.5 150.5q0 66 24.5 135.5t74 128.5t123.5 95.5t172 36.5q66 0 128 -21.5t112 -64.5t79.5 -108t29.5 -151q0 -66 -25 -135.5t-74 -128t-123 -95t-173 -36.5zM426 96q73 0 126.5 26.5t88 69t51.5 93t17 98.5
q0 50 -18.5 94t-51 78.5t-76.5 54.5t-97 20q-74 0 -127 -26.5t-87 -69.5t-50 -93.5t-16 -97.5q0 -50 17.5 -94.5t49.5 -79t76 -54t97 -19.5zM339 840q3 25 22 40.5t40 13.5q20 -1 36 -18t13 -42t-22 -40t-39 -14q-21 1 -37 18.5t-13 41.5v0zM528 840q3 25 22 40.5t40 13.5
q20 -1 36 -18.5t13 -41.5q-3 -25 -22 -40t-39 -14q-21 1 -37 18t-13 42v0z" />
    <glyph glyph-name="Omacron" unicode="&#x14c;" horiz-adv-x="857" 
d="M424 -7q-65 0 -127.5 21.5t-112 64.5t-79 107.5t-29.5 150.5q0 66 24.5 135.5t74 128.5t123.5 95.5t172 36.5q66 0 128 -21.5t112 -64.5t79.5 -108t29.5 -151q0 -66 -25 -135.5t-74 -128t-123 -95t-173 -36.5zM426 96q73 0 126.5 26.5t88 69t51.5 93t17 98.5
q0 50 -18.5 94t-51 78.5t-76.5 54.5t-97 20q-74 0 -127 -26.5t-87 -69.5t-50 -93.5t-16 -97.5q0 -50 17.5 -94.5t49.5 -79t76 -54t97 -19.5zM372 844h233l-7 -58h-233z" />
    <glyph glyph-name="Obreve" unicode="&#x14e;" horiz-adv-x="857" 
d="M424 -7q-65 0 -127.5 21.5t-112 64.5t-79 107.5t-29.5 150.5q0 66 24.5 135.5t74 128.5t123.5 95.5t172 36.5q66 0 128 -21.5t112 -64.5t79.5 -108t29.5 -151q0 -66 -25 -135.5t-74 -128t-123 -95t-173 -36.5zM426 96q73 0 126.5 26.5t88 69t51.5 93t17 98.5
q0 50 -18.5 94t-51 78.5t-76.5 54.5t-97 20q-74 0 -127 -26.5t-87 -69.5t-50 -93.5t-16 -97.5q0 -50 17.5 -94.5t49.5 -79t76 -54t97 -19.5zM477 770q-28 1 -52 12.5t-42.5 33t-29 56t-10.5 83.5h69q1 -40 10.5 -65t26.5 -36.5t36 -13.5q26 -1 44 13t30.5 40.5t20.5 61.5h69
q-11 -65 -35.5 -106.5t-59 -61t-77.5 -17.5z" />
    <glyph glyph-name="Ohungarumlaut" unicode="&#x150;" horiz-adv-x="857" 
d="M424 -7q-65 0 -127.5 21.5t-112 64.5t-79 107.5t-29.5 150.5q0 66 24.5 135.5t74 128.5t123.5 95.5t172 36.5q66 0 128 -21.5t112 -64.5t79.5 -108t29.5 -151q0 -66 -25 -135.5t-74 -128t-123 -95t-173 -36.5zM426 96q73 0 126.5 26.5t88 69t51.5 93t17 98.5
q0 50 -18.5 94t-51 78.5t-76.5 54.5t-97 20q-74 0 -127 -26.5t-87 -69.5t-50 -93.5t-16 -97.5q0 -50 17.5 -94.5t49.5 -79t76 -54t97 -19.5zM532 923q-34 -33 -68.5 -67t-67.5 -67h-65q27 33 54 67t54 67h93zM720 923q-33 -33 -67.5 -67t-68.5 -67h-65q27 33 54 67t55 67h92
z" />
    <glyph glyph-name="Ohorn" unicode="&#x1a0;" horiz-adv-x="857" 
d="M424 -7q-65 0 -127.5 21.5t-112 64.5t-79 107.5t-29.5 150.5q0 66 24.5 135.5t74 128.5t123.5 95.5t172 36.5q66 0 128 -21.5t112 -64.5t79.5 -108t29.5 -151q0 -66 -25 -135.5t-74 -128t-123 -95t-173 -36.5zM426 96q73 0 126.5 26.5t88 69t51.5 93t17 98.5
q0 50 -18.5 94t-51 78.5t-76.5 54.5t-97 20q-74 0 -127 -26.5t-87 -69.5t-50 -93.5t-16 -97.5q0 -50 17.5 -94.5t49.5 -79t76 -54t97 -19.5zM719 618q40 -3 64.5 17t36.5 68h77q-15 -63 -42.5 -95.5t-63.5 -43.5t-80 -8z" />
    <glyph glyph-name="uni01EA" unicode="&#x1ea;" horiz-adv-x="857" 
d="M569 24q-32 -14 -66.5 -22.5t-78.5 -8.5q-65 0 -127.5 21.5t-112 64.5t-79 107.5t-29.5 150.5q0 66 24.5 135.5t74 128.5t123.5 95.5t172 36.5q66 0 128 -21.5t112 -64.5t79.5 -108t29.5 -151q0 -51 -17 -107t-49.5 -108t-80.5 -92.5t-110 -62.5q-42 -21 -66.5 -47.5
t-26.5 -60.5q-3 -27 11 -40t32 -14q20 -1 38.5 11t34.5 33l32 -54q-21 -29 -56 -46.5t-67 -15.5q-47 2 -79.5 31t-32.5 76q0 20 10 44.5t32 46.5t57 34zM426 96q73 0 126.5 26.5t88 69t51.5 93t17 98.5q0 50 -18.5 94t-51 78.5t-76.5 54.5t-97 20q-74 0 -127 -26.5
t-87 -69.5t-50 -93.5t-16 -97.5q0 -50 17.5 -94.5t49.5 -79t76 -54t97 -19.5z" />
    <glyph glyph-name="uni020C" unicode="&#x20c;" horiz-adv-x="857" 
d="M424 -7q-65 0 -127.5 21.5t-112 64.5t-79 107.5t-29.5 150.5q0 66 24.5 135.5t74 128.5t123.5 95.5t172 36.5q66 0 128 -21.5t112 -64.5t79.5 -108t29.5 -151q0 -66 -25 -135.5t-74 -128t-123 -95t-173 -36.5zM426 96q73 0 126.5 26.5t88 69t51.5 93t17 98.5
q0 50 -18.5 94t-51 78.5t-76.5 54.5t-97 20q-74 0 -127 -26.5t-87 -69.5t-50 -93.5t-16 -97.5q0 -50 17.5 -94.5t49.5 -79t76 -54t97 -19.5zM393 923l66 -134h-65l-115 134h114zM534 923l66 -134h-65l-115 134h114z" />
    <glyph glyph-name="uni020E" unicode="&#x20e;" horiz-adv-x="857" 
d="M424 -7q-65 0 -127.5 21.5t-112 64.5t-79 107.5t-29.5 150.5q0 66 24.5 135.5t74 128.5t123.5 95.5t172 36.5q66 0 128 -21.5t112 -64.5t79.5 -108t29.5 -151q0 -66 -25 -135.5t-74 -128t-123 -95t-173 -36.5zM426 96q73 0 126.5 26.5t88 69t51.5 93t17 98.5
q0 50 -18.5 94t-51 78.5t-76.5 54.5t-97 20q-74 0 -127 -26.5t-87 -69.5t-50 -93.5t-16 -97.5q0 -50 17.5 -94.5t49.5 -79t76 -54t97 -19.5zM501 943q27 -1 51.5 -12t43 -33t28.5 -56.5t11 -83.5h-70q1 41 -9.5 65.5t-26.5 37t-37 12.5q-25 2 -43.5 -12t-30.5 -40t-21 -63
h-69q12 66 36 107.5t59 60.5t78 17z" />
    <glyph glyph-name="uni022A" unicode="&#x22a;" horiz-adv-x="857" 
d="M424 -7q-65 0 -127.5 21.5t-112 64.5t-79 107.5t-29.5 150.5q0 66 24.5 135.5t74 128.5t123.5 95.5t172 36.5q66 0 128 -21.5t112 -64.5t79.5 -108t29.5 -151q0 -66 -25 -135.5t-74 -128t-123 -95t-173 -36.5zM426 96q73 0 126.5 26.5t88 69t51.5 93t17 98.5
q0 50 -18.5 94t-51 78.5t-76.5 54.5t-97 20q-74 0 -127 -26.5t-87 -69.5t-50 -93.5t-16 -97.5q0 -50 17.5 -94.5t49.5 -79t76 -54t97 -19.5zM339 840q3 25 22 40.5t40 13.5q20 -1 36 -18t13 -42t-22 -40t-39 -14q-21 1 -37 18.5t-13 41.5v0zM528 840q3 25 22 40.5t40 13.5
q20 -1 36 -18.5t13 -41.5q-3 -25 -22 -40t-39 -14q-21 1 -37 18t-13 42v0zM392 1012h233l-7 -58h-233z" />
    <glyph glyph-name="uni022C" unicode="&#x22c;" horiz-adv-x="857" 
d="M424 -7q-65 0 -127.5 21.5t-112 64.5t-79 107.5t-29.5 150.5q0 66 24.5 135.5t74 128.5t123.5 95.5t172 36.5q66 0 128 -21.5t112 -64.5t79.5 -108t29.5 -151q0 -66 -25 -135.5t-74 -128t-123 -95t-173 -36.5zM426 96q73 0 126.5 26.5t88 69t51.5 93t17 98.5
q0 50 -18.5 94t-51 78.5t-76.5 54.5t-97 20q-74 0 -127 -26.5t-87 -69.5t-50 -93.5t-16 -97.5q0 -50 17.5 -94.5t49.5 -79t76 -54t97 -19.5zM556 754q-37 2 -59.5 20.5t-40.5 37.5q-12 13 -23.5 23.5t-28.5 11.5q-14 1 -25.5 -9.5t-18.5 -28.5t-10 -43l-63 5q2 44 19.5 80
t46.5 56.5t67 17.5q30 -1 50 -18.5t36 -36.5q14 -16 27 -28t29 -13t26 10t15.5 30.5t7.5 44.5l64 -5q0 -48 -16.5 -83.5t-43.5 -54t-59 -17.5zM405 1029h233l-7 -58h-233z" />
    <glyph glyph-name="uni0230" unicode="&#x230;" horiz-adv-x="857" 
d="M424 -7q-65 0 -127.5 21.5t-112 64.5t-79 107.5t-29.5 150.5q0 66 24.5 135.5t74 128.5t123.5 95.5t172 36.5q66 0 128 -21.5t112 -64.5t79.5 -108t29.5 -151q0 -66 -25 -135.5t-74 -128t-123 -95t-173 -36.5zM426 96q73 0 126.5 26.5t88 69t51.5 93t17 98.5
q0 50 -18.5 94t-51 78.5t-76.5 54.5t-97 20q-74 0 -127 -26.5t-87 -69.5t-50 -93.5t-16 -97.5q0 -50 17.5 -94.5t49.5 -79t76 -54t97 -19.5zM431 863q1 25 19 42t45 17q21 0 39.5 -12.5t17.5 -39.5q0 -25 -18 -42t-45 -17q-20 0 -39 12.5t-19 39.5zM398 1050h233l-7 -58
h-233z" />
    <glyph glyph-name="uni1ECC" unicode="&#x1ecc;" horiz-adv-x="857" 
d="M424 -7q-65 0 -127.5 21.5t-112 64.5t-79 107.5t-29.5 150.5q0 66 24.5 135.5t74 128.5t123.5 95.5t172 36.5q66 0 128 -21.5t112 -64.5t79.5 -108t29.5 -151q0 -66 -25 -135.5t-74 -128t-123 -95t-173 -36.5zM426 96q73 0 126.5 26.5t88 69t51.5 93t17 98.5
q0 50 -18.5 94t-51 78.5t-76.5 54.5t-97 20q-74 0 -127 -26.5t-87 -69.5t-50 -93.5t-16 -97.5q0 -50 17.5 -94.5t49.5 -79t76 -54t97 -19.5zM364 -101q1 25 19 42t45 17q21 0 39.5 -12.5t17.5 -39.5q0 -25 -18 -42t-45 -17q-20 0 -39 12.5t-19 39.5z" />
    <glyph glyph-name="uni1ECE" unicode="&#x1ece;" horiz-adv-x="857" 
d="M424 -7q-65 0 -127.5 21.5t-112 64.5t-79 107.5t-29.5 150.5q0 66 24.5 135.5t74 128.5t123.5 95.5t172 36.5q66 0 128 -21.5t112 -64.5t79.5 -108t29.5 -151q0 -66 -25 -135.5t-74 -128t-123 -95t-173 -36.5zM426 96q73 0 126.5 26.5t88 69t51.5 93t17 98.5
q0 50 -18.5 94t-51 78.5t-76.5 54.5t-97 20q-74 0 -127 -26.5t-87 -69.5t-50 -93.5t-16 -97.5q0 -50 17.5 -94.5t49.5 -79t76 -54t97 -19.5zM460 797q20 14 34 26.5t17 29.5q2 17 -5 28t-27 12q-14 0 -25 -7t-20 -20l-36 25q20 30 45.5 44t53.5 14q39 -1 57 -23t17 -53
q-1 -26 -22 -53.5t-70 -51.5z" />
    <glyph glyph-name="uni1ED0" unicode="&#x1ed0;" horiz-adv-x="857" 
d="M424 -7q-65 0 -127.5 21.5t-112 64.5t-79 107.5t-29.5 150.5q0 66 24.5 135.5t74 128.5t123.5 95.5t172 36.5q66 0 128 -21.5t112 -64.5t79.5 -108t29.5 -151q0 -66 -25 -135.5t-74 -128t-123 -95t-173 -36.5zM426 96q73 0 126.5 26.5t88 69t51.5 93t17 98.5
q0 50 -18.5 94t-51 78.5t-76.5 54.5t-97 20q-74 0 -127 -26.5t-87 -69.5t-50 -93.5t-16 -97.5q0 -50 17.5 -94.5t49.5 -79t76 -54t97 -19.5zM525 789l-74 99l27 8l-100 -107h-94l188 183v0l147 -183h-94zM756 1053l-136 -134h-64l86 134h114z" />
    <glyph glyph-name="uni1ED2" unicode="&#x1ed2;" horiz-adv-x="857" 
d="M424 -7q-65 0 -127.5 21.5t-112 64.5t-79 107.5t-29.5 150.5q0 66 24.5 135.5t74 128.5t123.5 95.5t172 36.5q66 0 128 -21.5t112 -64.5t79.5 -108t29.5 -151q0 -66 -25 -135.5t-74 -128t-123 -95t-173 -36.5zM426 96q73 0 126.5 26.5t88 69t51.5 93t17 98.5
q0 50 -18.5 94t-51 78.5t-76.5 54.5t-97 20q-74 0 -127 -26.5t-87 -69.5t-50 -93.5t-16 -97.5q0 -50 17.5 -94.5t49.5 -79t76 -54t97 -19.5zM555 771l-74 99l27 8l-100 -107h-94l188 183v0l147 -183h-94zM329 1015l66 -134h-65l-115 134h114z" />
    <glyph glyph-name="uni1ED4" unicode="&#x1ed4;" horiz-adv-x="857" 
d="M424 -7q-65 0 -127.5 21.5t-112 64.5t-79 107.5t-29.5 150.5q0 66 24.5 135.5t74 128.5t123.5 95.5t172 36.5q66 0 128 -21.5t112 -64.5t79.5 -108t29.5 -151q0 -66 -25 -135.5t-74 -128t-123 -95t-173 -36.5zM426 96q73 0 126.5 26.5t88 69t51.5 93t17 98.5
q0 50 -18.5 94t-51 78.5t-76.5 54.5t-97 20q-74 0 -127 -26.5t-87 -69.5t-50 -93.5t-16 -97.5q0 -50 17.5 -94.5t49.5 -79t76 -54t97 -19.5zM546 771l-74 99l27 8l-100 -107h-94l188 183v0l147 -183h-94zM610 904q20 14 34 26.5t17 29.5q2 17 -5 28t-27 12q-14 0 -25 -7
t-20 -20l-36 25q20 30 45.5 44t53.5 14q39 -1 57 -23t17 -53q-1 -26 -22 -53.5t-70 -51.5z" />
    <glyph glyph-name="uni1ED6" unicode="&#x1ed6;" horiz-adv-x="857" 
d="M424 -7q-65 0 -127.5 21.5t-112 64.5t-79 107.5t-29.5 150.5q0 66 24.5 135.5t74 128.5t123.5 95.5t172 36.5q66 0 128 -21.5t112 -64.5t79.5 -108t29.5 -151q0 -66 -25 -135.5t-74 -128t-123 -95t-173 -36.5zM426 96q73 0 126.5 26.5t88 69t51.5 93t17 98.5
q0 50 -18.5 94t-51 78.5t-76.5 54.5t-97 20q-74 0 -127 -26.5t-87 -69.5t-50 -93.5t-16 -97.5q0 -50 17.5 -94.5t49.5 -79t76 -54t97 -19.5zM585 981q-33 2 -52.5 17.5t-34.5 32.5q-11 12 -21.5 21.5t-24.5 9.5q-12 1 -22.5 -8t-17 -25t-8.5 -38l-54 4q2 39 17 70t40.5 48.5
t57.5 15.5q26 -1 43.5 -16.5t31.5 -31.5q13 -14 24 -25t26 -11q19 -2 29.5 19t13.5 55l55 -4q-1 -42 -15 -73t-37.5 -47t-50.5 -14zM561 768l-74 99l27 8l-100 -107h-94l188 183v0l147 -183h-94z" />
    <glyph glyph-name="uni1ED8" unicode="&#x1ed8;" horiz-adv-x="857" 
d="M424 -7q-65 0 -127.5 21.5t-112 64.5t-79 107.5t-29.5 150.5q0 66 24.5 135.5t74 128.5t123.5 95.5t172 36.5q66 0 128 -21.5t112 -64.5t79.5 -108t29.5 -151q0 -66 -25 -135.5t-74 -128t-123 -95t-173 -36.5zM426 96q73 0 126.5 26.5t88 69t51.5 93t17 98.5
q0 50 -18.5 94t-51 78.5t-76.5 54.5t-97 20q-74 0 -127 -26.5t-87 -69.5t-50 -93.5t-16 -97.5q0 -50 17.5 -94.5t49.5 -79t76 -54t97 -19.5zM364 -101q1 25 19 42t45 17q21 0 39.5 -12.5t17.5 -39.5q0 -25 -18 -42t-45 -17q-20 0 -39 12.5t-19 39.5zM557 789l-74 99l27 8
l-100 -107h-94l188 183v0l147 -183h-94z" />
    <glyph glyph-name="uni1EDA" unicode="&#x1eda;" horiz-adv-x="857" 
d="M424 -7q-65 0 -127.5 21.5t-112 64.5t-79 107.5t-29.5 150.5q0 66 24.5 135.5t74 128.5t123.5 95.5t172 36.5q66 0 128 -21.5t112 -64.5t79.5 -108t29.5 -151q0 -66 -25 -135.5t-74 -128t-123 -95t-173 -36.5zM426 96q73 0 126.5 26.5t88 69t51.5 93t17 98.5
q0 50 -18.5 94t-51 78.5t-76.5 54.5t-97 20q-74 0 -127 -26.5t-87 -69.5t-50 -93.5t-16 -97.5q0 -50 17.5 -94.5t49.5 -79t76 -54t97 -19.5zM719 618q40 -3 64.5 17t36.5 68h77q-15 -63 -42.5 -95.5t-63.5 -43.5t-80 -8zM643 923l-136 -134h-64l86 134h114z" />
    <glyph glyph-name="uni1EDC" unicode="&#x1edc;" horiz-adv-x="857" 
d="M424 -7q-65 0 -127.5 21.5t-112 64.5t-79 107.5t-29.5 150.5q0 66 24.5 135.5t74 128.5t123.5 95.5t172 36.5q66 0 128 -21.5t112 -64.5t79.5 -108t29.5 -151q0 -66 -25 -135.5t-74 -128t-123 -95t-173 -36.5zM426 96q73 0 126.5 26.5t88 69t51.5 93t17 98.5
q0 50 -18.5 94t-51 78.5t-76.5 54.5t-97 20q-74 0 -127 -26.5t-87 -69.5t-50 -93.5t-16 -97.5q0 -50 17.5 -94.5t49.5 -79t76 -54t97 -19.5zM719 618q40 -3 64.5 17t36.5 68h77q-15 -63 -42.5 -95.5t-63.5 -43.5t-80 -8zM447 923l66 -134h-65l-115 134h114z" />
    <glyph glyph-name="uni1EDE" unicode="&#x1ede;" horiz-adv-x="857" 
d="M424 -7q-65 0 -127.5 21.5t-112 64.5t-79 107.5t-29.5 150.5q0 66 24.5 135.5t74 128.5t123.5 95.5t172 36.5q66 0 128 -21.5t112 -64.5t79.5 -108t29.5 -151q0 -66 -25 -135.5t-74 -128t-123 -95t-173 -36.5zM426 96q73 0 126.5 26.5t88 69t51.5 93t17 98.5
q0 50 -18.5 94t-51 78.5t-76.5 54.5t-97 20q-74 0 -127 -26.5t-87 -69.5t-50 -93.5t-16 -97.5q0 -50 17.5 -94.5t49.5 -79t76 -54t97 -19.5zM719 618q40 -3 64.5 17t36.5 68h77q-15 -63 -42.5 -95.5t-63.5 -43.5t-80 -8zM460 797q20 14 34 26.5t17 29.5q2 17 -5 28t-27 12
q-14 0 -25 -7t-20 -20l-36 25q20 30 45.5 44t53.5 14q39 -1 57 -23t17 -53q-1 -26 -22 -53.5t-70 -51.5z" />
    <glyph glyph-name="uni1EE0" unicode="&#x1ee0;" horiz-adv-x="857" 
d="M424 -7q-65 0 -127.5 21.5t-112 64.5t-79 107.5t-29.5 150.5q0 66 24.5 135.5t74 128.5t123.5 95.5t172 36.5q66 0 128 -21.5t112 -64.5t79.5 -108t29.5 -151q0 -66 -25 -135.5t-74 -128t-123 -95t-173 -36.5zM426 96q73 0 126.5 26.5t88 69t51.5 93t17 98.5
q0 50 -18.5 94t-51 78.5t-76.5 54.5t-97 20q-74 0 -127 -26.5t-87 -69.5t-50 -93.5t-16 -97.5q0 -50 17.5 -94.5t49.5 -79t76 -54t97 -19.5zM719 618q40 -3 64.5 17t36.5 68h77q-15 -63 -42.5 -95.5t-63.5 -43.5t-80 -8zM556 754q-37 2 -59.5 20.5t-40.5 37.5
q-12 13 -23.5 23.5t-28.5 11.5q-14 1 -25.5 -9.5t-18.5 -28.5t-10 -43l-63 5q2 44 19.5 80t46.5 56.5t67 17.5q30 -1 50 -18.5t36 -36.5q14 -16 27 -28t29 -13t26 10t15.5 30.5t7.5 44.5l64 -5q0 -48 -16.5 -83.5t-43.5 -54t-59 -17.5z" />
    <glyph glyph-name="uni1EE2" unicode="&#x1ee2;" horiz-adv-x="857" 
d="M424 -7q-65 0 -127.5 21.5t-112 64.5t-79 107.5t-29.5 150.5q0 66 24.5 135.5t74 128.5t123.5 95.5t172 36.5q66 0 128 -21.5t112 -64.5t79.5 -108t29.5 -151q0 -66 -25 -135.5t-74 -128t-123 -95t-173 -36.5zM426 96q73 0 126.5 26.5t88 69t51.5 93t17 98.5
q0 50 -18.5 94t-51 78.5t-76.5 54.5t-97 20q-74 0 -127 -26.5t-87 -69.5t-50 -93.5t-16 -97.5q0 -50 17.5 -94.5t49.5 -79t76 -54t97 -19.5zM719 618q40 -3 64.5 17t36.5 68h77q-15 -63 -42.5 -95.5t-63.5 -43.5t-80 -8zM364 -101q1 25 19 42t45 17q21 0 39.5 -12.5
t17.5 -39.5q0 -25 -18 -42t-45 -17q-20 0 -39 12.5t-19 39.5z" />
    <glyph glyph-name="P" unicode="P" horiz-adv-x="591" 
d="M362 726q52 0 95 -13.5t73.5 -39.5t47.5 -63t17 -86q0 -45 -15.5 -91.5t-48 -86t-85 -63.5t-127.5 -24h-103l-31 -259h-110l88 726h199zM328 362q45 0 74.5 15.5t47.5 39t25.5 48.5t7.5 44q0 26 -11.5 52t-38 43.5t-72.5 17.5h-100l-32 -260h99z" />
    <glyph glyph-name="Q" unicode="Q" horiz-adv-x="943" 
d="M641 78l246 26l-12 -104h-380zM466 -7q-65 0 -127.5 21.5t-112 64.5t-79 107.5t-29.5 150.5q0 66 25 135.5t74 128.5t123 95.5t173 36.5q65 0 127.5 -21.5t112 -64.5t79 -108t29.5 -151q0 -66 -25 -135.5t-74 -128t-123 -95t-173 -36.5zM468 96q74 0 127.5 26.5t87.5 69
t51 93t17 98.5q0 50 -18 94t-51 78.5t-77 54.5t-97 20q-73 0 -126 -26.5t-87.5 -69.5t-50.5 -93.5t-16 -97.5q0 -50 18 -94.5t49.5 -79t75.5 -54t97 -19.5z" />
    <glyph glyph-name="R" unicode="R" horiz-adv-x="665" 
d="M362 726q57 0 103 -15.5t77.5 -44.5t46 -71.5t7.5 -98.5q-6 -43 -24 -85t-51 -76t-82.5 -54.5t-119.5 -20.5h-106l-32 -260h-106l88 726h199zM330 362q55 0 88 21.5t49 52t18 57.5q3 20 -1 42t-17 42t-37.5 33t-62.5 13h-110l-31 -261h104zM444 300l152 -300h-124
l-155 297z" />
    <glyph glyph-name="Racute" unicode="&#x154;" horiz-adv-x="665" 
d="M362 726q57 0 103 -15.5t77.5 -44.5t46 -71.5t7.5 -98.5q-6 -43 -24 -85t-51 -76t-82.5 -54.5t-119.5 -20.5h-106l-32 -260h-106l88 726h199zM330 362q55 0 88 21.5t49 52t18 57.5q3 20 -1 42t-17 42t-37.5 33t-62.5 13h-110l-31 -261h104zM444 300l152 -300h-124
l-155 297zM534 923l-136 -134h-64l86 134h114z" />
    <glyph glyph-name="uni0156" unicode="&#x156;" horiz-adv-x="665" 
d="M362 726q57 0 103 -15.5t77.5 -44.5t46 -71.5t7.5 -98.5q-6 -43 -24 -85t-51 -76t-82.5 -54.5t-119.5 -20.5h-106l-32 -260h-106l88 726h199zM330 362q55 0 88 21.5t49 52t18 57.5q3 20 -1 42t-17 42t-37.5 33t-62.5 13h-110l-31 -261h104zM444 300l152 -300h-124
l-155 297zM281 -213l-53 36q25 21 36 58.5t6 75.5l91 -1q4 -28 -4.5 -60.5t-27.5 -61.5t-48 -47z" />
    <glyph glyph-name="Rcaron" unicode="&#x158;" horiz-adv-x="665" 
d="M362 726q57 0 103 -15.5t77.5 -44.5t46 -71.5t7.5 -98.5q-6 -43 -24 -85t-51 -76t-82.5 -54.5t-119.5 -20.5h-106l-32 -260h-106l88 726h199zM330 362q55 0 88 21.5t49 52t18 57.5q3 20 -1 42t-17 42t-37.5 33t-62.5 13h-110l-31 -261h104zM444 300l152 -300h-124
l-155 297zM324 960l75 -99l-28 -7l101 106h94l-188 -183h-1l-147 183h94z" />
    <glyph glyph-name="uni0210" unicode="&#x210;" horiz-adv-x="665" 
d="M362 726q57 0 103 -15.5t77.5 -44.5t46 -71.5t7.5 -98.5q-6 -43 -24 -85t-51 -76t-82.5 -54.5t-119.5 -20.5h-106l-32 -260h-106l88 726h199zM330 362q55 0 88 21.5t49 52t18 57.5q3 20 -1 42t-17 42t-37.5 33t-62.5 13h-110l-31 -261h104zM444 300l152 -300h-124
l-155 297zM284 923l66 -134h-65l-115 134h114zM425 923l66 -134h-65l-115 134h114z" />
    <glyph glyph-name="uni0212" unicode="&#x212;" horiz-adv-x="665" 
d="M362 726q57 0 103 -15.5t77.5 -44.5t46 -71.5t7.5 -98.5q-6 -43 -24 -85t-51 -76t-82.5 -54.5t-119.5 -20.5h-106l-32 -260h-106l88 726h199zM330 362q55 0 88 21.5t49 52t18 57.5q3 20 -1 42t-17 42t-37.5 33t-62.5 13h-110l-31 -261h104zM444 300l152 -300h-124
l-155 297zM393 943q27 -1 51.5 -12t43 -33t28.5 -56.5t11 -83.5h-70q1 41 -9.5 65.5t-26.5 37t-37 12.5q-25 2 -43.5 -12t-30.5 -40t-21 -63h-69q12 66 36 107.5t59 60.5t78 17z" />
    <glyph glyph-name="S" unicode="S" horiz-adv-x="569" 
d="M519 574q-36 22 -79.5 39t-84.5 19q-33 1 -56.5 -6.5t-39.5 -20.5t-24 -30t-10 -35q-2 -30 17 -53t51.5 -41.5t68.5 -35.5q42 -18 80 -44t60.5 -67t16.5 -106q-4 -38 -22 -75t-50.5 -66t-79.5 -45t-109 -13q-46 2 -88.5 13.5t-79.5 31t-68 46.5l58 80q22 -20 52 -37
t63.5 -27.5t65.5 -12.5q39 -1 71 12t52.5 38.5t23.5 59.5q2 31 -14.5 54t-44 41t-59.5 33q-32 14 -64.5 32t-59.5 42t-42 58t-10 80q6 59 38 102t83.5 65t115.5 22q49 -3 88.5 -13.5t71.5 -26.5t59 -35z" />
    <glyph glyph-name="Sacute" unicode="&#x15a;" horiz-adv-x="569" 
d="M519 574q-36 22 -79.5 39t-84.5 19q-33 1 -56.5 -6.5t-39.5 -20.5t-24 -30t-10 -35q-2 -30 17 -53t51.5 -41.5t68.5 -35.5q42 -18 80 -44t60.5 -67t16.5 -106q-4 -38 -22 -75t-50.5 -66t-79.5 -45t-109 -13q-46 2 -88.5 13.5t-79.5 31t-68 46.5l58 80q22 -20 52 -37
t63.5 -27.5t65.5 -12.5q39 -1 71 12t52.5 38.5t23.5 59.5q2 31 -14.5 54t-44 41t-59.5 33q-32 14 -64.5 32t-59.5 42t-42 58t-10 80q6 59 38 102t83.5 65t115.5 22q49 -3 88.5 -13.5t71.5 -26.5t59 -35zM502 901l-136 -134h-64l86 134h114z" />
    <glyph glyph-name="Scircumflex" unicode="&#x15c;" horiz-adv-x="569" 
d="M519 574q-36 22 -79.5 39t-84.5 19q-33 1 -56.5 -6.5t-39.5 -20.5t-24 -30t-10 -35q-2 -30 17 -53t51.5 -41.5t68.5 -35.5q42 -18 80 -44t60.5 -67t16.5 -106q-4 -38 -22 -75t-50.5 -66t-79.5 -45t-109 -13q-46 2 -88.5 13.5t-79.5 31t-68 46.5l58 80q22 -20 52 -37
t63.5 -27.5t65.5 -12.5q39 -1 71 12t52.5 38.5t23.5 59.5q2 31 -14.5 54t-44 41t-59.5 33q-32 14 -64.5 32t-59.5 42t-42 58t-10 80q6 59 38 102t83.5 65t115.5 22q49 -3 88.5 -13.5t71.5 -26.5t59 -35zM416 767l-74 99l27 8l-100 -107h-94l188 183v0l147 -183h-94z" />
    <glyph glyph-name="Scedilla" unicode="&#x15e;" horiz-adv-x="569" 
d="M519 574q-36 22 -79.5 39t-84.5 19q-33 1 -56.5 -6.5t-39.5 -20.5t-24 -30t-10 -35q-2 -30 17 -53t51.5 -41.5t68.5 -35.5q42 -18 80 -44t60.5 -67t16.5 -106q-4 -38 -22 -75t-50.5 -66t-79.5 -45t-109 -13q-46 2 -88.5 13.5t-79.5 31t-68 46.5l58 80q22 -20 52 -37
t63.5 -27.5t65.5 -12.5q39 -1 71 12t52.5 38.5t23.5 59.5q2 31 -14.5 54t-44 41t-59.5 33q-32 14 -64.5 32t-59.5 42t-42 58t-10 80q6 59 38 102t83.5 65t115.5 22q49 -3 88.5 -13.5t71.5 -26.5t59 -35zM176 -144q9 -13 25 -21t37 -10q24 -1 46 9t24 31q3 16 -9 30t-48 16
q-16 1 -33.5 -2t-31.5 -6l-11 51l70 49l78 -2l-77 -78l-19 27q12 3 26.5 5t28.5 1q54 -2 86 -26t26 -69q-3 -34 -26 -55t-56.5 -30t-69.5 -7q-39 3 -64 16t-39 30z" />
    <glyph glyph-name="Scaron" unicode="&#x160;" horiz-adv-x="569" 
d="M519 574q-36 22 -79.5 39t-84.5 19q-33 1 -56.5 -6.5t-39.5 -20.5t-24 -30t-10 -35q-2 -30 17 -53t51.5 -41.5t68.5 -35.5q42 -18 80 -44t60.5 -67t16.5 -106q-4 -38 -22 -75t-50.5 -66t-79.5 -45t-109 -13q-46 2 -88.5 13.5t-79.5 31t-68 46.5l58 80q22 -20 52 -37
t63.5 -27.5t65.5 -12.5q39 -1 71 12t52.5 38.5t23.5 59.5q2 31 -14.5 54t-44 41t-59.5 33q-32 14 -64.5 32t-59.5 42t-42 58t-10 80q6 59 38 102t83.5 65t115.5 22q49 -3 88.5 -13.5t71.5 -26.5t59 -35zM292 939l75 -99l-28 -7l101 106h94l-188 -183h-1l-147 183h94z" />
    <glyph glyph-name="uni0218" unicode="&#x218;" horiz-adv-x="569" 
d="M519 574q-36 22 -79.5 39t-84.5 19q-33 1 -56.5 -6.5t-39.5 -20.5t-24 -30t-10 -35q-2 -30 17 -53t51.5 -41.5t68.5 -35.5q42 -18 80 -44t60.5 -67t16.5 -106q-4 -38 -22 -75t-50.5 -66t-79.5 -45t-109 -13q-46 2 -88.5 13.5t-79.5 31t-68 46.5l58 80q22 -20 52 -37
t63.5 -27.5t65.5 -12.5q39 -1 71 12t52.5 38.5t23.5 59.5q2 31 -14.5 54t-44 41t-59.5 33q-32 14 -64.5 32t-59.5 42t-42 58t-10 80q6 59 38 102t83.5 65t115.5 22q49 -3 88.5 -13.5t71.5 -26.5t59 -35zM240 -213l-53 36q25 21 36 58.5t6 75.5l91 -1q4 -28 -4.5 -60.5
t-27.5 -61.5t-48 -47z" />
    <glyph glyph-name="T" unicode="T" horiz-adv-x="582" 
d="M110 726h484l-13 -105h-189l-76 -621h-110l76 621h-185z" />
    <glyph glyph-name="uni0162" unicode="&#x162;" horiz-adv-x="582" 
d="M110 726h484l-13 -105h-189l-76 -621h-110l76 621h-185zM158 -144q9 -13 25 -21t37 -10q24 -1 46 9t24 31q3 16 -9 30t-48 16q-16 1 -33.5 -2t-31.5 -6l-11 51l70 49l78 -2l-77 -78l-19 27q12 3 26.5 5t28.5 1q54 -2 86 -26t26 -69q-3 -34 -26 -55t-56.5 -30t-69.5 -7
q-39 3 -64 16t-39 30z" />
    <glyph glyph-name="Tcaron" unicode="&#x164;" horiz-adv-x="582" 
d="M110 726h484l-13 -105h-189l-76 -621h-110l76 621h-185zM309 939l75 -99l-28 -7l101 106h94l-188 -183h-1l-147 183h94z" />
    <glyph glyph-name="uni021A" unicode="&#x21a;" horiz-adv-x="582" 
d="M110 726h484l-13 -105h-189l-76 -621h-110l76 621h-185zM221 -213l-53 36q25 21 36 58.5t6 75.5l91 -1q4 -28 -4.5 -60.5t-27.5 -61.5t-48 -47z" />
    <glyph glyph-name="U" unicode="U" horiz-adv-x="759" 
d="M216 259q-5 -46 12 -83t52 -59t82 -22q49 0 89 22t66.5 59t31.5 83l57 467h110l-57 -470q-10 -79 -53 -138.5t-109.5 -92.5t-147.5 -33v0q-76 0 -135 33t-88.5 92.5t-19.5 138.5l57 470h110z" />
    <glyph glyph-name="Ugrave" unicode="&#xd9;" horiz-adv-x="759" 
d="M216 259q-5 -46 12 -83t52 -59t82 -22q49 0 89 22t66.5 59t31.5 83l57 467h110l-57 -470q-10 -79 -53 -138.5t-109.5 -92.5t-147.5 -33v0q-76 0 -135 33t-88.5 92.5t-19.5 138.5l57 470h110zM415 923l66 -134h-65l-115 134h114z" />
    <glyph glyph-name="Uacute" unicode="&#xda;" horiz-adv-x="759" 
d="M216 259q-5 -46 12 -83t52 -59t82 -22q49 0 89 22t66.5 59t31.5 83l57 467h110l-57 -470q-10 -79 -53 -138.5t-109.5 -92.5t-147.5 -33v0q-76 0 -135 33t-88.5 92.5t-19.5 138.5l57 470h110zM611 923l-136 -134h-64l86 134h114z" />
    <glyph glyph-name="Ucircumflex" unicode="&#xdb;" horiz-adv-x="759" 
d="M216 259q-5 -46 12 -83t52 -59t82 -22q49 0 89 22t66.5 59t31.5 83l57 467h110l-57 -470q-10 -79 -53 -138.5t-109.5 -92.5t-147.5 -33v0q-76 0 -135 33t-88.5 92.5t-19.5 138.5l57 470h110zM525 789l-74 99l27 8l-100 -107h-94l188 183v0l147 -183h-94z" />
    <glyph glyph-name="Udieresis" unicode="&#xdc;" horiz-adv-x="759" 
d="M216 259q-5 -46 12 -83t52 -59t82 -22q49 0 89 22t66.5 59t31.5 83l57 467h110l-57 -470q-10 -79 -53 -138.5t-109.5 -92.5t-147.5 -33v0q-76 0 -135 33t-88.5 92.5t-19.5 138.5l57 470h110zM307 840q3 25 22 40.5t40 13.5q20 -1 36 -18t13 -42t-22 -40t-39 -14
q-21 1 -37 18.5t-13 41.5v0zM496 840q3 25 22 40.5t40 13.5q20 -1 36 -18.5t13 -41.5q-3 -25 -22 -40t-39 -14q-21 1 -37 18t-13 42v0z" />
    <glyph glyph-name="Utilde" unicode="&#x168;" horiz-adv-x="759" 
d="M216 259q-5 -46 12 -83t52 -59t82 -22q49 0 89 22t66.5 59t31.5 83l57 467h110l-57 -470q-10 -79 -53 -138.5t-109.5 -92.5t-147.5 -33v0q-76 0 -135 33t-88.5 92.5t-19.5 138.5l57 470h110zM525 754q-37 2 -59.5 20.5t-40.5 37.5q-12 13 -23.5 23.5t-28.5 11.5
q-14 1 -25.5 -9.5t-18.5 -28.5t-10 -43l-63 5q2 44 19.5 80t46.5 56.5t67 17.5q30 -1 50 -18.5t36 -36.5q14 -16 27 -28t29 -13t26 10t15.5 30.5t7.5 44.5l64 -5q0 -48 -16.5 -83.5t-43.5 -54t-59 -17.5z" />
    <glyph glyph-name="Umacron" unicode="&#x16a;" horiz-adv-x="759" 
d="M216 259q-5 -46 12 -83t52 -59t82 -22q49 0 89 22t66.5 59t31.5 83l57 467h110l-57 -470q-10 -79 -53 -138.5t-109.5 -92.5t-147.5 -33v0q-76 0 -135 33t-88.5 92.5t-19.5 138.5l57 470h110zM341 844h233l-7 -58h-233z" />
    <glyph glyph-name="Ubreve" unicode="&#x16c;" horiz-adv-x="759" 
d="M216 259q-5 -46 12 -83t52 -59t82 -22q49 0 89 22t66.5 59t31.5 83l57 467h110l-57 -470q-10 -79 -53 -138.5t-109.5 -92.5t-147.5 -33v0q-76 0 -135 33t-88.5 92.5t-19.5 138.5l57 470h110zM446 770q-28 1 -52 12.5t-42.5 33t-29 56t-10.5 83.5h69q1 -40 10.5 -65
t26.5 -36.5t36 -13.5q26 -1 44 13t30.5 40.5t20.5 61.5h69q-11 -65 -35.5 -106.5t-59 -61t-77.5 -17.5z" />
    <glyph glyph-name="Uring" unicode="&#x16e;" horiz-adv-x="759" 
d="M216 259q-5 -46 12 -83t52 -59t82 -22q49 0 89 22t66.5 59t31.5 83l57 467h110l-57 -470q-10 -79 -53 -138.5t-109.5 -92.5t-147.5 -33v0q-76 0 -135 33t-88.5 92.5t-19.5 138.5l57 470h110zM364 844q4 43 34.5 67t73.5 22q41 -3 66 -29t20 -67q-3 -42 -34 -66.5
t-72 -22.5t-66.5 28.5t-21.5 67.5zM420 840q-2 -19 8.5 -31t28.5 -13q19 -1 32 10.5t15 31.5q1 21 -9 32.5t-29 12.5q-18 1 -31.5 -10t-14.5 -33z" />
    <glyph glyph-name="Uhungarumlaut" unicode="&#x170;" horiz-adv-x="759" 
d="M216 259q-5 -46 12 -83t52 -59t82 -22q49 0 89 22t66.5 59t31.5 83l57 467h110l-57 -470q-10 -79 -53 -138.5t-109.5 -92.5t-147.5 -33v0q-76 0 -135 33t-88.5 92.5t-19.5 138.5l57 470h110zM500 923q-34 -33 -68.5 -67t-67.5 -67h-65q27 33 54 67t54 67h93zM688 923
q-33 -33 -67.5 -67t-68.5 -67h-65q27 33 54 67t55 67h92z" />
    <glyph glyph-name="Uogonek" unicode="&#x172;" horiz-adv-x="759" 
d="M349 -8q-79 0 -137.5 33t-87 92.5t-18.5 138.5l57 470h110l-57 -467q-5 -46 12 -83t52 -59t82 -22q49 0 89 22t66.5 59t31.5 83l57 467h110l-57 -470q-7 -58 -34.5 -105.5t-68 -82t-88.5 -56.5q-41 -17 -59.5 -43.5t-18.5 -57.5q0 -21 12.5 -36t31.5 -16q20 -1 38 11
t34 33l33 -54q-22 -28 -56.5 -45.5t-67.5 -17.5q-37 0 -62 15.5t-37.5 41.5t-12.5 56q0 43 27 76.5t80 56.5l49 -18q-28 -11 -51.5 -16.5t-58.5 -5.5z" />
    <glyph glyph-name="Uhorn" unicode="&#x1af;" horiz-adv-x="826" 
d="M216 259q-5 -46 12 -83t52 -59t82 -22q49 0 89 22t66.5 59t31.5 83l57 467h110l-57 -470q-10 -79 -53 -138.5t-109.5 -92.5t-147.5 -33v0q-76 0 -135 33t-88.5 92.5t-19.5 138.5l57 470h110zM702 641q40 -3 64.5 17t36.5 68h77q-15 -63 -42.5 -95.5t-63.5 -43.5t-80 -8z
" />
    <glyph glyph-name="uni01D3" unicode="&#x1d3;" horiz-adv-x="759" 
d="M216 259q-5 -46 12 -83t52 -59t82 -22q49 0 89 22t66.5 59t31.5 83l57 467h110l-57 -470q-10 -79 -53 -138.5t-109.5 -92.5t-147.5 -33v0q-76 0 -135 33t-88.5 92.5t-19.5 138.5l57 470h110zM401 960l75 -99l-28 -7l101 106h94l-188 -183h-1l-147 183h94z" />
    <glyph glyph-name="uni0214" unicode="&#x214;" horiz-adv-x="759" 
d="M216 259q-5 -46 12 -83t52 -59t82 -22q49 0 89 22t66.5 59t31.5 83l57 467h110l-57 -470q-10 -79 -53 -138.5t-109.5 -92.5t-147.5 -33v0q-76 0 -135 33t-88.5 92.5t-19.5 138.5l57 470h110zM362 923l66 -134h-65l-115 134h114zM503 923l66 -134h-65l-115 134h114z" />
    <glyph glyph-name="uni0216" unicode="&#x216;" horiz-adv-x="759" 
d="M216 259q-5 -46 12 -83t52 -59t82 -22q49 0 89 22t66.5 59t31.5 83l57 467h110l-57 -470q-10 -79 -53 -138.5t-109.5 -92.5t-147.5 -33v0q-76 0 -135 33t-88.5 92.5t-19.5 138.5l57 470h110zM470 943q27 -1 51.5 -12t43 -33t28.5 -56.5t11 -83.5h-70q1 41 -9.5 65.5
t-26.5 37t-37 12.5q-25 2 -43.5 -12t-30.5 -40t-21 -63h-69q12 66 36 107.5t59 60.5t78 17z" />
    <glyph glyph-name="uni1EE4" unicode="&#x1ee4;" horiz-adv-x="759" 
d="M216 259q-5 -46 12 -83t52 -59t82 -22q49 0 89 22t66.5 59t31.5 83l57 467h110l-57 -470q-10 -79 -53 -138.5t-109.5 -92.5t-147.5 -33v0q-76 0 -135 33t-88.5 92.5t-19.5 138.5l57 470h110zM266 -101q1 25 19 42t45 17q21 0 39.5 -12.5t17.5 -39.5q0 -25 -18 -42
t-45 -17q-20 0 -39 12.5t-19 39.5z" />
    <glyph glyph-name="uni1EE6" unicode="&#x1ee6;" horiz-adv-x="759" 
d="M216 259q-5 -46 12 -83t52 -59t82 -22q49 0 89 22t66.5 59t31.5 83l57 467h110l-57 -470q-10 -79 -53 -138.5t-109.5 -92.5t-147.5 -33v0q-76 0 -135 33t-88.5 92.5t-19.5 138.5l57 470h110zM429 797q20 14 34 26.5t17 29.5q2 17 -5 28t-27 12q-14 0 -25 -7t-20 -20
l-36 25q20 30 45.5 44t53.5 14q39 -1 57 -23t17 -53q-1 -26 -22 -53.5t-70 -51.5z" />
    <glyph glyph-name="uni1EE8" unicode="&#x1ee8;" horiz-adv-x="826" 
d="M216 259q-5 -46 12 -83t52 -59t82 -22q49 0 89 22t66.5 59t31.5 83l57 467h110l-57 -470q-10 -79 -53 -138.5t-109.5 -92.5t-147.5 -33v0q-76 0 -135 33t-88.5 92.5t-19.5 138.5l57 470h110zM702 641q40 -3 64.5 17t36.5 68h77q-15 -63 -42.5 -95.5t-63.5 -43.5t-80 -8z
M611 923l-136 -134h-64l86 134h114z" />
    <glyph glyph-name="uni1EEA" unicode="&#x1eea;" horiz-adv-x="826" 
d="M216 259q-5 -46 12 -83t52 -59t82 -22q49 0 89 22t66.5 59t31.5 83l57 467h110l-57 -470q-10 -79 -53 -138.5t-109.5 -92.5t-147.5 -33v0q-76 0 -135 33t-88.5 92.5t-19.5 138.5l57 470h110zM702 641q40 -3 64.5 17t36.5 68h77q-15 -63 -42.5 -95.5t-63.5 -43.5t-80 -8z
M415 923l66 -134h-65l-115 134h114z" />
    <glyph glyph-name="uni1EEC" unicode="&#x1eec;" horiz-adv-x="826" 
d="M216 259q-5 -46 12 -83t52 -59t82 -22q49 0 89 22t66.5 59t31.5 83l57 467h110l-57 -470q-10 -79 -53 -138.5t-109.5 -92.5t-147.5 -33v0q-76 0 -135 33t-88.5 92.5t-19.5 138.5l57 470h110zM702 641q40 -3 64.5 17t36.5 68h77q-15 -63 -42.5 -95.5t-63.5 -43.5t-80 -8z
M429 797q20 14 34 26.5t17 29.5q2 17 -5 28t-27 12q-14 0 -25 -7t-20 -20l-36 25q20 30 45.5 44t53.5 14q39 -1 57 -23t17 -53q-1 -26 -22 -53.5t-70 -51.5z" />
    <glyph glyph-name="uni1EEE" unicode="&#x1eee;" horiz-adv-x="826" 
d="M216 259q-5 -46 12 -83t52 -59t82 -22q49 0 89 22t66.5 59t31.5 83l57 467h110l-57 -470q-10 -79 -53 -138.5t-109.5 -92.5t-147.5 -33v0q-76 0 -135 33t-88.5 92.5t-19.5 138.5l57 470h110zM702 641q40 -3 64.5 17t36.5 68h77q-15 -63 -42.5 -95.5t-63.5 -43.5t-80 -8z
M525 754q-37 2 -59.5 20.5t-40.5 37.5q-12 13 -23.5 23.5t-28.5 11.5q-14 1 -25.5 -9.5t-18.5 -28.5t-10 -43l-63 5q2 44 19.5 80t46.5 56.5t67 17.5q30 -1 50 -18.5t36 -36.5q14 -16 27 -28t29 -13t26 10t15.5 30.5t7.5 44.5l64 -5q0 -48 -16.5 -83.5t-43.5 -54t-59 -17.5z
" />
    <glyph glyph-name="uni1EF0" unicode="&#x1ef0;" horiz-adv-x="826" 
d="M216 259q-5 -46 12 -83t52 -59t82 -22q49 0 89 22t66.5 59t31.5 83l57 467h110l-57 -470q-10 -79 -53 -138.5t-109.5 -92.5t-147.5 -33v0q-76 0 -135 33t-88.5 92.5t-19.5 138.5l57 470h110zM702 641q40 -3 64.5 17t36.5 68h77q-15 -63 -42.5 -95.5t-63.5 -43.5t-80 -8z
M266 -101q1 25 19 42t45 17q21 0 39.5 -12.5t17.5 -39.5q0 -25 -18 -42t-45 -17q-20 0 -39 12.5t-19 39.5z" />
    <glyph glyph-name="V" unicode="V" horiz-adv-x="724" 
d="M332 -28l-229 754h127l163 -581l-60 12l289 569h126l-413 -754h-3z" />
    <glyph glyph-name="W" unicode="W" horiz-adv-x="1013" 
d="M103 722h124l122 -533l-17 7l186 364l33 -145l-251 -449zM455 722h106l142 -524l-21 4l240 520h114l-377 -754z" />
    <glyph glyph-name="Wcircumflex" unicode="&#x174;" horiz-adv-x="1013" 
d="M103 722h124l122 -533l-17 7l186 364l33 -145l-251 -449zM455 722h106l142 -524l-21 4l240 520h114l-377 -754zM675 793l-74 99l27 8l-100 -107h-94l188 183v0l147 -183h-94z" />
    <glyph glyph-name="Wgrave" unicode="&#x1e80;" horiz-adv-x="1013" 
d="M103 722h124l122 -533l-17 7l186 364l33 -145l-251 -449zM455 722h106l142 -524l-21 4l240 520h114l-377 -754zM565 927l66 -134h-65l-115 134h114z" />
    <glyph glyph-name="Wacute" unicode="&#x1e82;" horiz-adv-x="1013" 
d="M103 722h124l122 -533l-17 7l186 364l33 -145l-251 -449zM455 722h106l142 -524l-21 4l240 520h114l-377 -754zM761 927l-136 -134h-64l86 134h114z" />
    <glyph glyph-name="Wdieresis" unicode="&#x1e84;" horiz-adv-x="1013" 
d="M103 722h124l122 -533l-17 7l186 364l33 -145l-251 -449zM455 722h106l142 -524l-21 4l240 520h114l-377 -754zM457 844q3 25 22 40.5t40 13.5q20 -1 36 -18t13 -42t-22 -40t-39 -14q-21 1 -37 18.5t-13 41.5v0zM646 844q3 25 22 40.5t40 13.5q20 -1 36 -18.5t13 -41.5
q-3 -25 -22 -40t-39 -14q-21 1 -37 18t-13 42v0z" />
    <glyph glyph-name="X" unicode="X" horiz-adv-x="652" 
d="M93 726h135l384 -726h-137zM-6 0l301 397l40 -105l-209 -292h-132zM356 436l206 290h129l-289 -381z" />
    <glyph glyph-name="Y" unicode="Y" horiz-adv-x="698" 
d="M298 239l-209 487h131l161 -396l-33 -2l256 398h132l-331 -487l-30 -239h-107z" />
    <glyph glyph-name="Yacute" unicode="&#xdd;" horiz-adv-x="698" 
d="M298 239l-209 487h131l161 -396l-33 -2l256 398h132l-331 -487l-30 -239h-107zM573 927l-136 -134h-64l86 134h114z" />
    <glyph glyph-name="Ycircumflex" unicode="&#x176;" horiz-adv-x="698" 
d="M298 239l-209 487h131l161 -396l-33 -2l256 398h132l-331 -487l-30 -239h-107zM487 793l-74 99l27 8l-100 -107h-94l188 183v0l147 -183h-94z" />
    <glyph glyph-name="Ydieresis" unicode="&#x178;" horiz-adv-x="698" 
d="M298 239l-209 487h131l161 -396l-33 -2l256 398h132l-331 -487l-30 -239h-107zM269 844q3 25 22 40.5t40 13.5q20 -1 36 -18t13 -42t-22 -40t-39 -14q-21 1 -37 18.5t-13 41.5v0zM458 844q3 25 22 40.5t40 13.5q20 -1 36 -18.5t13 -41.5q-3 -25 -22 -40t-39 -14
q-21 1 -37 18t-13 42v0z" />
    <glyph glyph-name="uni0232" unicode="&#x232;" horiz-adv-x="698" 
d="M298 239l-209 487h131l161 -396l-33 -2l256 398h132l-331 -487l-30 -239h-107zM302 848h233l-7 -58h-233z" />
    <glyph glyph-name="Ygrave" unicode="&#x1ef2;" horiz-adv-x="698" 
d="M298 239l-209 487h131l161 -396l-33 -2l256 398h132l-331 -487l-30 -239h-107zM377 927l66 -134h-65l-115 134h114z" />
    <glyph glyph-name="uni1EF4" unicode="&#x1ef4;" horiz-adv-x="698" 
d="M298 239l-209 487h131l161 -396l-33 -2l256 398h132l-331 -487l-30 -239h-107zM230 -101q1 25 19 42t45 17q21 0 39.5 -12.5t17.5 -39.5q0 -25 -18 -42t-45 -17q-20 0 -39 12.5t-19 39.5z" />
    <glyph glyph-name="uni1EF6" unicode="&#x1ef6;" horiz-adv-x="698" 
d="M298 239l-209 487h131l161 -396l-33 -2l256 398h132l-331 -487l-30 -239h-107zM390 801q20 14 34 26.5t17 29.5q2 17 -5 28t-27 12q-14 0 -25 -7t-20 -20l-36 25q20 30 45.5 44t53.5 14q39 -1 57 -23t17 -53q-1 -26 -22 -53.5t-70 -51.5z" />
    <glyph glyph-name="uni1EF8" unicode="&#x1ef8;" horiz-adv-x="698" 
d="M298 239l-209 487h131l161 -396l-33 -2l256 398h132l-331 -487l-30 -239h-107zM487 758q-37 2 -59.5 20.5t-40.5 37.5q-12 13 -23.5 23.5t-28.5 11.5q-14 1 -25.5 -9.5t-18.5 -28.5t-10 -43l-63 5q2 44 19.5 80t46.5 56.5t67 17.5q30 -1 50 -18.5t36 -36.5q14 -16 27 -28
t29 -13t26 10t15.5 30.5t7.5 44.5l64 -5q0 -48 -16.5 -83.5t-43.5 -54t-59 -17.5z" />
    <glyph glyph-name="Z" unicode="Z" horiz-adv-x="662" 
d="M3 0l510 652l14 -29h-319q-20 0 -39 7.5t-30 22t-9 33.5l10 76h98l-1 -13q-1 -12 5 -17.5t24 -5.5h428l-500 -636l-10 13h443l-13 -103h-611z" />
    <glyph glyph-name="Zacute" unicode="&#x179;" horiz-adv-x="662" 
d="M3 0l510 652l14 -29h-319q-20 0 -39 7.5t-30 22t-9 33.5l10 76h98l-1 -13q-1 -12 5 -17.5t24 -5.5h428l-500 -636l-10 13h443l-13 -103h-611zM590 927l-136 -134h-64l86 134h114z" />
    <glyph glyph-name="Zdotaccent" unicode="&#x17b;" horiz-adv-x="662" 
d="M3 0l510 652l14 -29h-319q-20 0 -39 7.5t-30 22t-9 33.5l10 76h98l-1 -13q-1 -12 5 -17.5t24 -5.5h428l-500 -636l-10 13h443l-13 -103h-611zM378 868q1 25 19 42t45 17q21 0 39.5 -12.5t17.5 -39.5q0 -25 -18 -42t-45 -17q-20 0 -39 12.5t-19 39.5z" />
    <glyph glyph-name="Zcaron" unicode="&#x17d;" horiz-adv-x="662" 
d="M3 0l510 652l14 -29h-319q-20 0 -39 7.5t-30 22t-9 33.5l10 76h98l-1 -13q-1 -12 5 -17.5t24 -5.5h428l-500 -636l-10 13h443l-13 -103h-611zM380 965l75 -99l-28 -7l101 106h94l-188 -183h-1l-147 183h94z" />
    <glyph glyph-name="AE" unicode="&#xc6;" horiz-adv-x="956" 
d="M542 726h398l-12 -104h-292l-26 -208h251l-12 -103h-251l-26 -208h306l-13 -103h-412zM541 605q-3 -10 -8.5 -24t-5.5 -16l-419 -565h-123l557 726zM245 260h255l-11 -85h-285z" />
    <glyph glyph-name="AEacute" unicode="&#x1fc;" horiz-adv-x="956" 
d="M542 726h398l-12 -104h-292l-26 -208h251l-12 -103h-251l-26 -208h306l-13 -103h-412zM541 605q-3 -10 -8.5 -24t-5.5 -16l-419 -565h-123l557 726zM245 260h255l-11 -85h-285zM862 927l-136 -134h-64l86 134h114z" />
    <glyph glyph-name="Eth" unicode="&#xd0;" horiz-adv-x="755" 
d="M75 0l88 726h222q100 0 167 -31t104.5 -82.5t51.5 -116t8 -131.5q-7 -86 -40.5 -153.5t-87 -115t-120.5 -72t-142 -24.5h-251zM193 103h130q58 0 108 17t88 50.5t61 84t27 116.5q6 68 -11 116t-50.5 78t-76.5 44t-88 14h-124zM49 403h262l-13 -104h-262z" />
    <glyph glyph-name="Oslash" unicode="&#xd8;" horiz-adv-x="852" 
d="M838 685l-686 -701l-47 46l687 702zM424 -7q-65 0 -127.5 21.5t-112 64.5t-79 107.5t-29.5 150.5q0 66 24.5 135.5t74 128.5t123.5 95.5t172 36.5q66 0 128 -21.5t112 -64.5t79.5 -108t29.5 -151q0 -66 -25 -135.5t-74 -128t-123 -95t-173 -36.5zM426 96q73 0 126.5 26.5
t88 69t51.5 93t17 98.5q0 50 -18.5 94t-51 78.5t-76.5 54.5t-97 20q-74 0 -127 -26.5t-87 -69.5t-50 -93.5t-16 -97.5q0 -50 17.5 -94.5t49.5 -79t76 -54t97 -19.5z" />
    <glyph glyph-name="Oslashacute" unicode="&#x1fe;" horiz-adv-x="852" 
d="M838 685l-686 -701l-47 46l687 702zM424 -7q-65 0 -127.5 21.5t-112 64.5t-79 107.5t-29.5 150.5q0 66 24.5 135.5t74 128.5t123.5 95.5t172 36.5q66 0 128 -21.5t112 -64.5t79.5 -108t29.5 -151q0 -66 -25 -135.5t-74 -128t-123 -95t-173 -36.5zM426 96q73 0 126.5 26.5
t88 69t51.5 93t17 98.5q0 50 -18.5 94t-51 78.5t-76.5 54.5t-97 20q-74 0 -127 -26.5t-87 -69.5t-50 -93.5t-16 -97.5q0 -50 17.5 -94.5t49.5 -79t76 -54t97 -19.5zM659 927l-136 -134h-64l86 134h114z" />
    <glyph glyph-name="Thorn" unicode="&#xde;" horiz-adv-x="590" 
d="M346 592q51 0 94 -13t74 -39t47.5 -63t16.5 -86q0 -46 -15 -92t-47.5 -85.5t-85.5 -63.5t-127 -24h-103l-16 -126h-110l88 710h110l-15 -118h89zM312 229q44 0 73.5 15.5t47.5 39t26 48.5t8 44q0 25 -11.5 51.5t-38.5 44t-73 17.5h-100l-32 -260h100z" />
    <glyph glyph-name="Dcroat" unicode="&#x110;" horiz-adv-x="755" 
d="M75 0l88 726h222q100 0 167 -31t104.5 -82.5t51.5 -116t8 -131.5q-7 -86 -40.5 -153.5t-87 -115t-120.5 -72t-142 -24.5h-251zM193 103h130q58 0 108 17t88 50.5t61 84t27 116.5q6 68 -11 116t-50.5 78t-76.5 44t-88 14h-124zM49 403h262l-13 -104h-262z" />
    <glyph glyph-name="Hbar" unicode="&#x126;" horiz-adv-x="944" 
d="M145 576h739l-7 -58h-739zM815 726l-89 -726h-110l39 313h-362l-39 -313h-110l89 726h110l-38 -309h362l38 309h110z" />
    <glyph glyph-name="IJ" unicode="&#x132;" horiz-adv-x="691" 
d="M163 726h110l-88 -726h-110zM577 136q-11 -89 -53 -152.5t-106 -97t-142 -36.5v0l13 104q46 3 84.5 23t64 60t32.5 102l72 587h107z" />
    <glyph glyph-name="Ldot" unicode="&#x13f;" horiz-adv-x="600" 
d="M163 726h107l-77 -623h364l-13 -103h-469zM542 356q0 28 21 46t44 18q18 0 33 -15t15 -37q0 -18 -9.5 -32t-24 -22t-28.5 -8q-20 0 -35.5 14t-15.5 36v0z" />
    <glyph glyph-name="Lslash" unicode="&#x141;" horiz-adv-x="614" 
d="M466 453l-11 -89l-408 -123l11 89zM163 726h107l-77 -623h364l-13 -103h-469z" />
    <glyph glyph-name="Eng" unicode="&#x14a;" horiz-adv-x="805" 
d="M567 -202l-52 64q32 23 52.5 58t25.5 82l13 117l80 -140l-488 555l30 -14l-61 -520h-108l92 749h4l484 -559l-25 10l62 526h108l-90 -728q-8 -68 -39 -118.5t-88 -81.5z" />
    <glyph glyph-name="OE" unicode="&#x152;" horiz-adv-x="1011" 
d="M565 621q-13 3 -27 5t-29 2q-62 0 -115.5 -22.5t-94 -62.5t-63 -93.5t-22.5 -115.5q0 -50 17.5 -93t48.5 -76t73.5 -51t92.5 -18q15 0 29.5 1.5t29.5 5.5l18 -99q-22 -6 -45 -9t-47 -3q-71 0 -130.5 25.5t-104 71t-68.5 106t-24 129.5q0 85 32.5 159t90 130.5t133 88.5
t162.5 32q24 0 47.5 -3.5t44.5 -9.5zM571 726h447l-12 -100h-337l-26 -212h296l-12 -101h-296l-26 -211h351l-13 -102h-460z" />
    <glyph glyph-name="Tbar" unicode="&#x166;" horiz-adv-x="582" 
d="M110 726h484l-13 -105h-189l-76 -621h-110l76 621h-185zM176 403h262l-13 -104h-262z" />
    <glyph glyph-name="uni018F" unicode="&#x18f;" horiz-adv-x="797" 
d="M436 733q44 0 89.5 -13t87 -39t74.5 -66.5t52.5 -96t19.5 -126.5q0 -50 -14.5 -105t-45 -106t-76.5 -92.5t-109 -65.5t-143 -24q-24 0 -59.5 5.5t-75.5 23.5t-77.5 52.5t-64 92.5t-34.5 145l612 170l14 -79l-543 -156l38 30q10 -47 29 -81.5t45 -58t56.5 -36t62.5 -13.5
q55 -2 99 15.5t76.5 49t54 71t32 80.5t10.5 78q0 54 -14.5 94t-39.5 68t-55.5 45.5t-62.5 25.5t-61 8q-53 1 -108.5 -20.5t-89.5 -55.5l-43 90q31 26 75.5 46.5t94 32t94.5 11.5z" />
    <glyph glyph-name="uni019D" unicode="&#x19d;" horiz-adv-x="805" 
d="M668 -25l-490 556l29 -11l-62 -520h-107l92 749h5l483 -556l-24 7l62 526h107l-89 -727zM150 40l-5 -42q-8 -68 -39 -118t-88 -82l-57 64q31 24 51 58.5t26 81.5l17 131z" />
    <glyph glyph-name="uni01C4" unicode="&#x1c4;" horiz-adv-x="1417" 
d="M75 0l88 726h222q100 0 167 -31t104.5 -82.5t51.5 -116t8 -131.5q-7 -86 -40.5 -153.5t-87 -115t-120.5 -72t-142 -24.5h-251zM193 103h130q58 0 108 17t88 50.5t61 84t27 116.5q6 68 -11 116t-50.5 78t-76.5 44t-88 14h-124zM758 0l510 652l14 -29h-319q-20 0 -39 7.5
t-30 22t-9 33.5l10 76h98l-1 -13q-1 -12 5 -17.5t24 -5.5h428l-500 -636l-10 13h443l-13 -103h-611zM1135 965l75 -99l-28 -7l101 106h94l-188 -183h-1l-147 183h94z" />
    <glyph glyph-name="uni01C7" unicode="&#x1c7;" horiz-adv-x="989" 
d="M163 726h107l-77 -623h364l-13 -103h-469zM875 136q-11 -89 -53 -152.5t-106 -97t-142 -36.5v0l13 104q46 3 84.5 23t64 60t32.5 102l72 587h107z" />
    <glyph glyph-name="uni01CA" unicode="&#x1ca;" horiz-adv-x="1217" 
d="M707 -25h-3l-490 557l29 -12l-62 -520h-107l92 749h4l484 -557l-24 8l63 526h106zM1102 136q-11 -89 -53 -152.5t-106 -97t-142 -36.5v0l13 104q46 3 84.5 23t64 60t32.5 102l72 587h107z" />
    <glyph glyph-name="uni1E9E" unicode="&#x1e9e;" horiz-adv-x="828" 
d="M542 -8q-64 0 -120.5 18t-100.5 51l57 83q34 -25 79.5 -41.5t87.5 -16.5q25 0 52 10t48 32t26 58q4 27 -10 46.5t-38 35.5t-52 32q-34 20 -68.5 46.5t-54.5 63.5t-15 88q6 51 31.5 90t67.5 62.5t97 26.5q28 0 43.5 -7t26.5 -17l-39 -52q-35 39 -84 58t-103 19
q-64 0 -114 -29.5t-83.5 -92.5t-45.5 -162l-49 -394h-107l49 398q14 108 55 190.5t114 128.5t181 46q56 0 108.5 -15t94 -38.5t61.5 -49.5l-39 -78q-7 5 -22 13.5t-39 8.5q-25 0 -45 -11.5t-33.5 -31t-16.5 -44.5q-4 -32 10.5 -54t39.5 -39.5t51 -34.5q27 -16 53.5 -33.5
t48 -40t32 -54t4.5 -75.5q-5 -52 -36 -96t-82.5 -71t-120.5 -27z" />
    <glyph glyph-name="uni0394" unicode="&#x394;" horiz-adv-x="737" 
d="M-1 0l431 755h5l246 -755h-682zM553 53l-182 577l88 -13l-327 -575l-53 60h534z" />
    <glyph glyph-name="uni2126" unicode="&#x2126;" horiz-adv-x="833" 
d="M503 89q44 19 75.5 55.5t50 85t21.5 100.5q3 38 -4 72.5t-25.5 61t-49 42t-73.5 15.5q-52 0 -89 -20t-61.5 -51.5t-38 -68t-18.5 -70.5q-7 -54 5 -98.5t38 -75t59 -48.5l-5 -43q-30 9 -63 23.5t-62.5 40t-48 67.5t-18.5 106q0 83 24.5 144t67.5 102t99 61t118 20
q68 0 117 -22t79 -61t40.5 -92t1.5 -115t-29.5 -106t-48 -74t-58 -49t-59 -30.5t-51.5 -18.5zM164 89h229l-11 -89h-229zM503 89h218l-11 -89h-218z" />
    <glyph glyph-name="uni00B5" unicode="&#xb5;" horiz-adv-x="554" 
d="M185 -17q-54 0 -84.5 32.5t-29.5 82.5l88 57l-44 -356h-85l37 311l38 309h102l-33 -274q-2 -32 12 -52.5t50 -21.5q35 0 64.5 20.5t49.5 56t25 81.5l23 190h103l-52 -419h-93l3 82q-16 -28 -42 -50.5t-59.5 -35.5t-72.5 -13z" />
    <glyph glyph-name="a" unicode="a" horiz-adv-x="595" 
d="M222 -8q-45 -1 -86.5 23.5t-67 70.5t-25.5 109q0 43 15.5 85.5t46 78t74 57t98.5 21.5q45 0 75.5 -12.5t50.5 -32t31 -44.5l-9 -18l22 89h94l-50 -419h-103l12 103l8 -26q-6 -7 -20.5 -21t-37.5 -29t-55 -25.5t-73 -9.5zM279 74q28 0 53 11.5t45 32.5t31 50l10 87
q-4 29 -20.5 51t-43 34t-59.5 12q-40 0 -67.5 -14.5t-45 -36.5t-25.5 -47t-8 -47q0 -39 16.5 -69t46 -47t67.5 -17z" />
    <glyph glyph-name="agrave" unicode="&#xe0;" horiz-adv-x="595" 
d="M222 -8q-45 -1 -86.5 23.5t-67 70.5t-25.5 109q0 43 15.5 85.5t46 78t74 57t98.5 21.5q45 0 75.5 -12.5t50.5 -32t31 -44.5l-9 -18l22 89h94l-50 -419h-103l12 103l8 -26q-6 -7 -20.5 -21t-37.5 -29t-55 -25.5t-73 -9.5zM279 74q28 0 53 11.5t45 32.5t31 50l10 87
q-4 29 -20.5 51t-43 34t-59.5 12q-40 0 -67.5 -14.5t-45 -36.5t-25.5 -47t-8 -47q0 -39 16.5 -69t46 -47t67.5 -17zM303 643l66 -134h-65l-115 134h114z" />
    <glyph glyph-name="aacute" unicode="&#xe1;" horiz-adv-x="595" 
d="M222 -8q-45 -1 -86.5 23.5t-67 70.5t-25.5 109q0 43 15.5 85.5t46 78t74 57t98.5 21.5q45 0 75.5 -12.5t50.5 -32t31 -44.5l-9 -18l22 89h94l-50 -419h-103l12 103l8 -26q-6 -7 -20.5 -21t-37.5 -29t-55 -25.5t-73 -9.5zM279 74q28 0 53 11.5t45 32.5t31 50l10 87
q-4 29 -20.5 51t-43 34t-59.5 12q-40 0 -67.5 -14.5t-45 -36.5t-25.5 -47t-8 -47q0 -39 16.5 -69t46 -47t67.5 -17zM499 643l-136 -134h-64l86 134h114z" />
    <glyph glyph-name="acircumflex" unicode="&#xe2;" horiz-adv-x="595" 
d="M222 -8q-45 -1 -86.5 23.5t-67 70.5t-25.5 109q0 43 15.5 85.5t46 78t74 57t98.5 21.5q45 0 75.5 -12.5t50.5 -32t31 -44.5l-9 -18l22 89h94l-50 -419h-103l12 103l8 -26q-6 -7 -20.5 -21t-37.5 -29t-55 -25.5t-73 -9.5zM279 74q28 0 53 11.5t45 32.5t31 50l10 87
q-4 29 -20.5 51t-43 34t-59.5 12q-40 0 -67.5 -14.5t-45 -36.5t-25.5 -47t-8 -47q0 -39 16.5 -69t46 -47t67.5 -17zM413 509l-74 99l27 8l-100 -107h-94l188 183v0l147 -183h-94z" />
    <glyph glyph-name="atilde" unicode="&#xe3;" horiz-adv-x="595" 
d="M222 -8q-45 -1 -86.5 23.5t-67 70.5t-25.5 109q0 43 15.5 85.5t46 78t74 57t98.5 21.5q45 0 75.5 -12.5t50.5 -32t31 -44.5l-9 -18l22 89h94l-50 -419h-103l12 103l8 -26q-6 -7 -20.5 -21t-37.5 -29t-55 -25.5t-73 -9.5zM279 74q28 0 53 11.5t45 32.5t31 50l10 87
q-4 29 -20.5 51t-43 34t-59.5 12q-40 0 -67.5 -14.5t-45 -36.5t-25.5 -47t-8 -47q0 -39 16.5 -69t46 -47t67.5 -17zM412 474q-37 2 -59.5 20.5t-40.5 37.5q-12 13 -23.5 23.5t-28.5 11.5q-14 1 -25.5 -9.5t-18.5 -28.5t-10 -43l-63 5q2 44 19.5 80t46.5 56.5t67 17.5
q30 -1 50 -18.5t36 -36.5q14 -16 27 -28t29 -13t26 10t15.5 30.5t7.5 44.5l64 -5q0 -48 -16.5 -83.5t-43.5 -54t-59 -17.5z" />
    <glyph glyph-name="adieresis" unicode="&#xe4;" horiz-adv-x="595" 
d="M222 -8q-45 -1 -86.5 23.5t-67 70.5t-25.5 109q0 43 15.5 85.5t46 78t74 57t98.5 21.5q45 0 75.5 -12.5t50.5 -32t31 -44.5l-9 -18l22 89h94l-50 -419h-103l12 103l8 -26q-6 -7 -20.5 -21t-37.5 -29t-55 -25.5t-73 -9.5zM279 74q28 0 53 11.5t45 32.5t31 50l10 87
q-4 29 -20.5 51t-43 34t-59.5 12q-40 0 -67.5 -14.5t-45 -36.5t-25.5 -47t-8 -47q0 -39 16.5 -69t46 -47t67.5 -17zM195 560q3 25 22 40.5t40 13.5q20 -1 36 -18t13 -42t-22 -40t-39 -14q-21 1 -37 18.5t-13 41.5v0zM384 560q3 25 22 40.5t40 13.5q20 -1 36 -18.5t13 -41.5
q-3 -25 -22 -40t-39 -14q-21 1 -37 18t-13 42v0z" />
    <glyph glyph-name="aring" unicode="&#xe5;" horiz-adv-x="595" 
d="M222 -8q-45 -1 -86.5 23.5t-67 70.5t-25.5 109q0 43 15.5 85.5t46 78t74 57t98.5 21.5q45 0 75.5 -12.5t50.5 -32t31 -44.5l-9 -18l22 89h94l-50 -419h-103l12 103l8 -26q-6 -7 -20.5 -21t-37.5 -29t-55 -25.5t-73 -9.5zM279 74q28 0 53 11.5t45 32.5t31 50l10 87
q-4 29 -20.5 51t-43 34t-59.5 12q-40 0 -67.5 -14.5t-45 -36.5t-25.5 -47t-8 -47q0 -39 16.5 -69t46 -47t67.5 -17zM251 564q4 43 34.5 67t73.5 22q41 -3 66 -29t20 -67q-3 -42 -34 -66.5t-72 -22.5t-66.5 28.5t-21.5 67.5zM307 560q-2 -19 8.5 -31t28.5 -13q19 -1 32 10.5
t15 31.5q1 21 -9 32.5t-29 12.5q-18 1 -31.5 -10t-14.5 -33z" />
    <glyph glyph-name="amacron" unicode="&#x101;" horiz-adv-x="595" 
d="M222 -8q-45 -1 -86.5 23.5t-67 70.5t-25.5 109q0 43 15.5 85.5t46 78t74 57t98.5 21.5q45 0 75.5 -12.5t50.5 -32t31 -44.5l-9 -18l22 89h94l-50 -419h-103l12 103l8 -26q-6 -7 -20.5 -21t-37.5 -29t-55 -25.5t-73 -9.5zM279 74q28 0 53 11.5t45 32.5t31 50l10 87
q-4 29 -20.5 51t-43 34t-59.5 12q-40 0 -67.5 -14.5t-45 -36.5t-25.5 -47t-8 -47q0 -39 16.5 -69t46 -47t67.5 -17zM228 564h233l-7 -58h-233z" />
    <glyph glyph-name="abreve" unicode="&#x103;" horiz-adv-x="595" 
d="M222 -8q-45 -1 -86.5 23.5t-67 70.5t-25.5 109q0 43 15.5 85.5t46 78t74 57t98.5 21.5q45 0 75.5 -12.5t50.5 -32t31 -44.5l-9 -18l22 89h94l-50 -419h-103l12 103l8 -26q-6 -7 -20.5 -21t-37.5 -29t-55 -25.5t-73 -9.5zM279 74q28 0 53 11.5t45 32.5t31 50l10 87
q-4 29 -20.5 51t-43 34t-59.5 12q-40 0 -67.5 -14.5t-45 -36.5t-25.5 -47t-8 -47q0 -39 16.5 -69t46 -47t67.5 -17zM333 490q-28 1 -52 12.5t-42.5 33t-29 56t-10.5 83.5h69q1 -40 10.5 -65t26.5 -36.5t36 -13.5q26 -1 44 13t30.5 40.5t20.5 61.5h69q-11 -65 -35.5 -106.5
t-59 -61t-77.5 -17.5z" />
    <glyph glyph-name="aogonek" unicode="&#x105;" horiz-adv-x="595" 
d="M222 -8q-45 -1 -86.5 23.5t-67 70.5t-25.5 109q0 43 15.5 85.5t46 78t74 57t98.5 21.5q45 0 75.5 -12.5t50.5 -32t31 -44.5l-9 -18l22 89h94l-50 -419h-103l12 103l8 -26q-6 -7 -20.5 -21t-37.5 -29t-55 -25.5t-73 -9.5zM279 74q28 0 53 11.5t45 32.5t31 50l10 87
q-4 29 -20.5 51t-43 34t-59.5 12q-40 0 -67.5 -14.5t-45 -36.5t-25.5 -47t-8 -47q0 -39 16.5 -69t46 -47t67.5 -17zM418 -216q-47 2 -79.5 31.5t-32.5 75.5q0 20 10.5 44t32 45.5t56.5 34.5l113 -17q-55 -21 -88.5 -42t-36.5 -50q-2 -26 11.5 -37.5t32.5 -12.5q20 -1 38 11
t34 34l33 -54q-22 -29 -56.5 -47t-67.5 -16z" />
    <glyph glyph-name="aringacute" unicode="&#x1fb;" horiz-adv-x="595" 
d="M222 -8q-45 -1 -86.5 23.5t-67 70.5t-25.5 109q0 43 15.5 85.5t46 78t74 57t98.5 21.5q45 0 75.5 -12.5t50.5 -32t31 -44.5l-9 -18l22 89h94l-50 -419h-103l12 103l8 -26q-6 -7 -20.5 -21t-37.5 -29t-55 -25.5t-73 -9.5zM279 74q28 0 53 11.5t45 32.5t31 50l10 87
q-4 29 -20.5 51t-43 34t-59.5 12q-40 0 -67.5 -14.5t-45 -36.5t-25.5 -47t-8 -47q0 -39 16.5 -69t46 -47t67.5 -17zM251 564q4 43 34.5 67t73.5 22q41 -3 66 -29t20 -67q-3 -42 -34 -66.5t-72 -22.5t-66.5 28.5t-21.5 67.5zM307 560q-2 -19 8.5 -31t28.5 -13q19 -1 32 10.5
t15 31.5q1 21 -9 32.5t-29 12.5q-18 1 -31.5 -10t-14.5 -33zM525 854l-136 -134h-64l86 134h114z" />
    <glyph glyph-name="uni0201" unicode="&#x201;" horiz-adv-x="595" 
d="M222 -8q-45 -1 -86.5 23.5t-67 70.5t-25.5 109q0 43 15.5 85.5t46 78t74 57t98.5 21.5q45 0 75.5 -12.5t50.5 -32t31 -44.5l-9 -18l22 89h94l-50 -419h-103l12 103l8 -26q-6 -7 -20.5 -21t-37.5 -29t-55 -25.5t-73 -9.5zM279 74q28 0 53 11.5t45 32.5t31 50l10 87
q-4 29 -20.5 51t-43 34t-59.5 12q-40 0 -67.5 -14.5t-45 -36.5t-25.5 -47t-8 -47q0 -39 16.5 -69t46 -47t67.5 -17zM249 643l66 -134h-65l-115 134h114zM390 643l66 -134h-65l-115 134h114z" />
    <glyph glyph-name="uni0203" unicode="&#x203;" horiz-adv-x="595" 
d="M222 -8q-45 -1 -86.5 23.5t-67 70.5t-25.5 109q0 43 15.5 85.5t46 78t74 57t98.5 21.5q45 0 75.5 -12.5t50.5 -32t31 -44.5l-9 -18l22 89h94l-50 -419h-103l12 103l8 -26q-6 -7 -20.5 -21t-37.5 -29t-55 -25.5t-73 -9.5zM279 74q28 0 53 11.5t45 32.5t31 50l10 87
q-4 29 -20.5 51t-43 34t-59.5 12q-40 0 -67.5 -14.5t-45 -36.5t-25.5 -47t-8 -47q0 -39 16.5 -69t46 -47t67.5 -17zM357 663q27 -1 51.5 -12t43 -33t28.5 -56.5t11 -83.5h-70q1 41 -9.5 65.5t-26.5 37t-37 12.5q-25 2 -43.5 -12t-30.5 -40t-21 -63h-69q12 66 36 107.5
t59 60.5t78 17z" />
    <glyph glyph-name="uni1EA1" unicode="&#x1ea1;" horiz-adv-x="595" 
d="M222 -8q-45 -1 -86.5 23.5t-67 70.5t-25.5 109q0 43 15.5 85.5t46 78t74 57t98.5 21.5q45 0 75.5 -12.5t50.5 -32t31 -44.5l-9 -18l22 89h94l-50 -419h-103l12 103l8 -26q-6 -7 -20.5 -21t-37.5 -29t-55 -25.5t-73 -9.5zM279 74q28 0 53 11.5t45 32.5t31 50l10 87
q-4 29 -20.5 51t-43 34t-59.5 12q-40 0 -67.5 -14.5t-45 -36.5t-25.5 -47t-8 -47q0 -39 16.5 -69t46 -47t67.5 -17zM189 -115q1 25 19 42t45 17q21 0 39.5 -12.5t17.5 -39.5q0 -25 -18 -42t-45 -17q-20 0 -39 12.5t-19 39.5z" />
    <glyph glyph-name="uni1EA3" unicode="&#x1ea3;" horiz-adv-x="595" 
d="M222 -8q-45 -1 -86.5 23.5t-67 70.5t-25.5 109q0 43 15.5 85.5t46 78t74 57t98.5 21.5q45 0 75.5 -12.5t50.5 -32t31 -44.5l-9 -18l22 89h94l-50 -419h-103l12 103l8 -26q-6 -7 -20.5 -21t-37.5 -29t-55 -25.5t-73 -9.5zM279 74q28 0 53 11.5t45 32.5t31 50l10 87
q-4 29 -20.5 51t-43 34t-59.5 12q-40 0 -67.5 -14.5t-45 -36.5t-25.5 -47t-8 -47q0 -39 16.5 -69t46 -47t67.5 -17zM316 517q20 14 34 26.5t17 29.5q2 17 -5 28t-27 12q-14 0 -25 -7t-20 -20l-36 25q20 30 45.5 44t53.5 14q39 -1 57 -23t17 -53q-1 -26 -22 -53.5t-70 -51.5z
" />
    <glyph glyph-name="uni1EA5" unicode="&#x1ea5;" horiz-adv-x="595" 
d="M222 -8q-45 -1 -86.5 23.5t-67 70.5t-25.5 109q0 43 15.5 85.5t46 78t74 57t98.5 21.5q45 0 75.5 -12.5t50.5 -32t31 -44.5l-9 -18l22 89h94l-50 -419h-103l12 103l8 -26q-6 -7 -20.5 -21t-37.5 -29t-55 -25.5t-73 -9.5zM279 74q28 0 53 11.5t45 32.5t31 50l10 87
q-4 29 -20.5 51t-43 34t-59.5 12q-40 0 -67.5 -14.5t-45 -36.5t-25.5 -47t-8 -47q0 -39 16.5 -69t46 -47t67.5 -17zM381 509l-74 99l27 8l-100 -107h-94l188 183v0l147 -183h-94zM612 773l-136 -134h-64l86 134h114z" />
    <glyph glyph-name="uni1EA7" unicode="&#x1ea7;" horiz-adv-x="595" 
d="M222 -8q-45 -1 -86.5 23.5t-67 70.5t-25.5 109q0 43 15.5 85.5t46 78t74 57t98.5 21.5q45 0 75.5 -12.5t50.5 -32t31 -44.5l-9 -18l22 89h94l-50 -419h-103l12 103l8 -26q-6 -7 -20.5 -21t-37.5 -29t-55 -25.5t-73 -9.5zM279 74q28 0 53 11.5t45 32.5t31 50l10 87
q-4 29 -20.5 51t-43 34t-59.5 12q-40 0 -67.5 -14.5t-45 -36.5t-25.5 -47t-8 -47q0 -39 16.5 -69t46 -47t67.5 -17zM411 491l-74 99l27 8l-100 -107h-94l188 183v0l147 -183h-94zM185 735l66 -134h-65l-115 134h114z" />
    <glyph glyph-name="uni1EA9" unicode="&#x1ea9;" horiz-adv-x="595" 
d="M222 -8q-45 -1 -86.5 23.5t-67 70.5t-25.5 109q0 43 15.5 85.5t46 78t74 57t98.5 21.5q45 0 75.5 -12.5t50.5 -32t31 -44.5l-9 -18l22 89h94l-50 -419h-103l12 103l8 -26q-6 -7 -20.5 -21t-37.5 -29t-55 -25.5t-73 -9.5zM279 74q28 0 53 11.5t45 32.5t31 50l10 87
q-4 29 -20.5 51t-43 34t-59.5 12q-40 0 -67.5 -14.5t-45 -36.5t-25.5 -47t-8 -47q0 -39 16.5 -69t46 -47t67.5 -17zM402 491l-74 99l27 8l-100 -107h-94l188 183v0l147 -183h-94zM466 624q20 14 34 26.5t17 29.5q2 17 -5 28t-27 12q-14 0 -25 -7t-20 -20l-36 25
q20 30 45.5 44t53.5 14q39 -1 57 -23t17 -53q-1 -26 -22 -53.5t-70 -51.5z" />
    <glyph glyph-name="uni1EAB" unicode="&#x1eab;" horiz-adv-x="595" 
d="M222 -8q-45 -1 -86.5 23.5t-67 70.5t-25.5 109q0 43 15.5 85.5t46 78t74 57t98.5 21.5q45 0 75.5 -12.5t50.5 -32t31 -44.5l-9 -18l22 89h94l-50 -419h-103l12 103l8 -26q-6 -7 -20.5 -21t-37.5 -29t-55 -25.5t-73 -9.5zM279 74q28 0 53 11.5t45 32.5t31 50l10 87
q-4 29 -20.5 51t-43 34t-59.5 12q-40 0 -67.5 -14.5t-45 -36.5t-25.5 -47t-8 -47q0 -39 16.5 -69t46 -47t67.5 -17zM441 702q-33 2 -52.5 17.5t-34.5 32.5q-11 12 -21.5 21.5t-24.5 9.5q-12 1 -22.5 -8t-17 -25t-8.5 -38l-54 4q2 39 17 70t40.5 48.5t57.5 15.5
q26 -1 43.5 -16.5t31.5 -31.5q13 -14 24 -25t26 -11q19 -2 29.5 19t13.5 55l55 -4q-1 -42 -15 -73t-37.5 -47t-50.5 -14zM417 489l-74 99l27 8l-100 -107h-94l188 183v0l147 -183h-94z" />
    <glyph glyph-name="uni1EAD" unicode="&#x1ead;" horiz-adv-x="595" 
d="M222 -8q-45 -1 -86.5 23.5t-67 70.5t-25.5 109q0 43 15.5 85.5t46 78t74 57t98.5 21.5q45 0 75.5 -12.5t50.5 -32t31 -44.5l-9 -18l22 89h94l-50 -419h-103l12 103l8 -26q-6 -7 -20.5 -21t-37.5 -29t-55 -25.5t-73 -9.5zM279 74q28 0 53 11.5t45 32.5t31 50l10 87
q-4 29 -20.5 51t-43 34t-59.5 12q-40 0 -67.5 -14.5t-45 -36.5t-25.5 -47t-8 -47q0 -39 16.5 -69t46 -47t67.5 -17zM189 -115q1 25 19 42t45 17q21 0 39.5 -12.5t17.5 -39.5q0 -25 -18 -42t-45 -17q-20 0 -39 12.5t-19 39.5zM413 509l-74 99l27 8l-100 -107h-94l188 183v0
l147 -183h-94z" />
    <glyph glyph-name="uni1EAF" unicode="&#x1eaf;" horiz-adv-x="595" 
d="M222 -8q-45 -1 -86.5 23.5t-67 70.5t-25.5 109q0 43 15.5 85.5t46 78t74 57t98.5 21.5q45 0 75.5 -12.5t50.5 -32t31 -44.5l-9 -18l22 89h94l-50 -419h-103l12 103l8 -26q-6 -7 -20.5 -21t-37.5 -29t-55 -25.5t-73 -9.5zM279 74q28 0 53 11.5t45 32.5t31 50l10 87
q-4 29 -20.5 51t-43 34t-59.5 12q-40 0 -67.5 -14.5t-45 -36.5t-25.5 -47t-8 -47q0 -39 16.5 -69t46 -47t67.5 -17zM336 502q-28 1 -52 12.5t-42.5 33t-29 56t-10.5 83.5h69q1 -40 10.5 -65t26.5 -36.5t36 -13.5q26 -1 44 13t30.5 40.5t20.5 61.5h69q-11 -65 -35.5 -106.5
t-59 -61t-77.5 -17.5zM528 873l-136 -134h-64l86 134h114z" />
    <glyph glyph-name="uni1EB1" unicode="&#x1eb1;" horiz-adv-x="595" 
d="M222 -8q-45 -1 -86.5 23.5t-67 70.5t-25.5 109q0 43 15.5 85.5t46 78t74 57t98.5 21.5q45 0 75.5 -12.5t50.5 -32t31 -44.5l-9 -18l22 89h94l-50 -419h-103l12 103l8 -26q-6 -7 -20.5 -21t-37.5 -29t-55 -25.5t-73 -9.5zM279 74q28 0 53 11.5t45 32.5t31 50l10 87
q-4 29 -20.5 51t-43 34t-59.5 12q-40 0 -67.5 -14.5t-45 -36.5t-25.5 -47t-8 -47q0 -39 16.5 -69t46 -47t67.5 -17zM331 502q-28 1 -52 12.5t-42.5 33t-29 56t-10.5 83.5h69q1 -40 10.5 -65t26.5 -36.5t36 -13.5q26 -1 44 13t30.5 40.5t20.5 61.5h69q-11 -65 -35.5 -106.5
t-59 -61t-77.5 -17.5zM327 846l66 -134h-65l-115 134h114z" />
    <glyph glyph-name="uni1EB3" unicode="&#x1eb3;" horiz-adv-x="595" 
d="M222 -8q-45 -1 -86.5 23.5t-67 70.5t-25.5 109q0 43 15.5 85.5t46 78t74 57t98.5 21.5q45 0 75.5 -12.5t50.5 -32t31 -44.5l-9 -18l22 89h94l-50 -419h-103l12 103l8 -26q-6 -7 -20.5 -21t-37.5 -29t-55 -25.5t-73 -9.5zM279 74q28 0 53 11.5t45 32.5t31 50l10 87
q-4 29 -20.5 51t-43 34t-59.5 12q-40 0 -67.5 -14.5t-45 -36.5t-25.5 -47t-8 -47q0 -39 16.5 -69t46 -47t67.5 -17zM333 490q-28 1 -52 12.5t-42.5 33t-29 56t-10.5 83.5h69q1 -40 10.5 -65t26.5 -36.5t36 -13.5q26 -1 44 13t30.5 40.5t20.5 61.5h69q-11 -65 -35.5 -106.5
t-59 -61t-77.5 -17.5zM343 741q20 14 34 26.5t17 29.5q2 17 -5 28t-27 12q-14 0 -25 -7t-20 -20l-36 25q20 30 45.5 44t53.5 14q39 -1 57 -23t17 -53q-1 -26 -22 -53.5t-70 -51.5z" />
    <glyph glyph-name="uni1EB5" unicode="&#x1eb5;" horiz-adv-x="595" 
d="M222 -8q-45 -1 -86.5 23.5t-67 70.5t-25.5 109q0 43 15.5 85.5t46 78t74 57t98.5 21.5q45 0 75.5 -12.5t50.5 -32t31 -44.5l-9 -18l22 89h94l-50 -419h-103l12 103l8 -26q-6 -7 -20.5 -21t-37.5 -29t-55 -25.5t-73 -9.5zM279 74q28 0 53 11.5t45 32.5t31 50l10 87
q-4 29 -20.5 51t-43 34t-59.5 12q-40 0 -67.5 -14.5t-45 -36.5t-25.5 -47t-8 -47q0 -39 16.5 -69t46 -47t67.5 -17zM425 725q-33 2 -52 17.5t-35 32.5q-10 12 -20.5 21.5t-24.5 9.5q-13 1 -23 -7.5t-16.5 -25t-8.5 -38.5l-54 5q2 38 17 69.5t40.5 48.5t57.5 15
q26 -1 43.5 -16t31.5 -32q12 -14 23.5 -25t26.5 -11q19 -2 29.5 19t13.5 55l55 -4q-1 -42 -15.5 -72.5t-37.5 -47t-51 -14.5zM323 502q-28 1 -52 12.5t-42.5 33t-29 56t-10.5 83.5h69q1 -40 10.5 -65t26.5 -36.5t36 -13.5q26 -1 44 13t30.5 40.5t20.5 61.5h69
q-11 -65 -35 -106.5t-58.5 -61t-78.5 -17.5z" />
    <glyph glyph-name="uni1EB7" unicode="&#x1eb7;" horiz-adv-x="595" 
d="M222 -8q-45 -1 -86.5 23.5t-67 70.5t-25.5 109q0 43 15.5 85.5t46 78t74 57t98.5 21.5q45 0 75.5 -12.5t50.5 -32t31 -44.5l-9 -18l22 89h94l-50 -419h-103l12 103l8 -26q-6 -7 -20.5 -21t-37.5 -29t-55 -25.5t-73 -9.5zM279 74q28 0 53 11.5t45 32.5t31 50l10 87
q-4 29 -20.5 51t-43 34t-59.5 12q-40 0 -67.5 -14.5t-45 -36.5t-25.5 -47t-8 -47q0 -39 16.5 -69t46 -47t67.5 -17zM189 -115q1 25 19 42t45 17q21 0 39.5 -12.5t17.5 -39.5q0 -25 -18 -42t-45 -17q-20 0 -39 12.5t-19 39.5zM333 490q-28 1 -52 12.5t-42.5 33t-29 56
t-10.5 83.5h69q1 -40 10.5 -65t26.5 -36.5t36 -13.5q26 -1 44 13t30.5 40.5t20.5 61.5h69q-11 -65 -35.5 -106.5t-59 -61t-77.5 -17.5z" />
    <glyph glyph-name="b" unicode="b" horiz-adv-x="601" 
d="M316 -10q-59 0 -99 25t-62 63l14 27l-13 -105h-103l95 777h103l-55 -446l2 36q26 30 68.5 49.5t94.5 19.5q54 0 99 -23t72 -70t27 -116q0 -60 -29 -114.5t-83.5 -88.5t-130.5 -34zM305 77q41 0 69 14t45.5 35.5t25.5 46.5t8 48q0 41 -15.5 71t-44.5 46.5t-68 16.5
q-48 0 -83.5 -25t-52.5 -66l-12 -87q5 -16 14.5 -33.5t24.5 -32.5t37 -24.5t52 -9.5z" />
    <glyph glyph-name="c" unicode="c" horiz-adv-x="465" 
d="M402 28q-29 -18 -66.5 -28.5t-75.5 -10.5q-31 0 -68.5 10t-71.5 33t-56 62.5t-22 96.5q0 42 15.5 84t45 76.5t73 55t100.5 20.5q59 0 101 -17.5t69 -45.5l-59 -63q-15 15 -42 28t-63 13q-35 0 -66.5 -19t-50.5 -51.5t-19 -74.5q0 -34 16.5 -62.5t46 -45.5t69.5 -17
q23 0 43 6.5t37 17.5z" />
    <glyph glyph-name="ccedilla" unicode="&#xe7;" horiz-adv-x="442" 
d="M364 103q13 -16 23 -31.5t22 -32.5q-31 -23 -68.5 -36t-77.5 -13q-57 0 -101.5 26.5t-70 71.5t-25.5 100q0 49 20 93t55.5 77t81 52t94.5 19q42 0 76 -13t61 -35q-16 -16 -31.5 -32t-32.5 -33q-15 14 -36 21.5t-47 7.5q-43 0 -78.5 -20t-56 -53.5t-20.5 -75.5
q0 -34 15 -61.5t42.5 -44t63.5 -16.5q26 0 49 8t42 21v0zM268 -8q-2 -19 3.5 -28t15 -14t16.5 -12q16 -13 23 -30.5t7 -37.5q0 -32 -14.5 -61t-42 -47.5t-67.5 -18.5q-35 0 -62.5 19.5t-36.5 59.5q13 6 27 13t27 13q2 -15 14.5 -25.5t30.5 -10.5q27 0 41.5 18t14.5 42
q0 18 -9.5 27.5t-21.5 18.5t-19.5 22.5t-5.5 37.5l3 22h57z" />
    <glyph glyph-name="cacute" unicode="&#x107;" horiz-adv-x="442" 
d="M402 28q-29 -18 -66.5 -28.5t-75.5 -10.5q-31 0 -68.5 10t-71.5 33t-56 62.5t-22 96.5q0 42 15.5 84t45 76.5t73 55t100.5 20.5q59 0 101 -17.5t69 -45.5l-59 -63q-15 15 -42 28t-63 13q-35 0 -66.5 -19t-50.5 -51.5t-19 -74.5q0 -34 16.5 -62.5t46 -45.5t69.5 -17
q23 0 43 6.5t37 17.5zM413 620l-136 -134h-64l86 134h114z" />
    <glyph glyph-name="ccircumflex" unicode="&#x109;" horiz-adv-x="465" 
d="M402 28q-29 -18 -66.5 -28.5t-75.5 -10.5q-31 0 -68.5 10t-71.5 33t-56 62.5t-22 96.5q0 42 15.5 84t45 76.5t73 55t100.5 20.5q59 0 101 -17.5t69 -45.5l-59 -63q-15 15 -42 28t-63 13q-35 0 -66.5 -19t-50.5 -51.5t-19 -74.5q0 -34 16.5 -62.5t46 -45.5t69.5 -17
q23 0 43 6.5t37 17.5zM347 495l-74 99l27 8l-100 -107h-94l188 183v0l147 -183h-94z" />
    <glyph glyph-name="cdotaccent" unicode="&#x10b;" horiz-adv-x="465" 
d="M402 28q-29 -18 -66.5 -28.5t-75.5 -10.5q-31 0 -68.5 10t-71.5 33t-56 62.5t-22 96.5q0 42 15.5 84t45 76.5t73 55t100.5 20.5q59 0 101 -17.5t69 -45.5l-59 -63q-15 15 -42 28t-63 13q-35 0 -66.5 -19t-50.5 -51.5t-19 -74.5q0 -34 16.5 -62.5t46 -45.5t69.5 -17
q23 0 43 6.5t37 17.5zM221 570q1 25 19 42t45 17q21 0 39.5 -12.5t17.5 -39.5q0 -25 -18 -42t-45 -17q-20 0 -39 12.5t-19 39.5z" />
    <glyph glyph-name="ccaron" unicode="&#x10d;" horiz-adv-x="442" 
d="M402 28q-29 -18 -66.5 -28.5t-75.5 -10.5q-31 0 -68.5 10t-71.5 33t-56 62.5t-22 96.5q0 42 15.5 84t45 76.5t73 55t100.5 20.5q59 0 101 -17.5t69 -45.5l-59 -63q-15 15 -42 28t-63 13q-35 0 -66.5 -19t-50.5 -51.5t-19 -74.5q0 -34 16.5 -62.5t46 -45.5t69.5 -17
q23 0 43 6.5t37 17.5zM253 669l75 -99l-28 -7l101 106h94l-188 -183h-1l-147 183h94z" />
    <glyph glyph-name="d" unicode="d" horiz-adv-x="601" 
d="M245 -9q-60 1 -106.5 29.5t-72 76.5t-23.5 103q2 46 19 88.5t49.5 76t78 53t102.5 19.5q57 -2 99.5 -27t63.5 -60l-21 -25l55 452h103l-96 -777h-103l12 96l8 -25q-35 -36 -76.5 -59t-91.5 -21zM276 78q31 -1 57.5 10t48 32.5t33.5 51.5l10 85q-4 28 -21 50t-43 35
t-59 13q-43 1 -77 -16t-54 -48.5t-22 -75.5q-2 -39 13.5 -70t45 -48.5t68.5 -18.5z" />
    <glyph glyph-name="dcaron" unicode="&#x10f;" horiz-adv-x="657" 
d="M245 -9q-60 1 -106.5 29.5t-72 76.5t-23.5 103q2 46 19 88.5t49.5 76t78 53t102.5 19.5q57 -2 99.5 -27t63.5 -60l-21 -25l55 452h103l-96 -777h-103l12 96l8 -25q-35 -36 -76.5 -59t-91.5 -21zM276 78q31 -1 57.5 10t48 32.5t33.5 51.5l10 85q-4 28 -21 50t-43 35
t-59 13q-43 1 -77 -16t-54 -48.5t-22 -75.5q-2 -39 13.5 -70t45 -48.5t68.5 -18.5zM673 574q-10 6 -20.5 12t-21.5 12q24 20 37 50.5t11 65.5q13 2 28 4t29 3q4 -42 -13 -80.5t-50 -66.5v0z" />
    <glyph glyph-name="e" unicode="e" horiz-adv-x="528" 
d="M277 77q23 0 45.5 8.5t42.5 21.5l37 -80q-31 -17 -66.5 -26.5t-69.5 -9.5q-66 0 -116.5 24.5t-78.5 72t-28 115.5q0 41 15.5 81.5t45 74.5t75.5 55t107 21q37 0 71.5 -9.5t63 -32t48.5 -61t29 -96.5l-354 -96l-16 61l296 83l-36 -14q-10 38 -38 61t-67 23
q-44 0 -74.5 -19.5t-46.5 -51.5t-16 -68q0 -48 19 -78.5t49 -45t63 -14.5z" />
    <glyph glyph-name="egrave" unicode="&#xe8;" horiz-adv-x="528" 
d="M277 77q23 0 45.5 8.5t42.5 21.5l37 -80q-31 -17 -66.5 -26.5t-69.5 -9.5q-66 0 -116.5 24.5t-78.5 72t-28 115.5q0 41 15.5 81.5t45 74.5t75.5 55t107 21q37 0 71.5 -9.5t63 -32t48.5 -61t29 -96.5l-354 -96l-16 61l296 83l-36 -14q-10 38 -38 61t-67 23
q-44 0 -74.5 -19.5t-46.5 -51.5t-16 -68q0 -48 19 -78.5t49 -45t63 -14.5zM261 651l66 -134h-65l-115 134h114z" />
    <glyph glyph-name="eacute" unicode="&#xe9;" horiz-adv-x="443" 
d="M277 77q23 0 45.5 8.5t42.5 21.5l37 -80q-31 -17 -66.5 -26.5t-69.5 -9.5q-66 0 -116.5 24.5t-78.5 72t-28 115.5q0 41 15.5 81.5t45 74.5t75.5 55t107 21q37 0 71.5 -9.5t63 -32t48.5 -61t29 -96.5l-354 -96l-16 61l296 83l-36 -14q-10 38 -38 61t-67 23
q-44 0 -74.5 -19.5t-46.5 -51.5t-16 -68q0 -48 19 -78.5t49 -45t63 -14.5zM417 620l-136 -134h-64l86 134h114z" />
    <glyph glyph-name="ecircumflex" unicode="&#xea;" horiz-adv-x="528" 
d="M277 77q23 0 45.5 8.5t42.5 21.5l37 -80q-31 -17 -66.5 -26.5t-69.5 -9.5q-66 0 -116.5 24.5t-78.5 72t-28 115.5q0 41 15.5 81.5t45 74.5t75.5 55t107 21q37 0 71.5 -9.5t63 -32t48.5 -61t29 -96.5l-354 -96l-16 61l296 83l-36 -14q-10 38 -38 61t-67 23
q-44 0 -74.5 -19.5t-46.5 -51.5t-16 -68q0 -48 19 -78.5t49 -45t63 -14.5zM371 517l-74 99l27 8l-100 -107h-94l188 183v0l147 -183h-94z" />
    <glyph glyph-name="edieresis" unicode="&#xeb;" horiz-adv-x="528" 
d="M277 77q23 0 45.5 8.5t42.5 21.5l37 -80q-31 -17 -66.5 -26.5t-69.5 -9.5q-66 0 -116.5 24.5t-78.5 72t-28 115.5q0 41 15.5 81.5t45 74.5t75.5 55t107 21q37 0 71.5 -9.5t63 -32t48.5 -61t29 -96.5l-354 -96l-16 61l296 83l-36 -14q-10 38 -38 61t-67 23
q-44 0 -74.5 -19.5t-46.5 -51.5t-16 -68q0 -48 19 -78.5t49 -45t63 -14.5zM153 568q3 25 22 40.5t40 13.5q20 -1 36 -18t13 -42t-22 -40t-39 -14q-21 1 -37 18.5t-13 41.5v0zM342 568q3 25 22 40.5t40 13.5q20 -1 36 -18.5t13 -41.5q-3 -25 -22 -40t-39 -14q-21 1 -37 18
t-13 42v0z" />
    <glyph glyph-name="emacron" unicode="&#x113;" horiz-adv-x="528" 
d="M277 77q23 0 45.5 8.5t42.5 21.5l37 -80q-31 -17 -66.5 -26.5t-69.5 -9.5q-66 0 -116.5 24.5t-78.5 72t-28 115.5q0 41 15.5 81.5t45 74.5t75.5 55t107 21q37 0 71.5 -9.5t63 -32t48.5 -61t29 -96.5l-354 -96l-16 61l296 83l-36 -14q-10 38 -38 61t-67 23
q-44 0 -74.5 -19.5t-46.5 -51.5t-16 -68q0 -48 19 -78.5t49 -45t63 -14.5zM186 572h233l-7 -58h-233z" />
    <glyph glyph-name="ebreve" unicode="&#x115;" horiz-adv-x="528" 
d="M277 77q23 0 45.5 8.5t42.5 21.5l37 -80q-31 -17 -66.5 -26.5t-69.5 -9.5q-66 0 -116.5 24.5t-78.5 72t-28 115.5q0 41 15.5 81.5t45 74.5t75.5 55t107 21q37 0 71.5 -9.5t63 -32t48.5 -61t29 -96.5l-354 -96l-16 61l296 83l-36 -14q-10 38 -38 61t-67 23
q-44 0 -74.5 -19.5t-46.5 -51.5t-16 -68q0 -48 19 -78.5t49 -45t63 -14.5zM291 498q-28 1 -52 12.5t-42.5 33t-29 56t-10.5 83.5h69q1 -40 10.5 -65t26.5 -36.5t36 -13.5q26 -1 44 13t30.5 40.5t20.5 61.5h69q-11 -65 -35.5 -106.5t-59 -61t-77.5 -17.5z" />
    <glyph glyph-name="edotaccent" unicode="&#x117;" horiz-adv-x="528" 
d="M277 77q23 0 45.5 8.5t42.5 21.5l37 -80q-31 -17 -66.5 -26.5t-69.5 -9.5q-66 0 -116.5 24.5t-78.5 72t-28 115.5q0 41 15.5 81.5t45 74.5t75.5 55t107 21q37 0 71.5 -9.5t63 -32t48.5 -61t29 -96.5l-354 -96l-16 61l296 83l-36 -14q-10 38 -38 61t-67 23
q-44 0 -74.5 -19.5t-46.5 -51.5t-16 -68q0 -48 19 -78.5t49 -45t63 -14.5zM245 591q1 25 19 42t45 17q21 0 39.5 -12.5t17.5 -39.5q0 -25 -18 -42t-45 -17q-20 0 -39 12.5t-19 39.5z" />
    <glyph glyph-name="eogonek" unicode="&#x119;" horiz-adv-x="522" 
d="M293 -198q-47 3 -79.5 32t-32.5 76q0 22 11 47t33.5 47t58.5 36l45 -21q-15 -8 -32 -15.5t-33 -12.5q-66 0 -116 24.5t-78 72t-28 115.5q0 41 15 81.5t45 74.5t75.5 55t107.5 21q36 0 70.5 -9.5t63 -32t49 -61t28.5 -96.5l-354 -96l-16 59l297 84l-37 -13q-10 38 -38 61
t-66 23q-45 0 -75.5 -19.5t-46.5 -51.5t-16 -68q0 -48 19.5 -78.5t49.5 -45t62 -14.5q24 0 46 8.5t42 21.5l38 -80q-18 -6 -33.5 -12t-29.5 -12q-32 -18 -50.5 -37t-19.5 -42q-3 -23 11 -36t32 -14q20 0 38.5 11.5t34.5 33.5l32 -54q-21 -29 -56 -46.5t-67 -16.5z" />
    <glyph glyph-name="ecaron" unicode="&#x11b;" horiz-adv-x="491" 
d="M277 77q23 0 45.5 8.5t42.5 21.5l37 -80q-31 -17 -66.5 -26.5t-69.5 -9.5q-66 0 -116.5 24.5t-78.5 72t-28 115.5q0 41 15.5 81.5t45 74.5t75.5 55t107 21q37 0 71.5 -9.5t63 -32t48.5 -61t29 -96.5l-354 -96l-16 61l296 83l-36 -14q-10 38 -38 61t-67 23
q-44 0 -74.5 -19.5t-46.5 -51.5t-16 -68q0 -48 19 -78.5t49 -45t63 -14.5zM243 669l75 -99l-28 -7l101 106h94l-188 -183h-1l-147 183h94z" />
    <glyph glyph-name="uni0205" unicode="&#x205;" horiz-adv-x="528" 
d="M277 77q23 0 45.5 8.5t42.5 21.5l37 -80q-31 -17 -66.5 -26.5t-69.5 -9.5q-66 0 -116.5 24.5t-78.5 72t-28 115.5q0 41 15.5 81.5t45 74.5t75.5 55t107 21q37 0 71.5 -9.5t63 -32t48.5 -61t29 -96.5l-354 -96l-16 61l296 83l-36 -14q-10 38 -38 61t-67 23
q-44 0 -74.5 -19.5t-46.5 -51.5t-16 -68q0 -48 19 -78.5t49 -45t63 -14.5zM207 651l66 -134h-65l-115 134h114zM348 651l66 -134h-65l-115 134h114z" />
    <glyph glyph-name="uni0207" unicode="&#x207;" horiz-adv-x="528" 
d="M277 77q23 0 45.5 8.5t42.5 21.5l37 -80q-31 -17 -66.5 -26.5t-69.5 -9.5q-66 0 -116.5 24.5t-78.5 72t-28 115.5q0 41 15.5 81.5t45 74.5t75.5 55t107 21q37 0 71.5 -9.5t63 -32t48.5 -61t29 -96.5l-354 -96l-16 61l296 83l-36 -14q-10 38 -38 61t-67 23
q-44 0 -74.5 -19.5t-46.5 -51.5t-16 -68q0 -48 19 -78.5t49 -45t63 -14.5zM315 671q27 -1 51.5 -12t43 -33t28.5 -56.5t11 -83.5h-70q1 41 -9.5 65.5t-26.5 37t-37 12.5q-25 2 -43.5 -12t-30.5 -40t-21 -63h-69q12 66 36 107.5t59 60.5t78 17z" />
    <glyph glyph-name="uni1EB9" unicode="&#x1eb9;" horiz-adv-x="528" 
d="M277 77q23 0 45.5 8.5t42.5 21.5l37 -80q-31 -17 -66.5 -26.5t-69.5 -9.5q-66 0 -116.5 24.5t-78.5 72t-28 115.5q0 41 15.5 81.5t45 74.5t75.5 55t107 21q37 0 71.5 -9.5t63 -32t48.5 -61t29 -96.5l-354 -96l-16 61l296 83l-36 -14q-10 38 -38 61t-67 23
q-44 0 -74.5 -19.5t-46.5 -51.5t-16 -68q0 -48 19 -78.5t49 -45t63 -14.5zM162 -115q1 25 19 42t45 17q21 0 39.5 -12.5t17.5 -39.5q0 -25 -18 -42t-45 -17q-20 0 -39 12.5t-19 39.5z" />
    <glyph glyph-name="uni1EBB" unicode="&#x1ebb;" horiz-adv-x="528" 
d="M277 77q23 0 45.5 8.5t42.5 21.5l37 -80q-31 -17 -66.5 -26.5t-69.5 -9.5q-66 0 -116.5 24.5t-78.5 72t-28 115.5q0 41 15.5 81.5t45 74.5t75.5 55t107 21q37 0 71.5 -9.5t63 -32t48.5 -61t29 -96.5l-354 -96l-16 61l296 83l-36 -14q-10 38 -38 61t-67 23
q-44 0 -74.5 -19.5t-46.5 -51.5t-16 -68q0 -48 19 -78.5t49 -45t63 -14.5zM274 525q20 14 34 26.5t17 29.5q2 17 -5 28t-27 12q-14 0 -25 -7t-20 -20l-36 25q20 30 45.5 44t53.5 14q39 -1 57 -23t17 -53q-1 -26 -22 -53.5t-70 -51.5z" />
    <glyph glyph-name="uni1EBD" unicode="&#x1ebd;" horiz-adv-x="528" 
d="M277 77q23 0 45.5 8.5t42.5 21.5l37 -80q-31 -17 -66.5 -26.5t-69.5 -9.5q-66 0 -116.5 24.5t-78.5 72t-28 115.5q0 41 15.5 81.5t45 74.5t75.5 55t107 21q37 0 71.5 -9.5t63 -32t48.5 -61t29 -96.5l-354 -96l-16 61l296 83l-36 -14q-10 38 -38 61t-67 23
q-44 0 -74.5 -19.5t-46.5 -51.5t-16 -68q0 -48 19 -78.5t49 -45t63 -14.5zM370 482q-37 2 -59.5 20.5t-40.5 37.5q-12 13 -23.5 23.5t-28.5 11.5q-14 1 -25.5 -9.5t-18.5 -28.5t-10 -43l-63 5q2 44 19.5 80t46.5 56.5t67 17.5q30 -1 50 -18.5t36 -36.5q14 -16 27 -28t29 -13
t26 10t15.5 30.5t7.5 44.5l64 -5q0 -48 -16.5 -83.5t-43.5 -54t-59 -17.5z" />
    <glyph glyph-name="uni1EBF" unicode="&#x1ebf;" horiz-adv-x="528" 
d="M277 77q23 0 45.5 8.5t42.5 21.5l37 -80q-31 -17 -66.5 -26.5t-69.5 -9.5q-66 0 -116.5 24.5t-78.5 72t-28 115.5q0 41 15.5 81.5t45 74.5t75.5 55t107 21q37 0 71.5 -9.5t63 -32t48.5 -61t29 -96.5l-354 -96l-16 61l296 83l-36 -14q-10 38 -38 61t-67 23
q-44 0 -74.5 -19.5t-46.5 -51.5t-16 -68q0 -48 19 -78.5t49 -45t63 -14.5zM339 517l-74 99l27 8l-100 -107h-94l188 183v0l147 -183h-94zM570 781l-136 -134h-64l86 134h114z" />
    <glyph glyph-name="uni1EC1" unicode="&#x1ec1;" horiz-adv-x="528" 
d="M277 77q23 0 45.5 8.5t42.5 21.5l37 -80q-31 -17 -66.5 -26.5t-69.5 -9.5q-66 0 -116.5 24.5t-78.5 72t-28 115.5q0 41 15.5 81.5t45 74.5t75.5 55t107 21q37 0 71.5 -9.5t63 -32t48.5 -61t29 -96.5l-354 -96l-16 61l296 83l-36 -14q-10 38 -38 61t-67 23
q-44 0 -74.5 -19.5t-46.5 -51.5t-16 -68q0 -48 19 -78.5t49 -45t63 -14.5zM369 499l-74 99l27 8l-100 -107h-94l188 183v0l147 -183h-94zM143 743l66 -134h-65l-115 134h114z" />
    <glyph glyph-name="uni1EC3" unicode="&#x1ec3;" horiz-adv-x="528" 
d="M277 77q23 0 45.5 8.5t42.5 21.5l37 -80q-31 -17 -66.5 -26.5t-69.5 -9.5q-66 0 -116.5 24.5t-78.5 72t-28 115.5q0 41 15.5 81.5t45 74.5t75.5 55t107 21q37 0 71.5 -9.5t63 -32t48.5 -61t29 -96.5l-354 -96l-16 61l296 83l-36 -14q-10 38 -38 61t-67 23
q-44 0 -74.5 -19.5t-46.5 -51.5t-16 -68q0 -48 19 -78.5t49 -45t63 -14.5zM360 499l-74 99l27 8l-100 -107h-94l188 183v0l147 -183h-94zM424 632q20 14 34 26.5t17 29.5q2 17 -5 28t-27 12q-14 0 -25 -7t-20 -20l-36 25q20 30 45.5 44t53.5 14q39 -1 57 -23t17 -53
q-1 -26 -22 -53.5t-70 -51.5z" />
    <glyph glyph-name="uni1EC5" unicode="&#x1ec5;" horiz-adv-x="528" 
d="M277 77q23 0 45.5 8.5t42.5 21.5l37 -80q-31 -17 -66.5 -26.5t-69.5 -9.5q-66 0 -116.5 24.5t-78.5 72t-28 115.5q0 41 15.5 81.5t45 74.5t75.5 55t107 21q37 0 71.5 -9.5t63 -32t48.5 -61t29 -96.5l-354 -96l-16 61l296 83l-36 -14q-10 38 -38 61t-67 23
q-44 0 -74.5 -19.5t-46.5 -51.5t-16 -68q0 -48 19 -78.5t49 -45t63 -14.5zM371 517l-74 99l27 8l-100 -107h-94l188 183v0l147 -183h-94zM404 732q-37 2 -59.5 20.5t-40.5 37.5q-12 13 -23.5 23.5t-28.5 11.5q-14 1 -25.5 -9.5t-18.5 -28.5t-10 -43l-63 5q2 44 19.5 80
t46.5 56.5t67 17.5q30 -1 50 -18.5t36 -36.5q14 -16 27 -28t29 -13t26 10t15.5 30.5t7.5 44.5l64 -5q0 -48 -16.5 -83.5t-43.5 -54t-59 -17.5z" />
    <glyph glyph-name="uni1EC7" unicode="&#x1ec7;" horiz-adv-x="528" 
d="M277 77q23 0 45.5 8.5t42.5 21.5l37 -80q-31 -17 -66.5 -26.5t-69.5 -9.5q-66 0 -116.5 24.5t-78.5 72t-28 115.5q0 41 15.5 81.5t45 74.5t75.5 55t107 21q37 0 71.5 -9.5t63 -32t48.5 -61t29 -96.5l-354 -96l-16 61l296 83l-36 -14q-10 38 -38 61t-67 23
q-44 0 -74.5 -19.5t-46.5 -51.5t-16 -68q0 -48 19 -78.5t49 -45t63 -14.5zM162 -115q1 25 19 42t45 17q21 0 39.5 -12.5t17.5 -39.5q0 -25 -18 -42t-45 -17q-20 0 -39 12.5t-19 39.5zM371 517l-74 99l27 8l-100 -107h-94l188 183v0l147 -183h-94z" />
    <glyph glyph-name="f" unicode="f" horiz-adv-x="391" 
d="M87 0l39 328h-71l12 91h71l20 170q11 90 60 139t131 49q22 0 48.5 -6.5t46.5 -20.5l-54 -75q-7 10 -18 14t-22 4q-36 0 -59 -24t-29 -82l-21 -168h131l-11 -91h-132l-39 -328h-103z" />
    <glyph glyph-name="g" unicode="g" horiz-adv-x="608" 
d="M255 -208q-53 0 -91 11t-67 31t-55 45l69 70q20 -22 42.5 -37t50 -22.5t60.5 -7.5q39 0 67.5 14t46.5 39.5t22 60.5l13 108l6 -18q-20 -41 -64.5 -68.5t-106.5 -27.5q-58 0 -104 26t-73.5 74t-27.5 115q0 34 14.5 74t43.5 75.5t74.5 58.5t107.5 23q61 0 104.5 -22
t60.5 -57l-11 -19l24 81h94l-56 -441q-6 -57 -38.5 -99t-85.5 -64.5t-120 -22.5zM301 352q-42 0 -71.5 -15t-47 -37.5t-26 -47.5t-8.5 -47q0 -39 17 -68.5t47 -46t71 -16.5q29 0 56 12t48.5 33t33.5 49l10 87q-5 29 -23 51t-45 34t-62 12z" />
    <glyph glyph-name="gcircumflex" unicode="&#x11d;" horiz-adv-x="608" 
d="M255 -208q-53 0 -91 11t-67 31t-55 45l69 70q20 -22 42.5 -37t50 -22.5t60.5 -7.5q39 0 67.5 14t46.5 39.5t22 60.5l13 108l6 -18q-20 -41 -64.5 -68.5t-106.5 -27.5q-58 0 -104 26t-73.5 74t-27.5 115q0 34 14.5 74t43.5 75.5t74.5 58.5t107.5 23q61 0 104.5 -22
t60.5 -57l-11 -19l24 81h94l-56 -441q-6 -57 -38.5 -99t-85.5 -64.5t-120 -22.5zM301 352q-42 0 -71.5 -15t-47 -37.5t-26 -47.5t-8.5 -47q0 -39 17 -68.5t47 -46t71 -16.5q29 0 56 12t48.5 33t33.5 49l10 87q-5 29 -23 51t-45 34t-62 12zM409 531l-74 99l27 8l-100 -107
h-94l188 183v0l147 -183h-94z" />
    <glyph glyph-name="gbreve" unicode="&#x11f;" horiz-adv-x="608" 
d="M255 -208q-53 0 -91 11t-67 31t-55 45l69 70q20 -22 42.5 -37t50 -22.5t60.5 -7.5q39 0 67.5 14t46.5 39.5t22 60.5l13 108l6 -18q-20 -41 -64.5 -68.5t-106.5 -27.5q-58 0 -104 26t-73.5 74t-27.5 115q0 34 14.5 74t43.5 75.5t74.5 58.5t107.5 23q61 0 104.5 -22
t60.5 -57l-11 -19l24 81h94l-56 -441q-6 -57 -38.5 -99t-85.5 -64.5t-120 -22.5zM301 352q-42 0 -71.5 -15t-47 -37.5t-26 -47.5t-8.5 -47q0 -39 17 -68.5t47 -46t71 -16.5q29 0 56 12t48.5 33t33.5 49l10 87q-5 29 -23 51t-45 34t-62 12zM329 512q-28 1 -52 12.5t-42.5 33
t-29 56t-10.5 83.5h69q1 -40 10.5 -65t26.5 -36.5t36 -13.5q26 -1 44 13t30.5 40.5t20.5 61.5h69q-11 -65 -35.5 -106.5t-59 -61t-77.5 -17.5z" />
    <glyph glyph-name="gdotaccent" unicode="&#x121;" horiz-adv-x="608" 
d="M255 -208q-53 0 -91 11t-67 31t-55 45l69 70q20 -22 42.5 -37t50 -22.5t60.5 -7.5q39 0 67.5 14t46.5 39.5t22 60.5l13 108l6 -18q-20 -41 -64.5 -68.5t-106.5 -27.5q-58 0 -104 26t-73.5 74t-27.5 115q0 34 14.5 74t43.5 75.5t74.5 58.5t107.5 23q61 0 104.5 -22
t60.5 -57l-11 -19l24 81h94l-56 -441q-6 -57 -38.5 -99t-85.5 -64.5t-120 -22.5zM301 352q-42 0 -71.5 -15t-47 -37.5t-26 -47.5t-8.5 -47q0 -39 17 -68.5t47 -46t71 -16.5q29 0 56 12t48.5 33t33.5 49l10 87q-5 29 -23 51t-45 34t-62 12zM283 605q1 25 19 42t45 17
q21 0 39.5 -12.5t17.5 -39.5q0 -25 -18 -42t-45 -17q-20 0 -39 12.5t-19 39.5z" />
    <glyph glyph-name="uni0123" unicode="&#x123;" horiz-adv-x="608" 
d="M365 676l52 -36q-24 -21 -35 -58.5t-7 -75.5l-91 1q-3 28 5 60.5t27.5 62t48.5 46.5zM255 -208q-53 0 -91 11t-67 31t-55 45l69 70q20 -22 42.5 -37t50 -22.5t60.5 -7.5q39 0 67.5 14t46.5 39.5t22 60.5l13 108l6 -18q-20 -41 -64.5 -68.5t-106.5 -27.5q-58 0 -104 26
t-73.5 74t-27.5 115q0 34 14.5 74t43.5 75.5t74.5 58.5t107.5 23q61 0 104.5 -22t60.5 -57l-11 -19l24 81h94l-56 -441q-6 -57 -38.5 -99t-85.5 -64.5t-120 -22.5zM301 352q-42 0 -71.5 -15t-47 -37.5t-26 -47.5t-8.5 -47q0 -39 17 -68.5t47 -46t71 -16.5q29 0 56 12
t48.5 33t33.5 49l10 87q-5 29 -23 51t-45 34t-62 12z" />
    <glyph glyph-name="gcaron" unicode="&#x1e7;" horiz-adv-x="608" 
d="M255 -208q-53 0 -91 11t-67 31t-55 45l69 70q20 -22 42.5 -37t50 -22.5t60.5 -7.5q39 0 67.5 14t46.5 39.5t22 60.5l13 108l6 -18q-20 -41 -64.5 -68.5t-106.5 -27.5q-58 0 -104 26t-73.5 74t-27.5 115q0 34 14.5 74t43.5 75.5t74.5 58.5t107.5 23q61 0 104.5 -22
t60.5 -57l-11 -19l24 81h94l-56 -441q-6 -57 -38.5 -99t-85.5 -64.5t-120 -22.5zM301 352q-42 0 -71.5 -15t-47 -37.5t-26 -47.5t-8.5 -47q0 -39 17 -68.5t47 -46t71 -16.5q29 0 56 12t48.5 33t33.5 49l10 87q-5 29 -23 51t-45 34t-62 12zM285 702l75 -99l-28 -7l101 106h94
l-188 -183h-1l-147 183h94z" />
    <glyph glyph-name="h" unicode="h" horiz-adv-x="562" 
d="M192 342q28 41 74.5 67.5t106.5 26.5t93.5 -35t28.5 -91l-38 -310h-103l33 275q3 32 -12 52t-52 20q-36 0 -66.5 -20t-50.5 -55.5t-26 -81.5l-24 -190h-102l94 777h101l-55 -457z" />
    <glyph glyph-name="hcircumflex" unicode="&#x125;" horiz-adv-x="562" 
d="M192 342q28 41 74.5 67.5t106.5 26.5t93.5 -35t28.5 -91l-38 -310h-103l33 275q3 32 -12 52t-52 20q-36 0 -66.5 -20t-50.5 -55.5t-26 -81.5l-24 -190h-102l94 777h101l-55 -457zM273 773l-74 99l27 8l-100 -107h-94l188 183v0l147 -183h-94z" />
    <glyph glyph-name="i" unicode="i" horiz-adv-x="260" 
d="M105 419h102l-51 -419h-103zM112 561q1 25 19 42t45 17q21 0 39.5 -12.5t17.5 -39.5q0 -25 -18 -42t-45 -17q-20 0 -39 12.5t-19 39.5z" />
    <glyph glyph-name="igrave" unicode="&#xec;" horiz-adv-x="260" 
d="M105 419h102l-51 -419h-103zM128 620l66 -134h-65l-115 134h114z" />
    <glyph glyph-name="iacute" unicode="&#xed;" horiz-adv-x="260" 
d="M105 419h102l-51 -419h-103zM324 620l-136 -134h-64l86 134h114z" />
    <glyph glyph-name="icircumflex" unicode="&#xee;" horiz-adv-x="260" 
d="M105 419h102l-51 -419h-103zM238 486l-74 99l27 8l-100 -107h-94l188 183v0l147 -183h-94z" />
    <glyph glyph-name="idieresis" unicode="&#xef;" horiz-adv-x="260" 
d="M105 419h102l-51 -419h-103zM19 537q3 25 22 40.5t40 13.5q20 -1 36 -18t13 -42t-22 -40t-39 -14q-21 1 -37 18.5t-13 41.5v0zM208 537q3 25 22 40.5t40 13.5q20 -1 36 -18.5t13 -41.5q-3 -25 -22 -40t-39 -14q-21 1 -37 18t-13 42v0z" />
    <glyph glyph-name="itilde" unicode="&#x129;" horiz-adv-x="260" 
d="M105 419h102l-51 -419h-103zM237 451q-37 2 -59.5 20.5t-40.5 37.5q-12 13 -23.5 23.5t-28.5 11.5q-14 1 -25.5 -9.5t-18.5 -28.5t-10 -43l-63 5q2 44 19.5 80t46.5 56.5t67 17.5q30 -1 50 -18.5t36 -36.5q14 -16 27 -28t29 -13t26 10t15.5 30.5t7.5 44.5l64 -5
q0 -48 -16.5 -83.5t-43.5 -54t-59 -17.5z" />
    <glyph glyph-name="imacron" unicode="&#x12b;" horiz-adv-x="260" 
d="M105 419h102l-51 -419h-103zM53 541h233l-7 -58h-233z" />
    <glyph glyph-name="ibreve" unicode="&#x12d;" horiz-adv-x="260" 
d="M105 419h102l-51 -419h-103zM158 467q-28 1 -52 12.5t-42.5 33t-29 56t-10.5 83.5h69q1 -40 10.5 -65t26.5 -36.5t36 -13.5q26 -1 44 13t30.5 40.5t20.5 61.5h69q-11 -65 -35.5 -106.5t-59 -61t-77.5 -17.5z" />
    <glyph glyph-name="iogonek" unicode="&#x12f;" horiz-adv-x="246" 
d="M77 -218q-48 3 -80.5 32t-32.5 75q0 21 10.5 45t32 45.5t56.5 33.5l83 -11l-93 -2l51 419h103l-51 -419q-47 -21 -75 -44t-30 -52q-2 -25 11.5 -36.5t32.5 -12.5q20 -1 38 10.5t34 33.5l33 -54q-22 -29 -56.5 -47t-66.5 -16zM109 543q0 24 18 41.5t46 16.5
q20 0 38.5 -12.5t18.5 -39.5q-1 -24 -19 -41.5t-45 -17.5q-20 0 -39 13t-18 40z" />
    <glyph glyph-name="uni0209" unicode="&#x209;" horiz-adv-x="260" 
d="M105 419h102l-51 -419h-103zM74 620l66 -134h-65l-115 134h114zM215 620l66 -134h-65l-115 134h114z" />
    <glyph glyph-name="uni020B" unicode="&#x20b;" horiz-adv-x="260" 
d="M105 419h102l-51 -419h-103zM182 640q27 -1 51.5 -12t43 -33t28.5 -56.5t11 -83.5h-70q1 41 -9.5 65.5t-26.5 37t-37 12.5q-25 2 -43.5 -12t-30.5 -40t-21 -63h-69q12 66 36 107.5t59 60.5t78 17z" />
    <glyph glyph-name="uni1EC9" unicode="&#x1ec9;" horiz-adv-x="260" 
d="M105 419h102l-51 -419h-103zM141 494q20 14 34 26.5t17 29.5q2 17 -5 28t-27 12q-14 0 -25 -7t-20 -20l-36 25q20 30 45.5 44t53.5 14q39 -1 57 -23t17 -53q-1 -26 -22 -53.5t-70 -51.5z" />
    <glyph glyph-name="uni1ECB" unicode="&#x1ecb;" horiz-adv-x="260" 
d="M105 419h102l-51 -419h-103zM112 561q1 25 19 42t45 17q21 0 39.5 -12.5t17.5 -39.5q0 -25 -18 -42t-45 -17q-20 0 -39 12.5t-19 39.5zM22 -101q1 25 19 42t45 17q21 0 39.5 -12.5t17.5 -39.5q0 -25 -18 -42t-45 -17q-20 0 -39 12.5t-19 39.5z" />
    <glyph glyph-name="j" unicode="j" horiz-adv-x="273" 
d="M-23 -142q36 23 58.5 57t28.5 83l53 421h103l-52 -419q-9 -72 -43 -124.5t-97 -81.5zM121 561q1 25 19 42t45 17q21 0 39.5 -12.5t17.5 -39.5q0 -25 -18 -42t-45 -17q-20 0 -39 12.5t-19 39.5z" />
    <glyph glyph-name="jcircumflex" unicode="&#x135;" horiz-adv-x="273" 
d="M-23 -142q36 23 58.5 57t28.5 83l53 421h103l-52 -419q-9 -72 -43 -124.5t-97 -81.5zM246 486l-74 99l27 8l-100 -107h-94l188 183v0l147 -183h-94z" />
    <glyph glyph-name="k" unicode="k" horiz-adv-x="509" 
d="M54 0l94 777h104l-96 -777h-102zM293 280l158 -280h-120l-114 221zM141 129l-1 99l279 200l58 -55z" />
    <glyph glyph-name="uni0137" unicode="&#x137;" horiz-adv-x="476" 
d="M54 0l94 777h104l-96 -777h-102zM293 280l158 -280h-120l-114 221zM141 129l-1 99l279 200l58 -55zM190 -313l-53 36q25 21 36 58.5t6 75.5l91 -1q4 -28 -4.5 -60.5t-27.5 -61.5t-48 -47z" />
    <glyph glyph-name="l" unicode="l" horiz-adv-x="261" 
d="M148 777h104l-96 -777h-102z" />
    <glyph glyph-name="lacute" unicode="&#x13a;" horiz-adv-x="261" 
d="M148 777h104l-96 -777h-102zM361 970l-136 -134h-64l86 134h114z" />
    <glyph glyph-name="uni013C" unicode="&#x13c;" horiz-adv-x="261" 
d="M148 777h104l-96 -777h-102zM69 -213l-53 36q25 21 36 58.5t6 75.5l91 -1q4 -28 -4.5 -60.5t-27.5 -61.5t-48 -47z" />
    <glyph glyph-name="lcaron" unicode="&#x13e;" horiz-adv-x="261" 
d="M148 777h104l-96 -777h-102zM347 606l-53 36q25 21 36 58.5t6 75.5l91 -1q4 -28 -4.5 -60.5t-27.5 -61.5t-48 -47z" />
    <glyph glyph-name="m" unicode="m" horiz-adv-x="834" 
d="M197 419l-2 -93l-3 15q31 44 75 69.5t100 25.5q51 0 81.5 -22t35.5 -66l-3 -2q31 40 75 65t91 25q62 0 93.5 -35t26.5 -90l-38 -311h-103l34 272q2 31 -8 52t-44 23q-37 0 -67 -22t-49 -57t-25 -75l-24 -193h-103l33 272q3 31 -8.5 52t-44.5 23q-37 0 -66.5 -22
t-49 -57.5t-24.5 -74.5l-24 -193h-102l51 419h92z" />
    <glyph glyph-name="n" unicode="n" horiz-adv-x="562" 
d="M197 419v-93l-7 14q28 43 74.5 69.5t107.5 26.5q60 0 94.5 -35t28.5 -91l-38 -310h-103l34 274q3 33 -13.5 53t-54.5 20q-35 0 -65.5 -20t-49.5 -55.5t-25 -81.5l-24 -190h-102l51 419h92z" />
    <glyph glyph-name="ntilde" unicode="&#xf1;" horiz-adv-x="562" 
d="M197 419v-93l-7 14q28 43 74.5 69.5t107.5 26.5q60 0 94.5 -35t28.5 -91l-38 -310h-103l34 274q3 33 -13.5 53t-54.5 20q-35 0 -65.5 -20t-49.5 -55.5t-25 -81.5l-24 -190h-102l51 419h92zM396 496q-37 2 -59.5 20.5t-40.5 37.5q-12 13 -23.5 23.5t-28.5 11.5
q-14 1 -25.5 -9.5t-18.5 -28.5t-10 -43l-63 5q2 44 19.5 80t46.5 56.5t67 17.5q30 -1 50 -18.5t36 -36.5q14 -16 27 -28t29 -13t26 10t15.5 30.5t7.5 44.5l64 -5q0 -48 -16.5 -83.5t-43.5 -54t-59 -17.5z" />
    <glyph glyph-name="nacute" unicode="&#x144;" horiz-adv-x="568" 
d="M197 419v-93l-7 14q28 43 74.5 69.5t107.5 26.5q60 0 94.5 -35t28.5 -91l-38 -310h-103l34 274q3 33 -13.5 53t-54.5 20q-35 0 -65.5 -20t-49.5 -55.5t-25 -81.5l-24 -190h-102l51 419h92zM460 620l-136 -134h-64l86 134h114z" />
    <glyph glyph-name="uni0146" unicode="&#x146;" horiz-adv-x="562" 
d="M197 419v-93l-7 14q28 43 74.5 69.5t107.5 26.5q60 0 94.5 -35t28.5 -91l-38 -310h-103l34 274q3 33 -13.5 53t-54.5 20q-35 0 -65.5 -20t-49.5 -55.5t-25 -81.5l-24 -190h-102l51 419h92zM216 -213l-53 36q25 21 36 58.5t6 75.5l91 -1q4 -28 -4.5 -60.5t-27.5 -61.5
t-48 -47z" />
    <glyph glyph-name="ncaron" unicode="&#x148;" horiz-adv-x="568" 
d="M197 419v-93l-7 14q28 43 74.5 69.5t107.5 26.5q60 0 94.5 -35t28.5 -91l-38 -310h-103l34 274q3 33 -13.5 53t-54.5 20q-35 0 -65.5 -20t-49.5 -55.5t-25 -81.5l-24 -190h-102l51 419h92zM282 669l75 -99l-28 -7l101 106h94l-188 -183h-1l-147 183h94z" />
    <glyph glyph-name="o" unicode="o" horiz-adv-x="551" 
d="M267 -10q-39 0 -79 12.5t-72.5 38.5t-52.5 64.5t-20 90.5q0 39 13 80.5t42 77.5t75.5 58.5t112.5 22.5q58 0 108.5 -24.5t82.5 -70t32 -111.5q0 -26 -7.5 -58.5t-24 -64t-44.5 -58t-69 -42.5t-97 -16zM270 75q49 0 78.5 24t42.5 59t13 67q0 35 -11.5 59t-30.5 38.5
t-40 21.5t-40 7q-47 0 -77.5 -23.5t-44 -58.5t-13.5 -68q0 -45 19 -73t48 -40.5t56 -12.5z" />
    <glyph glyph-name="ograve" unicode="&#xf2;" horiz-adv-x="551" 
d="M267 -10q-39 0 -79 12.5t-72.5 38.5t-52.5 64.5t-20 90.5q0 39 13 80.5t42 77.5t75.5 58.5t112.5 22.5q58 0 108.5 -24.5t82.5 -70t32 -111.5q0 -26 -7.5 -58.5t-24 -64t-44.5 -58t-69 -42.5t-97 -16zM270 75q49 0 78.5 24t42.5 59t13 67q0 35 -11.5 59t-30.5 38.5
t-40 21.5t-40 7q-47 0 -77.5 -23.5t-44 -58.5t-13.5 -68q0 -45 19 -73t48 -40.5t56 -12.5zM261 629l66 -134h-65l-115 134h114z" />
    <glyph glyph-name="oacute" unicode="&#xf3;" horiz-adv-x="551" 
d="M267 -10q-39 0 -79 12.5t-72.5 38.5t-52.5 64.5t-20 90.5q0 39 13 80.5t42 77.5t75.5 58.5t112.5 22.5q58 0 108.5 -24.5t82.5 -70t32 -111.5q0 -26 -7.5 -58.5t-24 -64t-44.5 -58t-69 -42.5t-97 -16zM270 75q49 0 78.5 24t42.5 59t13 67q0 35 -11.5 59t-30.5 38.5
t-40 21.5t-40 7q-47 0 -77.5 -23.5t-44 -58.5t-13.5 -68q0 -45 19 -73t48 -40.5t56 -12.5zM457 629l-136 -134h-64l86 134h114z" />
    <glyph glyph-name="ocircumflex" unicode="&#xf4;" horiz-adv-x="551" 
d="M267 -10q-39 0 -79 12.5t-72.5 38.5t-52.5 64.5t-20 90.5q0 39 13 80.5t42 77.5t75.5 58.5t112.5 22.5q58 0 108.5 -24.5t82.5 -70t32 -111.5q0 -26 -7.5 -58.5t-24 -64t-44.5 -58t-69 -42.5t-97 -16zM270 75q49 0 78.5 24t42.5 59t13 67q0 35 -11.5 59t-30.5 38.5
t-40 21.5t-40 7q-47 0 -77.5 -23.5t-44 -58.5t-13.5 -68q0 -45 19 -73t48 -40.5t56 -12.5zM371 495l-74 99l27 8l-100 -107h-94l188 183v0l147 -183h-94z" />
    <glyph glyph-name="otilde" unicode="&#xf5;" horiz-adv-x="551" 
d="M267 -10q-39 0 -79 12.5t-72.5 38.5t-52.5 64.5t-20 90.5q0 39 13 80.5t42 77.5t75.5 58.5t112.5 22.5q58 0 108.5 -24.5t82.5 -70t32 -111.5q0 -26 -7.5 -58.5t-24 -64t-44.5 -58t-69 -42.5t-97 -16zM270 75q49 0 78.5 24t42.5 59t13 67q0 35 -11.5 59t-30.5 38.5
t-40 21.5t-40 7q-47 0 -77.5 -23.5t-44 -58.5t-13.5 -68q0 -45 19 -73t48 -40.5t56 -12.5zM370 460q-37 2 -59.5 20.5t-40.5 37.5q-12 13 -23.5 23.5t-28.5 11.5q-14 1 -25.5 -9.5t-18.5 -28.5t-10 -43l-63 5q2 44 19.5 80t46.5 56.5t67 17.5q30 -1 50 -18.5t36 -36.5
q14 -16 27 -28t29 -13t26 10t15.5 30.5t7.5 44.5l64 -5q0 -48 -16.5 -83.5t-43.5 -54t-59 -17.5z" />
    <glyph glyph-name="odieresis" unicode="&#xf6;" horiz-adv-x="551" 
d="M267 -10q-39 0 -79 12.5t-72.5 38.5t-52.5 64.5t-20 90.5q0 39 13 80.5t42 77.5t75.5 58.5t112.5 22.5q58 0 108.5 -24.5t82.5 -70t32 -111.5q0 -26 -7.5 -58.5t-24 -64t-44.5 -58t-69 -42.5t-97 -16zM270 75q49 0 78.5 24t42.5 59t13 67q0 35 -11.5 59t-30.5 38.5
t-40 21.5t-40 7q-47 0 -77.5 -23.5t-44 -58.5t-13.5 -68q0 -45 19 -73t48 -40.5t56 -12.5zM152 546q3 25 22 40.5t40 13.5q20 -1 36 -18t13 -42t-22 -40t-39 -14q-21 1 -37 18.5t-13 41.5v0zM341 546q3 25 22 40.5t40 13.5q20 -1 36 -18.5t13 -41.5q-3 -25 -22 -40t-39 -14
q-21 1 -37 18t-13 42v0z" />
    <glyph glyph-name="omacron" unicode="&#x14d;" horiz-adv-x="551" 
d="M267 -10q-39 0 -79 12.5t-72.5 38.5t-52.5 64.5t-20 90.5q0 39 13 80.5t42 77.5t75.5 58.5t112.5 22.5q58 0 108.5 -24.5t82.5 -70t32 -111.5q0 -26 -7.5 -58.5t-24 -64t-44.5 -58t-69 -42.5t-97 -16zM270 75q49 0 78.5 24t42.5 59t13 67q0 35 -11.5 59t-30.5 38.5
t-40 21.5t-40 7q-47 0 -77.5 -23.5t-44 -58.5t-13.5 -68q0 -45 19 -73t48 -40.5t56 -12.5zM186 550h233l-7 -58h-233z" />
    <glyph glyph-name="obreve" unicode="&#x14f;" horiz-adv-x="551" 
d="M267 -10q-39 0 -79 12.5t-72.5 38.5t-52.5 64.5t-20 90.5q0 39 13 80.5t42 77.5t75.5 58.5t112.5 22.5q58 0 108.5 -24.5t82.5 -70t32 -111.5q0 -26 -7.5 -58.5t-24 -64t-44.5 -58t-69 -42.5t-97 -16zM270 75q49 0 78.5 24t42.5 59t13 67q0 35 -11.5 59t-30.5 38.5
t-40 21.5t-40 7q-47 0 -77.5 -23.5t-44 -58.5t-13.5 -68q0 -45 19 -73t48 -40.5t56 -12.5zM291 476q-28 1 -52 12.5t-42.5 33t-29 56t-10.5 83.5h69q1 -40 10.5 -65t26.5 -36.5t36 -13.5q26 -1 44 13t30.5 40.5t20.5 61.5h69q-11 -65 -35.5 -106.5t-59 -61t-77.5 -17.5z" />
    <glyph glyph-name="ohungarumlaut" unicode="&#x151;" horiz-adv-x="551" 
d="M267 -10q-39 0 -79 12.5t-72.5 38.5t-52.5 64.5t-20 90.5q0 39 13 80.5t42 77.5t75.5 58.5t112.5 22.5q58 0 108.5 -24.5t82.5 -70t32 -111.5q0 -26 -7.5 -58.5t-24 -64t-44.5 -58t-69 -42.5t-97 -16zM270 75q49 0 78.5 24t42.5 59t13 67q0 35 -11.5 59t-30.5 38.5
t-40 21.5t-40 7q-47 0 -77.5 -23.5t-44 -58.5t-13.5 -68q0 -45 19 -73t48 -40.5t56 -12.5zM345 629q-34 -33 -68.5 -67t-67.5 -67h-65q27 33 54 67t54 67h93zM533 629q-33 -33 -67.5 -67t-68.5 -67h-65q27 33 54 67t55 67h92z" />
    <glyph glyph-name="ohorn" unicode="&#x1a1;" horiz-adv-x="581" 
d="M265 -10q-39 0 -78.5 12.5t-72.5 38.5t-53 64.5t-20 90.5q0 39 13.5 80.5t42 77.5t75 58.5t112.5 22.5q58 0 108.5 -24.5t82.5 -70t32 -111.5q0 -26 -7.5 -58.5t-24 -64t-44.5 -58t-69 -42.5t-97 -16zM268 75q49 0 78.5 24t43 59t13.5 67q0 35 -12 59t-30.5 38.5
t-40 21.5t-39.5 7q-48 0 -78.5 -23.5t-44 -58.5t-13.5 -68q0 -45 19 -73t48 -40.5t56 -12.5zM432 359q32 -2 52.5 17t32.5 63h76q-14 -60 -39 -92t-58 -42.5t-72 -7.5z" />
    <glyph glyph-name="uni01EB" unicode="&#x1eb;" horiz-adv-x="552" 
d="M377 25q-24 -15 -47.5 -25t-64.5 -10q-39 0 -78.5 12.5t-72.5 38.5t-53 64.5t-20 90.5q0 39 13.5 80.5t42 77.5t75 58.5t112.5 22.5q58 0 108.5 -24.5t82.5 -70t32 -111.5q0 -34 -11 -73t-36 -74t-67 -59q-30 -19 -58.5 -35.5t-46.5 -36t-21 -47.5q-2 -23 12 -36t31 -13
q20 -1 38.5 10.5t35.5 33.5l32 -54q-22 -29 -57 -47t-66 -16q-48 3 -80 32t-32 75q0 26 11.5 52t34.5 49t57 36zM268 75q49 0 78.5 24t43 59t13.5 67q0 35 -12 59t-30.5 38.5t-40 21.5t-39.5 7q-48 0 -78.5 -23.5t-44 -58.5t-13.5 -68q0 -45 19 -73t48 -40.5t56 -12.5z" />
    <glyph glyph-name="uni020D" unicode="&#x20d;" horiz-adv-x="551" 
d="M267 -10q-39 0 -79 12.5t-72.5 38.5t-52.5 64.5t-20 90.5q0 39 13 80.5t42 77.5t75.5 58.5t112.5 22.5q58 0 108.5 -24.5t82.5 -70t32 -111.5q0 -26 -7.5 -58.5t-24 -64t-44.5 -58t-69 -42.5t-97 -16zM270 75q49 0 78.5 24t42.5 59t13 67q0 35 -11.5 59t-30.5 38.5
t-40 21.5t-40 7q-47 0 -77.5 -23.5t-44 -58.5t-13.5 -68q0 -45 19 -73t48 -40.5t56 -12.5zM207 629l66 -134h-65l-115 134h114zM348 629l66 -134h-65l-115 134h114z" />
    <glyph glyph-name="uni020F" unicode="&#x20f;" horiz-adv-x="551" 
d="M267 -10q-39 0 -79 12.5t-72.5 38.5t-52.5 64.5t-20 90.5q0 39 13 80.5t42 77.5t75.5 58.5t112.5 22.5q58 0 108.5 -24.5t82.5 -70t32 -111.5q0 -26 -7.5 -58.5t-24 -64t-44.5 -58t-69 -42.5t-97 -16zM270 75q49 0 78.5 24t42.5 59t13 67q0 35 -11.5 59t-30.5 38.5
t-40 21.5t-40 7q-47 0 -77.5 -23.5t-44 -58.5t-13.5 -68q0 -45 19 -73t48 -40.5t56 -12.5zM315 649q27 -1 51.5 -12t43 -33t28.5 -56.5t11 -83.5h-70q1 41 -9.5 65.5t-26.5 37t-37 12.5q-25 2 -43.5 -12t-30.5 -40t-21 -63h-69q12 66 36 107.5t59 60.5t78 17z" />
    <glyph glyph-name="uni022B" unicode="&#x22b;" horiz-adv-x="551" 
d="M267 -10q-39 0 -79 12.5t-72.5 38.5t-52.5 64.5t-20 90.5q0 39 13 80.5t42 77.5t75.5 58.5t112.5 22.5q58 0 108.5 -24.5t82.5 -70t32 -111.5q0 -26 -7.5 -58.5t-24 -64t-44.5 -58t-69 -42.5t-97 -16zM270 75q49 0 78.5 24t42.5 59t13 67q0 35 -11.5 59t-30.5 38.5
t-40 21.5t-40 7q-47 0 -77.5 -23.5t-44 -58.5t-13.5 -68q0 -45 19 -73t48 -40.5t56 -12.5zM152 546q3 25 22 40.5t40 13.5q20 -1 36 -18t13 -42t-22 -40t-39 -14q-21 1 -37 18.5t-13 41.5v0zM341 546q3 25 22 40.5t40 13.5q20 -1 36 -18.5t13 -41.5q-3 -25 -22 -40t-39 -14
q-21 1 -37 18t-13 42v0zM206 719h233l-7 -58h-233z" />
    <glyph glyph-name="uni022D" unicode="&#x22d;" horiz-adv-x="551" 
d="M267 -10q-39 0 -79 12.5t-72.5 38.5t-52.5 64.5t-20 90.5q0 39 13 80.5t42 77.5t75.5 58.5t112.5 22.5q58 0 108.5 -24.5t82.5 -70t32 -111.5q0 -26 -7.5 -58.5t-24 -64t-44.5 -58t-69 -42.5t-97 -16zM270 75q49 0 78.5 24t42.5 59t13 67q0 35 -11.5 59t-30.5 38.5
t-40 21.5t-40 7q-47 0 -77.5 -23.5t-44 -58.5t-13.5 -68q0 -45 19 -73t48 -40.5t56 -12.5zM370 460q-37 2 -59.5 20.5t-40.5 37.5q-12 13 -23.5 23.5t-28.5 11.5q-14 1 -25.5 -9.5t-18.5 -28.5t-10 -43l-63 5q2 44 19.5 80t46.5 56.5t67 17.5q30 -1 50 -18.5t36 -36.5
q14 -16 27 -28t29 -13t26 10t15.5 30.5t7.5 44.5l64 -5q0 -48 -16.5 -83.5t-43.5 -54t-59 -17.5zM219 736h233l-7 -58h-233z" />
    <glyph glyph-name="uni0231" unicode="&#x231;" horiz-adv-x="551" 
d="M267 -10q-39 0 -79 12.5t-72.5 38.5t-52.5 64.5t-20 90.5q0 39 13 80.5t42 77.5t75.5 58.5t112.5 22.5q58 0 108.5 -24.5t82.5 -70t32 -111.5q0 -26 -7.5 -58.5t-24 -64t-44.5 -58t-69 -42.5t-97 -16zM270 75q49 0 78.5 24t42.5 59t13 67q0 35 -11.5 59t-30.5 38.5
t-40 21.5t-40 7q-47 0 -77.5 -23.5t-44 -58.5t-13.5 -68q0 -45 19 -73t48 -40.5t56 -12.5zM245 570q1 25 19 42t45 17q21 0 39.5 -12.5t17.5 -39.5q0 -25 -18 -42t-45 -17q-20 0 -39 12.5t-19 39.5zM212 756h233l-7 -58h-233z" />
    <glyph glyph-name="uni1ECD" unicode="&#x1ecd;" horiz-adv-x="551" 
d="M267 -10q-39 0 -79 12.5t-72.5 38.5t-52.5 64.5t-20 90.5q0 39 13 80.5t42 77.5t75.5 58.5t112.5 22.5q58 0 108.5 -24.5t82.5 -70t32 -111.5q0 -26 -7.5 -58.5t-24 -64t-44.5 -58t-69 -42.5t-97 -16zM270 75q49 0 78.5 24t42.5 59t13 67q0 35 -11.5 59t-30.5 38.5
t-40 21.5t-40 7q-47 0 -77.5 -23.5t-44 -58.5t-13.5 -68q0 -45 19 -73t48 -40.5t56 -12.5zM175 -101q1 25 19 42t45 17q21 0 39.5 -12.5t17.5 -39.5q0 -25 -18 -42t-45 -17q-20 0 -39 12.5t-19 39.5z" />
    <glyph glyph-name="uni1ECF" unicode="&#x1ecf;" horiz-adv-x="551" 
d="M267 -10q-39 0 -79 12.5t-72.5 38.5t-52.5 64.5t-20 90.5q0 39 13 80.5t42 77.5t75.5 58.5t112.5 22.5q58 0 108.5 -24.5t82.5 -70t32 -111.5q0 -26 -7.5 -58.5t-24 -64t-44.5 -58t-69 -42.5t-97 -16zM270 75q49 0 78.5 24t42.5 59t13 67q0 35 -11.5 59t-30.5 38.5
t-40 21.5t-40 7q-47 0 -77.5 -23.5t-44 -58.5t-13.5 -68q0 -45 19 -73t48 -40.5t56 -12.5zM274 503q20 14 34 26.5t17 29.5q2 17 -5 28t-27 12q-14 0 -25 -7t-20 -20l-36 25q20 30 45.5 44t53.5 14q39 -1 57 -23t17 -53q-1 -26 -22 -53.5t-70 -51.5z" />
    <glyph glyph-name="uni1ED1" unicode="&#x1ed1;" horiz-adv-x="551" 
d="M267 -10q-39 0 -79 12.5t-72.5 38.5t-52.5 64.5t-20 90.5q0 39 13 80.5t42 77.5t75.5 58.5t112.5 22.5q58 0 108.5 -24.5t82.5 -70t32 -111.5q0 -26 -7.5 -58.5t-24 -64t-44.5 -58t-69 -42.5t-97 -16zM270 75q49 0 78.5 24t42.5 59t13 67q0 35 -11.5 59t-30.5 38.5
t-40 21.5t-40 7q-47 0 -77.5 -23.5t-44 -58.5t-13.5 -68q0 -45 19 -73t48 -40.5t56 -12.5zM339 495l-74 99l27 8l-100 -107h-94l188 183v0l147 -183h-94zM570 759l-136 -134h-64l86 134h114z" />
    <glyph glyph-name="uni1ED3" unicode="&#x1ed3;" horiz-adv-x="551" 
d="M267 -10q-39 0 -79 12.5t-72.5 38.5t-52.5 64.5t-20 90.5q0 39 13 80.5t42 77.5t75.5 58.5t112.5 22.5q58 0 108.5 -24.5t82.5 -70t32 -111.5q0 -26 -7.5 -58.5t-24 -64t-44.5 -58t-69 -42.5t-97 -16zM270 75q49 0 78.5 24t42.5 59t13 67q0 35 -11.5 59t-30.5 38.5
t-40 21.5t-40 7q-47 0 -77.5 -23.5t-44 -58.5t-13.5 -68q0 -45 19 -73t48 -40.5t56 -12.5zM369 477l-74 99l27 8l-100 -107h-94l188 183v0l147 -183h-94zM143 721l66 -134h-65l-115 134h114z" />
    <glyph glyph-name="uni1ED5" unicode="&#x1ed5;" horiz-adv-x="551" 
d="M267 -10q-39 0 -79 12.5t-72.5 38.5t-52.5 64.5t-20 90.5q0 39 13 80.5t42 77.5t75.5 58.5t112.5 22.5q58 0 108.5 -24.5t82.5 -70t32 -111.5q0 -26 -7.5 -58.5t-24 -64t-44.5 -58t-69 -42.5t-97 -16zM270 75q49 0 78.5 24t42.5 59t13 67q0 35 -11.5 59t-30.5 38.5
t-40 21.5t-40 7q-47 0 -77.5 -23.5t-44 -58.5t-13.5 -68q0 -45 19 -73t48 -40.5t56 -12.5zM359 477l-74 99l27 8l-100 -107h-94l188 183v0l147 -183h-94zM423 610q20 14 34 26.5t17 29.5q2 17 -5 28t-27 12q-14 0 -25 -7t-20 -20l-36 25q20 30 45.5 44t53.5 14q39 -1 57 -23
t17 -53q-1 -26 -22 -53.5t-70 -51.5z" />
    <glyph glyph-name="uni1ED7" unicode="&#x1ed7;" horiz-adv-x="551" 
d="M267 -10q-39 0 -79 12.5t-72.5 38.5t-52.5 64.5t-20 90.5q0 39 13 80.5t42 77.5t75.5 58.5t112.5 22.5q58 0 108.5 -24.5t82.5 -70t32 -111.5q0 -26 -7.5 -58.5t-24 -64t-44.5 -58t-69 -42.5t-97 -16zM270 75q49 0 78.5 24t42.5 59t13 67q0 35 -11.5 59t-30.5 38.5
t-40 21.5t-40 7q-47 0 -77.5 -23.5t-44 -58.5t-13.5 -68q0 -45 19 -73t48 -40.5t56 -12.5zM399 688q-33 2 -52.5 17.5t-34.5 32.5q-11 12 -21.5 21.5t-24.5 9.5q-12 1 -22.5 -8t-17 -25t-8.5 -38l-54 4q2 39 17 70t40.5 48.5t57.5 15.5q26 -1 43.5 -16.5t31.5 -31.5
q13 -14 24 -25t26 -11q19 -2 29.5 19t13.5 55l55 -4q-1 -42 -15 -73t-37.5 -47t-50.5 -14zM375 475l-74 99l27 8l-100 -107h-94l188 183v0l147 -183h-94z" />
    <glyph glyph-name="uni1ED9" unicode="&#x1ed9;" horiz-adv-x="551" 
d="M267 -10q-39 0 -79 12.5t-72.5 38.5t-52.5 64.5t-20 90.5q0 39 13 80.5t42 77.5t75.5 58.5t112.5 22.5q58 0 108.5 -24.5t82.5 -70t32 -111.5q0 -26 -7.5 -58.5t-24 -64t-44.5 -58t-69 -42.5t-97 -16zM270 75q49 0 78.5 24t42.5 59t13 67q0 35 -11.5 59t-30.5 38.5
t-40 21.5t-40 7q-47 0 -77.5 -23.5t-44 -58.5t-13.5 -68q0 -45 19 -73t48 -40.5t56 -12.5zM175 -101q1 25 19 42t45 17q21 0 39.5 -12.5t17.5 -39.5q0 -25 -18 -42t-45 -17q-20 0 -39 12.5t-19 39.5zM371 495l-74 99l27 8l-100 -107h-94l188 183v0l147 -183h-94z" />
    <glyph glyph-name="uni1EDB" unicode="&#x1edb;" horiz-adv-x="581" 
d="M265 -10q-39 0 -78.5 12.5t-72.5 38.5t-53 64.5t-20 90.5q0 39 13.5 80.5t42 77.5t75 58.5t112.5 22.5q58 0 108.5 -24.5t82.5 -70t32 -111.5q0 -26 -7.5 -58.5t-24 -64t-44.5 -58t-69 -42.5t-97 -16zM268 75q49 0 78.5 24t43 59t13.5 67q0 35 -12 59t-30.5 38.5
t-40 21.5t-39.5 7q-48 0 -78.5 -23.5t-44 -58.5t-13.5 -68q0 -45 19 -73t48 -40.5t56 -12.5zM432 359q32 -2 52.5 17t32.5 63h76q-14 -60 -39 -92t-58 -42.5t-72 -7.5zM455 629l-136 -134h-64l86 134h114z" />
    <glyph glyph-name="uni1EDD" unicode="&#x1edd;" horiz-adv-x="581" 
d="M265 -10q-39 0 -78.5 12.5t-72.5 38.5t-53 64.5t-20 90.5q0 39 13.5 80.5t42 77.5t75 58.5t112.5 22.5q58 0 108.5 -24.5t82.5 -70t32 -111.5q0 -26 -7.5 -58.5t-24 -64t-44.5 -58t-69 -42.5t-97 -16zM268 75q49 0 78.5 24t43 59t13.5 67q0 35 -12 59t-30.5 38.5
t-40 21.5t-39.5 7q-48 0 -78.5 -23.5t-44 -58.5t-13.5 -68q0 -45 19 -73t48 -40.5t56 -12.5zM432 359q32 -2 52.5 17t32.5 63h76q-14 -60 -39 -92t-58 -42.5t-72 -7.5zM259 629l66 -134h-65l-115 134h114z" />
    <glyph glyph-name="uni1EDF" unicode="&#x1edf;" horiz-adv-x="581" 
d="M265 -10q-39 0 -78.5 12.5t-72.5 38.5t-53 64.5t-20 90.5q0 39 13.5 80.5t42 77.5t75 58.5t112.5 22.5q58 0 108.5 -24.5t82.5 -70t32 -111.5q0 -26 -7.5 -58.5t-24 -64t-44.5 -58t-69 -42.5t-97 -16zM268 75q49 0 78.5 24t43 59t13.5 67q0 35 -12 59t-30.5 38.5
t-40 21.5t-39.5 7q-48 0 -78.5 -23.5t-44 -58.5t-13.5 -68q0 -45 19 -73t48 -40.5t56 -12.5zM432 359q32 -2 52.5 17t32.5 63h76q-14 -60 -39 -92t-58 -42.5t-72 -7.5zM272 503q20 14 34 26.5t17 29.5q2 17 -5 28t-27 12q-14 0 -25 -7t-20 -20l-36 25q20 30 45.5 44t53.5 14
q39 -1 57 -23t17 -53q-1 -26 -22 -53.5t-70 -51.5z" />
    <glyph glyph-name="uni1EE1" unicode="&#x1ee1;" horiz-adv-x="581" 
d="M265 -10q-39 0 -78.5 12.5t-72.5 38.5t-53 64.5t-20 90.5q0 39 13.5 80.5t42 77.5t75 58.5t112.5 22.5q58 0 108.5 -24.5t82.5 -70t32 -111.5q0 -26 -7.5 -58.5t-24 -64t-44.5 -58t-69 -42.5t-97 -16zM268 75q49 0 78.5 24t43 59t13.5 67q0 35 -12 59t-30.5 38.5
t-40 21.5t-39.5 7q-48 0 -78.5 -23.5t-44 -58.5t-13.5 -68q0 -45 19 -73t48 -40.5t56 -12.5zM432 359q32 -2 52.5 17t32.5 63h76q-14 -60 -39 -92t-58 -42.5t-72 -7.5zM368 460q-37 2 -59.5 20.5t-40.5 37.5q-12 13 -23.5 23.5t-28.5 11.5q-14 1 -25.5 -9.5t-18.5 -28.5
t-10 -43l-63 5q2 44 19.5 80t46.5 56.5t67 17.5q30 -1 50 -18.5t36 -36.5q14 -16 27 -28t29 -13t26 10t15.5 30.5t7.5 44.5l64 -5q0 -48 -16.5 -83.5t-43.5 -54t-59 -17.5z" />
    <glyph glyph-name="uni1EE3" unicode="&#x1ee3;" horiz-adv-x="581" 
d="M265 -10q-39 0 -78.5 12.5t-72.5 38.5t-53 64.5t-20 90.5q0 39 13.5 80.5t42 77.5t75 58.5t112.5 22.5q58 0 108.5 -24.5t82.5 -70t32 -111.5q0 -26 -7.5 -58.5t-24 -64t-44.5 -58t-69 -42.5t-97 -16zM268 75q49 0 78.5 24t43 59t13.5 67q0 35 -12 59t-30.5 38.5
t-40 21.5t-39.5 7q-48 0 -78.5 -23.5t-44 -58.5t-13.5 -68q0 -45 19 -73t48 -40.5t56 -12.5zM432 359q32 -2 52.5 17t32.5 63h76q-14 -60 -39 -92t-58 -42.5t-72 -7.5zM173 -101q1 25 19 42t45 17q21 0 39.5 -12.5t17.5 -39.5q0 -25 -18 -42t-45 -17q-20 0 -39 12.5
t-19 39.5z" />
    <glyph glyph-name="p" unicode="p" horiz-adv-x="590" 
d="M291 -10q-46 0 -90 22t-62 57l24 26l-33 -296h-102l78 627h89l-2 -102l-23 29q42 37 91 60.5t96 23.5q53 0 97 -24t70 -66.5t26 -99.5q0 -69 -32.5 -127.5t-90.5 -94t-136 -35.5zM289 76q47 0 82 21.5t54.5 57.5t19.5 76q0 36 -17 64t-45 43.5t-62 15.5q-31 0 -57.5 -12
t-47.5 -33.5t-34 -52.5l-10 -81q3 -17 11.5 -34.5t22.5 -32t34.5 -23.5t48.5 -9z" />
    <glyph glyph-name="q" unicode="q" horiz-adv-x="594" 
d="M237 -9q-49 0 -93.5 24t-73 69t-28.5 107q0 48 18 92t50.5 78.5t76 55t93.5 20.5q65 0 102.5 -26t54.5 -60l-10 -16l18 84h96l-77 -620h-102l37 304l27 -23q-6 -8 -21 -22.5t-38.5 -30t-56 -26t-73.5 -10.5zM266 73q31 0 57.5 12t48 33.5t34.5 51.5l12 81q-3 18 -12 35.5
t-23 32t-35 23.5t-50 9q-46 0 -81.5 -21.5t-55 -57t-19.5 -76.5q0 -36 17 -64t45.5 -43.5t61.5 -15.5z" />
    <glyph glyph-name="r" unicode="r" horiz-adv-x="386" 
d="M197 419l-7 -100q21 38 53 64t67 39.5t63 13.5l-18 -102q-46 3 -84.5 -18t-62.5 -56t-29 -75l-23 -185h-102l51 419h92z" />
    <glyph glyph-name="racute" unicode="&#x155;" horiz-adv-x="386" 
d="M197 419l-7 -100q21 38 53 64t67 39.5t63 13.5l-18 -102q-46 3 -84.5 -18t-62.5 -56t-29 -75l-23 -185h-102l51 419h92zM387 627l-136 -134h-64l86 134h114z" />
    <glyph glyph-name="uni0157" unicode="&#x157;" horiz-adv-x="386" 
d="M197 419l-7 -100q21 38 53 64t67 39.5t63 13.5l-18 -102q-46 3 -84.5 -18t-62.5 -56t-29 -75l-23 -185h-102l51 419h92zM117 -213l-53 36q25 21 36 58.5t6 75.5l91 -1q4 -28 -4.5 -60.5t-27.5 -61.5t-48 -47z" />
    <glyph glyph-name="rcaron" unicode="&#x159;" horiz-adv-x="386" 
d="M197 419l-7 -100q21 38 53 64t67 39.5t63 13.5l-18 -102q-46 3 -84.5 -18t-62.5 -56t-29 -75l-23 -185h-102l51 419h92zM147 702l75 -99l-28 -7l101 106h94l-188 -183h-1l-147 183h94z" />
    <glyph glyph-name="uni0211" unicode="&#x211;" horiz-adv-x="386" 
d="M197 419l-7 -100q21 38 53 64t67 39.5t63 13.5l-18 -102q-46 3 -84.5 -18t-62.5 -56t-29 -75l-23 -185h-102l51 419h92zM107 665l66 -134h-65l-115 134h114zM248 665l66 -134h-65l-115 134h114z" />
    <glyph glyph-name="uni0213" unicode="&#x213;" horiz-adv-x="386" 
d="M197 419l-7 -100q21 38 53 64t67 39.5t63 13.5l-18 -102q-46 3 -84.5 -18t-62.5 -56t-29 -75l-23 -185h-102l51 419h92zM216 685q27 -1 51.5 -12t43 -33t28.5 -56.5t11 -83.5h-70q1 41 -9.5 65.5t-26.5 37t-37 12.5q-25 2 -43.5 -12t-30.5 -40t-21 -63h-69
q12 66 36 107.5t59 60.5t78 17z" />
    <glyph glyph-name="s" unicode="s" horiz-adv-x="416" 
d="M187 -9q-19 0 -49.5 5.5t-61.5 22t-55 48.5l50 55q22 -26 42.5 -38t39.5 -15.5t34 -3.5q35 0 49.5 17.5t14.5 33.5q0 19 -13 30.5t-33.5 20t-42.5 16.5q-46 18 -69 47t-23 68q0 20 7.5 43t25 44t47 34.5t73.5 13.5q21 0 47.5 -4t54.5 -15.5t52 -34.5l-48 -61
q-19 24 -43.5 34t-49.5 10q-21 0 -34.5 -7.5t-20 -19t-6.5 -22.5q1 -18 14 -29.5t33.5 -19.5t40.5 -17q29 -12 50.5 -28t33 -38.5t8.5 -56.5q-1 -23 -12 -46.5t-31 -43t-51 -31.5t-74 -12z" />
    <glyph glyph-name="sacute" unicode="&#x15b;" horiz-adv-x="416" 
d="M187 -9q-19 0 -49.5 5.5t-61.5 22t-55 48.5l50 55q22 -26 42.5 -38t39.5 -15.5t34 -3.5q35 0 49.5 17.5t14.5 33.5q0 19 -13 30.5t-33.5 20t-42.5 16.5q-46 18 -69 47t-23 68q0 20 7.5 43t25 44t47 34.5t73.5 13.5q21 0 47.5 -4t54.5 -15.5t52 -34.5l-48 -61
q-19 24 -43.5 34t-49.5 10q-21 0 -34.5 -7.5t-20 -19t-6.5 -22.5q1 -18 14 -29.5t33.5 -19.5t40.5 -17q29 -12 50.5 -28t33 -38.5t8.5 -56.5q-1 -23 -12 -46.5t-31 -43t-51 -31.5t-74 -12zM417 627l-136 -134h-64l86 134h114z" />
    <glyph glyph-name="scircumflex" unicode="&#x15d;" horiz-adv-x="416" 
d="M187 -9q-19 0 -49.5 5.5t-61.5 22t-55 48.5l50 55q22 -26 42.5 -38t39.5 -15.5t34 -3.5q35 0 49.5 17.5t14.5 33.5q0 19 -13 30.5t-33.5 20t-42.5 16.5q-46 18 -69 47t-23 68q0 20 7.5 43t25 44t47 34.5t73.5 13.5q21 0 47.5 -4t54.5 -15.5t52 -34.5l-48 -61
q-19 24 -43.5 34t-49.5 10q-21 0 -34.5 -7.5t-20 -19t-6.5 -22.5q1 -18 14 -29.5t33.5 -19.5t40.5 -17q29 -12 50.5 -28t33 -38.5t8.5 -56.5q-1 -23 -12 -46.5t-31 -43t-51 -31.5t-74 -12zM331 531l-74 99l27 8l-100 -107h-94l188 183v0l147 -183h-94z" />
    <glyph glyph-name="scedilla" unicode="&#x15f;" horiz-adv-x="416" 
d="M187 -9q-19 0 -49.5 5.5t-61.5 22t-55 48.5l50 55q22 -26 42.5 -38t39.5 -15.5t34 -3.5q35 0 49.5 17.5t14.5 33.5q0 19 -13 30.5t-33.5 20t-42.5 16.5q-46 18 -69 47t-23 68q0 20 7.5 43t25 44t47 34.5t73.5 13.5q21 0 47.5 -4t54.5 -15.5t52 -34.5l-48 -61
q-19 24 -43.5 34t-49.5 10q-21 0 -34.5 -7.5t-20 -19t-6.5 -22.5q1 -18 14 -29.5t33.5 -19.5t40.5 -17q29 -12 50.5 -28t33 -38.5t8.5 -56.5q-1 -23 -12 -46.5t-31 -43t-51 -31.5t-74 -12zM63 -144q9 -13 25 -21t37 -10q24 -1 46 9t24 31q3 16 -9 30t-48 16q-16 1 -33.5 -2
t-31.5 -6l-11 51l70 49l78 -2l-77 -78l-19 27q12 3 26.5 5t28.5 1q54 -2 86 -26t26 -69q-3 -34 -26 -55t-56.5 -30t-69.5 -7q-39 3 -64 16t-39 30z" />
    <glyph glyph-name="scaron" unicode="&#x161;" horiz-adv-x="416" 
d="M187 -9q-19 0 -49.5 5.5t-61.5 22t-55 48.5l50 55q22 -26 42.5 -38t39.5 -15.5t34 -3.5q35 0 49.5 17.5t14.5 33.5q0 19 -13 30.5t-33.5 20t-42.5 16.5q-46 18 -69 47t-23 68q0 20 7.5 43t25 44t47 34.5t73.5 13.5q21 0 47.5 -4t54.5 -15.5t52 -34.5l-48 -61
q-19 24 -43.5 34t-49.5 10q-21 0 -34.5 -7.5t-20 -19t-6.5 -22.5q1 -18 14 -29.5t33.5 -19.5t40.5 -17q29 -12 50.5 -28t33 -38.5t8.5 -56.5q-1 -23 -12 -46.5t-31 -43t-51 -31.5t-74 -12zM207 702l75 -99l-28 -7l101 106h94l-188 -183h-1l-147 183h94z" />
    <glyph glyph-name="uni0219" unicode="&#x219;" horiz-adv-x="416" 
d="M187 -9q-19 0 -49.5 5.5t-61.5 22t-55 48.5l50 55q22 -26 42.5 -38t39.5 -15.5t34 -3.5q35 0 49.5 17.5t14.5 33.5q0 19 -13 30.5t-33.5 20t-42.5 16.5q-46 18 -69 47t-23 68q0 20 7.5 43t25 44t47 34.5t73.5 13.5q21 0 47.5 -4t54.5 -15.5t52 -34.5l-48 -61
q-19 24 -43.5 34t-49.5 10q-21 0 -34.5 -7.5t-20 -19t-6.5 -22.5q1 -18 14 -29.5t33.5 -19.5t40.5 -17q29 -12 50.5 -28t33 -38.5t8.5 -56.5q-1 -23 -12 -46.5t-31 -43t-51 -31.5t-74 -12zM127 -213l-53 36q25 21 36 58.5t6 75.5l91 -1q4 -28 -4.5 -60.5t-27.5 -61.5
t-48 -47z" />
    <glyph glyph-name="t" unicode="t" horiz-adv-x="366" 
d="M164 603h103l-22 -185h112l-10 -81h-112l-41 -337h-103l41 337h-74l10 81h74z" />
    <glyph glyph-name="uni0163" unicode="&#x163;" horiz-adv-x="366" 
d="M164 603h103l-22 -185h112l-10 -81h-112l-41 -337h-103l41 337h-74l10 81h74zM55 -144q9 -13 25 -21t37 -10q24 -1 46 9t24 31q3 16 -9 30t-48 16q-16 1 -33.5 -2t-31.5 -6l-11 51l70 49l78 -2l-77 -78l-19 27q12 3 26.5 5t28.5 1q54 -2 86 -26t26 -69q-3 -34 -26 -55
t-56.5 -30t-69.5 -7q-39 3 -64 16t-39 30z" />
    <glyph glyph-name="tcaron" unicode="&#x165;" horiz-adv-x="366" 
d="M164 603h103l-22 -185h112l-10 -81h-112l-41 -337h-103l41 337h-74l10 81h74zM187 830l75 -99l-28 -7l101 106h94l-188 -183h-1l-147 183h94z" />
    <glyph glyph-name="uni021B" unicode="&#x21b;" horiz-adv-x="366" 
d="M164 603h103l-22 -185h112l-10 -81h-112l-41 -337h-103l41 337h-74l10 81h74zM119 -213l-53 36q25 21 36 58.5t6 75.5l91 -1q4 -28 -4.5 -60.5t-27.5 -61.5t-48 -47z" />
    <glyph glyph-name="u" unicode="u" horiz-adv-x="554" 
d="M185 -17q-57 0 -90.5 34.5t-27.5 89.5l38 312h102l-34 -276q-2 -31 13 -51t50 -21q35 0 64.5 20.5t49.5 56t25 81.5l23 190h103l-52 -419h-93l4 96l4 -14q-17 -28 -44 -50.5t-61.5 -35.5t-73.5 -13z" />
    <glyph glyph-name="ugrave" unicode="&#xf9;" horiz-adv-x="554" 
d="M185 -17q-57 0 -90.5 34.5t-27.5 89.5l38 312h102l-34 -276q-2 -31 13 -51t50 -21q35 0 64.5 20.5t49.5 56t25 81.5l23 190h103l-52 -419h-93l4 96l4 -14q-17 -28 -44 -50.5t-61.5 -35.5t-73.5 -13zM282 665l66 -134h-65l-115 134h114z" />
    <glyph glyph-name="uacute" unicode="&#xfa;" horiz-adv-x="554" 
d="M185 -17q-57 0 -90.5 34.5t-27.5 89.5l38 312h102l-34 -276q-2 -31 13 -51t50 -21q35 0 64.5 20.5t49.5 56t25 81.5l23 190h103l-52 -419h-93l4 96l4 -14q-17 -28 -44 -50.5t-61.5 -35.5t-73.5 -13zM478 627l-136 -134h-64l86 134h114z" />
    <glyph glyph-name="ucircumflex" unicode="&#xfb;" horiz-adv-x="554" 
d="M185 -17q-57 0 -90.5 34.5t-27.5 89.5l38 312h102l-34 -276q-2 -31 13 -51t50 -21q35 0 64.5 20.5t49.5 56t25 81.5l23 190h103l-52 -419h-93l4 96l4 -14q-17 -28 -44 -50.5t-61.5 -35.5t-73.5 -13zM392 531l-74 99l27 8l-100 -107h-94l188 183v0l147 -183h-94z" />
    <glyph glyph-name="udieresis" unicode="&#xfc;" horiz-adv-x="554" 
d="M185 -17q-57 0 -90.5 34.5t-27.5 89.5l38 312h102l-34 -276q-2 -31 13 -51t50 -21q35 0 64.5 20.5t49.5 56t25 81.5l23 190h103l-52 -419h-93l4 96l4 -14q-17 -28 -44 -50.5t-61.5 -35.5t-73.5 -13zM174 582q3 25 22 40.5t40 13.5q20 -1 36 -18t13 -42t-22 -40t-39 -14
q-21 1 -37 18.5t-13 41.5v0zM363 582q3 25 22 40.5t40 13.5q20 -1 36 -18.5t13 -41.5q-3 -25 -22 -40t-39 -14q-21 1 -37 18t-13 42v0z" />
    <glyph glyph-name="utilde" unicode="&#x169;" horiz-adv-x="554" 
d="M185 -17q-57 0 -90.5 34.5t-27.5 89.5l38 312h102l-34 -276q-2 -31 13 -51t50 -21q35 0 64.5 20.5t49.5 56t25 81.5l23 190h103l-52 -419h-93l4 96l4 -14q-17 -28 -44 -50.5t-61.5 -35.5t-73.5 -13zM392 496q-37 2 -59.5 20.5t-40.5 37.5q-12 13 -23.5 23.5t-28.5 11.5
q-14 1 -25.5 -9.5t-18.5 -28.5t-10 -43l-63 5q2 44 19.5 80t46.5 56.5t67 17.5q30 -1 50 -18.5t36 -36.5q14 -16 27 -28t29 -13t26 10t15.5 30.5t7.5 44.5l64 -5q0 -48 -16.5 -83.5t-43.5 -54t-59 -17.5z" />
    <glyph glyph-name="umacron" unicode="&#x16b;" horiz-adv-x="554" 
d="M185 -17q-57 0 -90.5 34.5t-27.5 89.5l38 312h102l-34 -276q-2 -31 13 -51t50 -21q35 0 64.5 20.5t49.5 56t25 81.5l23 190h103l-52 -419h-93l4 96l4 -14q-17 -28 -44 -50.5t-61.5 -35.5t-73.5 -13zM207 586h233l-7 -58h-233z" />
    <glyph glyph-name="ubreve" unicode="&#x16d;" horiz-adv-x="554" 
d="M185 -17q-57 0 -90.5 34.5t-27.5 89.5l38 312h102l-34 -276q-2 -31 13 -51t50 -21q35 0 64.5 20.5t49.5 56t25 81.5l23 190h103l-52 -419h-93l4 96l4 -14q-17 -28 -44 -50.5t-61.5 -35.5t-73.5 -13zM312 512q-28 1 -52 12.5t-42.5 33t-29 56t-10.5 83.5h69
q1 -40 10.5 -65t26.5 -36.5t36 -13.5q26 -1 44 13t30.5 40.5t20.5 61.5h69q-11 -65 -35.5 -106.5t-59 -61t-77.5 -17.5z" />
    <glyph glyph-name="uring" unicode="&#x16f;" horiz-adv-x="554" 
d="M260 536q0 25 13.5 46t36 34.5t46.5 13.5q32 0 53.5 -22.5t21.5 -54.5q0 -25 -13.5 -46.5t-35.5 -34.5t-47 -13q-32 0 -53.5 22.5t-21.5 54.5v0zM310 540q0 -13 9 -22t23 -9q16 0 27.5 11.5t11.5 26.5q0 14 -8.5 23t-22.5 9q-15 0 -27.5 -11.5t-12.5 -27.5v0zM185 -17
q-57 0 -90.5 34.5t-27.5 89.5l38 312h102l-34 -276q-2 -31 13 -51t50 -21q35 0 64.5 20.5t49.5 56t25 81.5l23 190h103l-52 -419h-93l4 96l4 -14q-17 -28 -44 -50.5t-61.5 -35.5t-73.5 -13z" />
    <glyph glyph-name="uhungarumlaut" unicode="&#x171;" horiz-adv-x="554" 
d="M185 -17q-57 0 -90.5 34.5t-27.5 89.5l38 312h102l-34 -276q-2 -31 13 -51t50 -21q35 0 64.5 20.5t49.5 56t25 81.5l23 190h103l-52 -419h-93l4 96l4 -14q-17 -28 -44 -50.5t-61.5 -35.5t-73.5 -13zM367 665q-34 -33 -68.5 -67t-67.5 -67h-65q27 33 54 67t54 67h93z
M555 665q-33 -33 -67.5 -67t-68.5 -67h-65q27 33 54 67t55 67h92z" />
    <glyph glyph-name="uogonek" unicode="&#x173;" horiz-adv-x="554" 
d="M384 -216q-47 3 -79.5 32t-32.5 76q0 34 23 69t76 57l73 -17l-90 -1l3 82q-17 -28 -43 -50.5t-59.5 -35.5t-72.5 -13q-57 0 -90.5 34.5t-27.5 89.5l38 312h103l-34 -276q-3 -31 12 -51t51 -21q34 0 63.5 20.5t49.5 56t25 81.5l23 190h103l-51 -419q-39 -20 -63.5 -43
t-25.5 -50q-2 -27 12 -38.5t32 -11.5q20 -1 38 10.5t35 33.5l32 -54q-22 -29 -56.5 -46.5t-66.5 -16.5z" />
    <glyph glyph-name="uhorn" unicode="&#x1b0;" horiz-adv-x="578" 
d="M185 -17q-57 0 -90.5 34.5t-27.5 89.5l38 312h102l-34 -276q-2 -31 13 -51t50 -21q35 0 64.5 20.5t49.5 56t25 81.5l23 190h103l-52 -419h-93l4 96l4 -14q-17 -28 -44 -50.5t-61.5 -35.5t-73.5 -13zM469 334q40 -3 64.5 17t36.5 68h77q-15 -63 -42.5 -95.5t-63.5 -43.5
t-80 -8z" />
    <glyph glyph-name="uni0215" unicode="&#x215;" horiz-adv-x="554" 
d="M185 -17q-57 0 -90.5 34.5t-27.5 89.5l38 312h102l-34 -276q-2 -31 13 -51t50 -21q35 0 64.5 20.5t49.5 56t25 81.5l23 190h103l-52 -419h-93l4 96l4 -14q-17 -28 -44 -50.5t-61.5 -35.5t-73.5 -13zM228 665l66 -134h-65l-115 134h114zM369 665l66 -134h-65l-115 134h114
z" />
    <glyph glyph-name="uni0217" unicode="&#x217;" horiz-adv-x="554" 
d="M185 -17q-57 0 -90.5 34.5t-27.5 89.5l38 312h102l-34 -276q-2 -31 13 -51t50 -21q35 0 64.5 20.5t49.5 56t25 81.5l23 190h103l-52 -419h-93l4 96l4 -14q-17 -28 -44 -50.5t-61.5 -35.5t-73.5 -13zM337 685q27 -1 51.5 -12t43 -33t28.5 -56.5t11 -83.5h-70
q1 41 -9.5 65.5t-26.5 37t-37 12.5q-25 2 -43.5 -12t-30.5 -40t-21 -63h-69q12 66 36 107.5t59 60.5t78 17z" />
    <glyph glyph-name="uni1EE5" unicode="&#x1ee5;" horiz-adv-x="554" 
d="M185 -17q-57 0 -90.5 34.5t-27.5 89.5l38 312h102l-34 -276q-2 -31 13 -51t50 -21q35 0 64.5 20.5t49.5 56t25 81.5l23 190h103l-52 -419h-93l4 96l4 -14q-17 -28 -44 -50.5t-61.5 -35.5t-73.5 -13zM186 -115q1 25 19 42t45 17q21 0 39.5 -12.5t17.5 -39.5q0 -25 -18 -42
t-45 -17q-20 0 -39 12.5t-19 39.5z" />
    <glyph glyph-name="uni1EE7" unicode="&#x1ee7;" horiz-adv-x="554" 
d="M185 -17q-57 0 -90.5 34.5t-27.5 89.5l38 312h102l-34 -276q-2 -31 13 -51t50 -21q35 0 64.5 20.5t49.5 56t25 81.5l23 190h103l-52 -419h-93l4 96l4 -14q-17 -28 -44 -50.5t-61.5 -35.5t-73.5 -13zM295 539q20 14 34 26.5t17 29.5q2 17 -5 28t-27 12q-14 0 -25 -7
t-20 -20l-36 25q20 30 45.5 44t53.5 14q39 -1 57 -23t17 -53q-1 -26 -22 -53.5t-70 -51.5z" />
    <glyph glyph-name="uni1EE9" unicode="&#x1ee9;" horiz-adv-x="578" 
d="M185 -17q-57 0 -90.5 34.5t-27.5 89.5l38 312h102l-34 -276q-2 -31 13 -51t50 -21q35 0 64.5 20.5t49.5 56t25 81.5l23 190h103l-52 -419h-93l4 96l4 -14q-17 -28 -44 -50.5t-61.5 -35.5t-73.5 -13zM469 334q40 -3 64.5 17t36.5 68h77q-15 -63 -42.5 -95.5t-63.5 -43.5
t-80 -8zM478 627l-136 -134h-64l86 134h114z" />
    <glyph glyph-name="uni1EEB" unicode="&#x1eeb;" horiz-adv-x="578" 
d="M185 -17q-57 0 -90.5 34.5t-27.5 89.5l38 312h102l-34 -276q-2 -31 13 -51t50 -21q35 0 64.5 20.5t49.5 56t25 81.5l23 190h103l-52 -419h-93l4 96l4 -14q-17 -28 -44 -50.5t-61.5 -35.5t-73.5 -13zM469 334q40 -3 64.5 17t36.5 68h77q-15 -63 -42.5 -95.5t-63.5 -43.5
t-80 -8zM282 665l66 -134h-65l-115 134h114z" />
    <glyph glyph-name="uni1EED" unicode="&#x1eed;" horiz-adv-x="578" 
d="M185 -17q-57 0 -90.5 34.5t-27.5 89.5l38 312h102l-34 -276q-2 -31 13 -51t50 -21q35 0 64.5 20.5t49.5 56t25 81.5l23 190h103l-52 -419h-93l4 96l4 -14q-17 -28 -44 -50.5t-61.5 -35.5t-73.5 -13zM469 334q40 -3 64.5 17t36.5 68h77q-15 -63 -42.5 -95.5t-63.5 -43.5
t-80 -8zM295 539q20 14 34 26.5t17 29.5q2 17 -5 28t-27 12q-14 0 -25 -7t-20 -20l-36 25q20 30 45.5 44t53.5 14q39 -1 57 -23t17 -53q-1 -26 -22 -53.5t-70 -51.5z" />
    <glyph glyph-name="uni1EEF" unicode="&#x1eef;" horiz-adv-x="578" 
d="M185 -17q-57 0 -90.5 34.5t-27.5 89.5l38 312h102l-34 -276q-2 -31 13 -51t50 -21q35 0 64.5 20.5t49.5 56t25 81.5l23 190h103l-52 -419h-93l4 96l4 -14q-17 -28 -44 -50.5t-61.5 -35.5t-73.5 -13zM469 334q40 -3 64.5 17t36.5 68h77q-15 -63 -42.5 -95.5t-63.5 -43.5
t-80 -8zM392 496q-37 2 -59.5 20.5t-40.5 37.5q-12 13 -23.5 23.5t-28.5 11.5q-14 1 -25.5 -9.5t-18.5 -28.5t-10 -43l-63 5q2 44 19.5 80t46.5 56.5t67 17.5q30 -1 50 -18.5t36 -36.5q14 -16 27 -28t29 -13t26 10t15.5 30.5t7.5 44.5l64 -5q0 -48 -16.5 -83.5t-43.5 -54
t-59 -17.5z" />
    <glyph glyph-name="uni1EF1" unicode="&#x1ef1;" horiz-adv-x="578" 
d="M185 -17q-57 0 -90.5 34.5t-27.5 89.5l38 312h102l-34 -276q-2 -31 13 -51t50 -21q35 0 64.5 20.5t49.5 56t25 81.5l23 190h103l-52 -419h-93l4 96l4 -14q-17 -28 -44 -50.5t-61.5 -35.5t-73.5 -13zM469 334q40 -3 64.5 17t36.5 68h77q-15 -63 -42.5 -95.5t-63.5 -43.5
t-80 -8zM186 -115q1 25 19 42t45 17q21 0 39.5 -12.5t17.5 -39.5q0 -25 -18 -42t-45 -17q-20 0 -39 12.5t-19 39.5z" />
    <glyph glyph-name="v" unicode="v" horiz-adv-x="502" 
d="M225 -11l-185 430h122l114 -321l-62 2l179 319h115l-279 -430h-4z" />
    <glyph glyph-name="w" unicode="w" horiz-adv-x="677" 
d="M435 -14l-98 280l-154 -279h-6l-137 432h101l89 -275l-36 6l117 203l-23 66h89l84 -262l-20 -1l140 263h101l-241 -433h-6z" />
    <glyph glyph-name="wcircumflex" unicode="&#x175;" horiz-adv-x="677" 
d="M435 -14l-98 280l-154 -279h-6l-137 432h101l89 -275l-36 6l117 203l-23 66h89l84 -262l-20 -1l140 263h101l-241 -433h-6zM445 486l-74 99l27 8l-100 -107h-94l188 183v0l147 -183h-94z" />
    <glyph glyph-name="wgrave" unicode="&#x1e81;" horiz-adv-x="677" 
d="M435 -14l-98 280l-154 -279h-6l-137 432h101l89 -275l-36 6l117 203l-23 66h89l84 -262l-20 -1l140 263h101l-241 -433h-6zM335 620l66 -134h-65l-115 134h114z" />
    <glyph glyph-name="wacute" unicode="&#x1e83;" horiz-adv-x="677" 
d="M435 -14l-98 280l-154 -279h-6l-137 432h101l89 -275l-36 6l117 203l-23 66h89l84 -262l-20 -1l140 263h101l-241 -433h-6zM537 620l-136 -134h-64l86 134h114z" />
    <glyph glyph-name="wdieresis" unicode="&#x1e85;" horiz-adv-x="677" 
d="M435 -14l-98 280l-154 -279h-6l-137 432h101l89 -275l-36 6l117 203l-23 66h89l84 -262l-20 -1l140 263h101l-241 -433h-6zM227 537q3 25 22 40.5t40 13.5q20 -1 36 -18t13 -42t-22 -40t-39 -14q-21 1 -37 18.5t-13 41.5v0zM416 537q3 25 22 40.5t40 13.5q20 -1 36 -18.5
t13 -41.5q-3 -25 -22 -40t-39 -14q-21 1 -37 18t-13 42v0z" />
    <glyph glyph-name="x" unicode="x" horiz-adv-x="469" 
d="M440 0h-124l-267 419h126zM255 268l114 151h105l-190 -225zM231 151l-125 -151h-104l189 221z" />
    <glyph glyph-name="y" unicode="y" horiz-adv-x="504" 
d="M75 -201l353 620h95l-346 -620h-102zM206 -3l-150 422h115l121 -370z" />
    <glyph glyph-name="yacute" unicode="&#xfd;" horiz-adv-x="538" 
d="M75 -201l353 620h95l-346 -620h-102zM206 -3l-150 422h115l121 -370zM460 620l-136 -134h-64l86 134h114z" />
    <glyph glyph-name="ydieresis" unicode="&#xff;" horiz-adv-x="478" 
d="M75 -201l353 620h95l-346 -620h-102zM206 -3l-150 422h115l121 -370zM149 537q3 25 22 40.5t40 13.5q20 -1 36 -18t13 -42t-22 -40t-39 -14q-21 1 -37 18.5t-13 41.5v0zM338 537q3 25 22 40.5t40 13.5q20 -1 36 -18.5t13 -41.5q-3 -25 -22 -40t-39 -14q-21 1 -37 18
t-13 42v0z" />
    <glyph glyph-name="ycircumflex" unicode="&#x177;" horiz-adv-x="600" 
d="M75 -201l353 620h95l-346 -620h-102zM206 -3l-150 422h115l121 -370zM350 486l-74 99l27 8l-100 -107h-94l188 183v0l147 -183h-94z" />
    <glyph glyph-name="uni0233" unicode="&#x233;" horiz-adv-x="504" 
d="M75 -201l353 620h95l-346 -620h-102zM206 -3l-150 422h115l121 -370zM193 541h233l-7 -58h-233z" />
    <glyph glyph-name="ygrave" unicode="&#x1ef3;" horiz-adv-x="504" 
d="M75 -201l353 620h95l-346 -620h-102zM206 -3l-150 422h115l121 -370zM268 620l66 -134h-65l-115 134h114z" />
    <glyph glyph-name="uni1EF5" unicode="&#x1ef5;" horiz-adv-x="504" 
d="M75 -201l353 620h95l-346 -620h-102zM206 -3l-150 422h115l121 -370zM317 -104q1 25 19 42t45 17q21 0 39.5 -12.5t17.5 -39.5q0 -25 -18 -42t-45 -17q-20 0 -39 12.5t-19 39.5z" />
    <glyph glyph-name="uni1EF7" unicode="&#x1ef7;" horiz-adv-x="504" 
d="M75 -201l353 620h95l-346 -620h-102zM206 -3l-150 422h115l121 -370zM281 494q20 14 34 26.5t17 29.5q2 17 -5 28t-27 12q-14 0 -25 -7t-20 -20l-36 25q20 30 45.5 44t53.5 14q39 -1 57 -23t17 -53q-1 -26 -22 -53.5t-70 -51.5z" />
    <glyph glyph-name="uni1EF9" unicode="&#x1ef9;" horiz-adv-x="600" 
d="M75 -201l353 620h95l-346 -620h-102zM206 -3l-150 422h115l121 -370zM358 451q-37 2 -59.5 20t-40.5 37q-12 14 -23.5 24.5t-28.5 11.5q-14 1 -26 -9.5t-18.5 -29t-9.5 -43.5l-64 6q3 44 20.5 80t46.5 56.5t67 17.5q29 -1 49 -18.5t37 -36.5q14 -16 27 -28t29 -13
q15 -1 25.5 9.5t16 30.5t7.5 44l64 -4q0 -48 -16.5 -84t-44 -54t-58.5 -17z" />
    <glyph glyph-name="z" unicode="z" horiz-adv-x="475" 
d="M140 334q-34 0 -54.5 21t-16.5 60l5 44h78l-1 -14q-2 -17 5 -21.5t25 -4.5h267l-290 -356l-18 21h264l-10 -84h-395l297 364l12 -30h-168z" />
    <glyph glyph-name="zacute" unicode="&#x17a;" horiz-adv-x="490" 
d="M140 334q-34 0 -54.5 21t-16.5 60l5 44h78l-1 -14q-2 -17 5 -21.5t25 -4.5h267l-290 -356l-18 21h264l-10 -84h-395l297 364l12 -30h-168zM424 620l-136 -134h-64l86 134h114z" />
    <glyph glyph-name="zdotaccent" unicode="&#x17c;" horiz-adv-x="490" 
d="M140 334q-34 0 -54.5 21t-16.5 60l5 44h78l-1 -14q-2 -17 5 -21.5t25 -4.5h267l-290 -356l-18 21h264l-10 -84h-395l297 364l12 -30h-168zM239 576q1 25 19 42t45 17q21 0 39.5 -12.5t17.5 -39.5q0 -25 -18 -42t-45 -17q-20 0 -39 12.5t-19 39.5z" />
    <glyph glyph-name="zcaron" unicode="&#x17e;" horiz-adv-x="490" 
d="M140 334q-34 0 -54.5 21t-16.5 60l5 44h78l-1 -14q-2 -17 5 -21.5t25 -4.5h267l-290 -356l-18 21h264l-10 -84h-395l297 364l12 -30h-168zM249 669l75 -99l-28 -7l101 106h94l-188 -183h-1l-147 183h94z" />
    <glyph glyph-name="germandbls" unicode="&#xdf;" horiz-adv-x="611" 
d="M346 -6q-34 0 -68 11.5t-53 31.5l44 64q17 -15 38.5 -22t35.5 -7q28 0 48.5 14.5t34 36.5t21 46.5t9.5 45.5q3 39 -9 67.5t-35 45.5t-57 18l-5 1l10 89q24 -1 40 6t26 19t14.5 25.5t4.5 25.5q0 31 -18 50.5t-58 20.5q-38 1 -64.5 -18.5t-42 -56t-23.5 -86.5l-72 -422
h-104l58 340h-65l16 84h65l8 49q10 65 42 108.5t83 65t114 20.5q53 -1 90 -19.5t56.5 -51t19.5 -75.5q0 -24 -8 -48.5t-27 -45.5t-52 -34q31 -14 53.5 -39t33.5 -60.5t9 -84.5q-2 -37 -15 -76t-38.5 -71t-64.5 -50.5t-95 -17.5z" />
    <glyph glyph-name="ae" unicode="&#xe6;" horiz-adv-x="812" 
d="M542 -10q-25 0 -56.5 7.5t-61.5 23.5t-53.5 43t-35 67t-5.5 95q8 62 44 109.5t91 74.5t119 26q31 -1 63.5 -10.5t61 -32t48 -61t25.5 -96.5l-383 -74l-5 58l301 62l-22 -12q-7 28 -22.5 46.5t-36.5 28t-46 10.5q-34 1 -63 -15t-48 -45.5t-25 -69.5q-5 -40 5.5 -67.5
t30 -45t42.5 -25.5t43 -10q25 0 49.5 7.5t46.5 21.5l38 -79q-33 -18 -71.5 -28t-73.5 -9zM197 -11q-40 0 -78 14t-62.5 42t-24.5 69q0 32 18 63.5t58 52.5t106 20q27 -1 49 -5t41 -11.5t36 -19t33 -27.5l-24 -60q-18 18 -38 29t-40.5 16.5t-40.5 5.5q-48 1 -66 -19.5
t-18 -43.5q1 -20 13 -32.5t31 -17.5t41 -5q27 2 54.5 13.5t44.5 29.5l10 78l42 -23l-13 -102q-21 -24 -49 -38.5t-59 -21.5t-64 -7zM321 216l5 42q4 30 -3.5 48.5t-22 28t-31 13t-31.5 3.5q-36 1 -68 -15.5t-56 -41.5l-44 68q36 32 83.5 53t109.5 20q20 -1 43.5 -5.5
t47 -14.5t42 -27.5t28.5 -44t5 -63.5l-3 -20z" />
    <glyph glyph-name="aeacute" unicode="&#x1fd;" horiz-adv-x="812" 
d="M542 -10q-25 0 -56.5 7.5t-61.5 23.5t-53.5 43t-35 67t-5.5 95q8 62 44 109.5t91 74.5t119 26q31 -1 63.5 -10.5t61 -32t48 -61t25.5 -96.5l-383 -74l-5 58l301 62l-22 -12q-7 28 -22.5 46.5t-36.5 28t-46 10.5q-34 1 -63 -15t-48 -45.5t-25 -69.5q-5 -40 5.5 -67.5
t30 -45t42.5 -25.5t43 -10q25 0 49.5 7.5t46.5 21.5l38 -79q-33 -18 -71.5 -28t-73.5 -9zM197 -11q-40 0 -78 14t-62.5 42t-24.5 69q0 32 18 63.5t58 52.5t106 20q27 -1 49 -5t41 -11.5t36 -19t33 -27.5l-24 -60q-18 18 -38 29t-40.5 16.5t-40.5 5.5q-48 1 -66 -19.5
t-18 -43.5q1 -20 13 -32.5t31 -17.5t41 -5q27 2 54.5 13.5t44.5 29.5l10 78l42 -23l-13 -102q-21 -24 -49 -38.5t-59 -21.5t-64 -7zM321 216l5 42q4 30 -3.5 48.5t-22 28t-31 13t-31.5 3.5q-36 1 -68 -15.5t-56 -41.5l-44 68q36 32 83.5 53t109.5 20q20 -1 43.5 -5.5
t47 -14.5t42 -27.5t28.5 -44t5 -63.5l-3 -20zM601 620l-136 -134h-64l86 134h114z" />
    <glyph glyph-name="eth" unicode="&#xf0;" horiz-adv-x="551" 
d="M255 -9q-22 0 -50.5 6t-57.5 21t-52.5 41.5t-37.5 67t-12 97.5q2 39 16.5 77t42.5 69t68 49.5t93 17.5q31 0 62.5 -12t57.5 -37t41 -62.5t14 -88.5l-35 9q7 75 -4 139.5t-37.5 120.5t-66 106t-90.5 97l83 63q57 -48 99 -105.5t70.5 -120t42.5 -126.5t13 -124
q0 -55 -15.5 -109.5t-47 -99t-80.5 -70.5t-117 -26zM265 75q32 0 57 12.5t42 32.5t26 44.5t11 47.5q4 43 -9 70t-34 42t-42.5 21t-34.5 6q-36 1 -61.5 -13.5t-42 -36.5t-24.5 -47.5t-9 -48.5q0 -49 20 -77t48.5 -40.5t52.5 -12.5zM492 662l-261 -137l-26 70l263 137z" />
    <glyph glyph-name="oslash" unicode="&#xf8;" horiz-adv-x="523" 
d="M516 408q-12 -13 -39 -39.5t-62.5 -62t-75 -75.5t-79.5 -80t-75 -75.5t-62 -62t-39 -39.5l-38 39q12 13 38.5 39.5l61.5 61.5t74.5 75t79 79.5l75 75l62 62t38.5 39.5zM267 -10q-39 0 -79 12.5t-72.5 38.5t-52.5 64.5t-20 90.5q0 39 13 80.5t42 77.5t75.5 58.5
t112.5 22.5q58 0 108.5 -24.5t82.5 -70t32 -111.5q0 -26 -7.5 -58.5t-24 -64t-44.5 -58t-69 -42.5t-97 -16zM270 75q49 0 78.5 24t42.5 59t13 67q0 35 -11.5 59t-30.5 38.5t-40 21.5t-40 7q-47 0 -77.5 -23.5t-44 -58.5t-13.5 -68q0 -45 19 -73t48 -40.5t56 -12.5z" />
    <glyph glyph-name="oslashacute" unicode="&#x1ff;" horiz-adv-x="523" 
d="M516 408q-12 -13 -39 -39.5t-62.5 -62t-75 -75.5t-79.5 -80t-75 -75.5t-62 -62t-39 -39.5l-38 39q12 13 38.5 39.5l61.5 61.5t74.5 75t79 79.5l75 75l62 62t38.5 39.5zM267 -10q-39 0 -79 12.5t-72.5 38.5t-52.5 64.5t-20 90.5q0 39 13 80.5t42 77.5t75.5 58.5
t112.5 22.5q58 0 108.5 -24.5t82.5 -70t32 -111.5q0 -26 -7.5 -58.5t-24 -64t-44.5 -58t-69 -42.5t-97 -16zM270 75q49 0 78.5 24t42.5 59t13 67q0 35 -11.5 59t-30.5 38.5t-40 21.5t-40 7q-47 0 -77.5 -23.5t-44 -58.5t-13.5 -68q0 -45 19 -73t48 -40.5t56 -12.5zM457 629
l-136 -134h-64l86 134h114z" />
    <glyph glyph-name="thorn" unicode="&#xfe;" horiz-adv-x="571" 
d="M235 777l-54 -442l-1 23q12 17 35 33t54.5 27t68.5 11q58 0 101 -23t66 -66t23 -102q0 -81 -33 -136.5t-89.5 -83.5t-126.5 -28q-51 0 -87.5 20.5t-49.5 44.5l6 8l-33 -264h-87l120 978h87zM434 228q0 33 -13.5 59.5t-39.5 42t-62 15.5q-43 0 -78 -20t-56 -53.5
t-21 -75.5q0 -34 15.5 -62t43 -44t63.5 -16q44 0 77.5 19t52 53.5t18.5 81.5z" />
    <glyph glyph-name="dcroat" unicode="&#x111;" horiz-adv-x="569" 
d="M330 680h300l-9 -75h-300zM245 -9q-60 1 -106.5 29.5t-72 76.5t-23.5 103q2 46 19 88.5t49.5 76t78 53t102.5 19.5q57 -2 99.5 -27t63.5 -60l-21 -25l55 452h103l-96 -777h-103l12 96l8 -25q-35 -36 -76.5 -59t-91.5 -21zM276 78q31 -1 57.5 10t48 32.5t33.5 51.5l10 85
q-4 28 -21 50t-43 35t-59 13q-43 1 -77 -16t-54 -48.5t-22 -75.5q-2 -39 13.5 -70t45 -48.5t68.5 -18.5z" />
    <glyph glyph-name="hbar" unicode="&#x127;" horiz-adv-x="562" 
d="M192 342q28 41 74.5 67.5t106.5 26.5t93.5 -35t28.5 -91l-38 -310h-103l33 275q3 32 -12 52t-52 20q-36 0 -66.5 -20t-50.5 -55.5t-26 -81.5l-24 -190h-102l94 777h101l-55 -457zM47 663h262l-13 -104h-262z" />
    <glyph glyph-name="dotlessi" unicode="&#x131;" horiz-adv-x="260" 
d="M105 419h102l-51 -419h-103z" />
    <glyph glyph-name="ij" unicode="&#x133;" horiz-adv-x="533" 
d="M105 419h102l-51 -419h-103zM112 561q1 25 19 42t45 17q21 0 39.5 -12.5t17.5 -39.5q0 -25 -18 -42t-45 -17q-20 0 -39 12.5t-19 39.5zM237 -142q36 23 58.5 57t28.5 83l53 421h103l-52 -419q-9 -72 -43 -124.5t-97 -81.5zM381 561q1 25 19 42t45 17q21 0 39.5 -12.5
t17.5 -39.5q0 -25 -18 -42t-45 -17q-20 0 -39 12.5t-19 39.5z" />
    <glyph glyph-name="kgreenlandic" unicode="&#x138;" horiz-adv-x="518" 
d="M163 124l-4 91l217 204h124zM156 0h-103l52 419h102zM282 241l167 -241h-119l-131 195z" />
    <glyph glyph-name="ldot" unicode="&#x140;" horiz-adv-x="542" 
d="M148 777h104l-96 -777h-102zM358 278q0 28 21 46t44 18q18 0 33 -15t15 -37q0 -18 -9.5 -32t-24 -22t-28.5 -8q-20 0 -35.5 14t-15.5 36v0z" />
    <glyph glyph-name="lslash" unicode="&#x142;" horiz-adv-x="274" 
d="M292 394l-10 -89l-253 -64l10 89zM157 777h104l-96 -777h-102z" />
    <glyph glyph-name="napostrophe" unicode="&#x149;" horiz-adv-x="600" 
d="M120 712q-8 -63 -17.5 -125.5t-17.5 -126.5h-89l31 252h93zM197 419v-93l-7 14q28 43 74.5 69.5t107.5 26.5q60 0 94.5 -35t28.5 -91l-38 -310h-103l34 274q3 33 -13.5 53t-54.5 20q-35 0 -65.5 -20t-49.5 -55.5t-25 -81.5l-24 -190h-102l51 419h92z" />
    <glyph glyph-name="eng" unicode="&#x14b;" horiz-adv-x="562" 
d="M457 3q-8 -68 -39.5 -121t-87.5 -84l-53 64q33 23 52.5 58t25.5 82l33 272q3 33 -13.5 53t-54.5 20q-35 0 -65.5 -20t-49.5 -55.5t-25 -81.5l-24 -190h-102l51 419h92l1 -95l-3 16q27 43 72 69.5t105 26.5t94.5 -35t28.5 -91z" />
    <glyph glyph-name="oe" unicode="&#x153;" horiz-adv-x="802" 
d="M260 -11q-31 0 -68.5 10t-71.5 33t-56 62.5t-22 96.5q0 42 15.5 84t45 76.5t73 55t100.5 20.5t98 -17t68 -42l-60 -63q-15 13 -40.5 25t-59.5 12q-35 0 -66.5 -19t-50.5 -51.5t-19 -74.5q0 -34 16.5 -62.5t46 -45.5t69.5 -17q23 0 43 6.5t37 17.5l44 -68
q-29 -18 -66.5 -28.5t-75.5 -10.5zM550 77q24 0 46 8.5t42 21.5l38 -80q-31 -17 -66.5 -26.5t-70.5 -9.5q-66 0 -116 24.5t-78 72t-28 115.5q0 41 15 81.5t45 74.5t75.5 55t107.5 21q37 0 71.5 -9.5t63 -32t48.5 -61t28 -96.5l-354 -96l-16 61l297 83l-37 -14q-10 38 -38 61
t-67 23q-43 0 -74 -19.5t-46.5 -51.5t-15.5 -68q0 -48 19 -78.5t49 -45t62 -14.5z" />
    <glyph glyph-name="tbar" unicode="&#x167;" horiz-adv-x="366" 
d="M164 603h103l-22 -185h112l-10 -81h-112l-41 -337h-103l41 337h-74l10 81h74zM42 249h262l-13 -104h-262z" />
    <glyph glyph-name="florin" unicode="&#x192;" horiz-adv-x="341" 
d="M133 519q11 87 50.5 142.5t100.5 81.5t136 25l-12 -102q-52 0 -87.5 -19t-55.5 -53.5t-26 -83.5l-11 -94l131 -6l-12 -98l-131 6l-28 -226q-10 -87 -46 -142.5t-96 -81.5t-145 -25l12 102q52 0 87.5 18.5t55.5 53.5t25 84l28 222l-71 4l12 99l71 -4z" />
    <glyph glyph-name="uni01C6" unicode="&#x1c6;" horiz-adv-x="1092" 
d="M245 -9q-60 1 -106.5 29.5t-72 76.5t-23.5 103q2 46 19 88.5t49.5 76t78 53t102.5 19.5q57 -2 99.5 -27t63.5 -60l-21 -25l55 452h103l-96 -777h-103l12 96l8 -25q-35 -36 -76.5 -59t-91.5 -21zM276 78q31 -1 57.5 10t48 32.5t33.5 51.5l10 85q-4 28 -21 50t-43 35
t-59 13q-43 1 -77 -16t-54 -48.5t-22 -75.5q-2 -39 13.5 -70t45 -48.5t68.5 -18.5zM741 334q-34 0 -54.5 21t-16.5 60l5 44h78l-1 -14q-2 -17 5 -21.5t25 -4.5h267l-290 -356l-18 21h264l-10 -84h-395l297 364l12 -30h-168zM850 669l75 -99l-28 -7l101 106h94l-188 -183h-1
l-147 183h94z" />
    <glyph glyph-name="uni01C9" unicode="&#x1c9;" horiz-adv-x="534" 
d="M148 777h104l-96 -777h-102zM238 -142q36 23 58.5 57t28.5 83l53 421h103l-52 -419q-9 -72 -43 -124.5t-97 -81.5zM382 561q1 25 19 42t45 17q21 0 39.5 -12.5t17.5 -39.5q0 -25 -18 -42t-45 -17q-20 0 -39 12.5t-19 39.5z" />
    <glyph glyph-name="uni01CC" unicode="&#x1cc;" horiz-adv-x="834" 
d="M197 419v-93l-7 14q28 43 74.5 69.5t107.5 26.5q60 0 94.5 -35t28.5 -91l-38 -310h-103l34 274q3 33 -13.5 53t-54.5 20q-35 0 -65.5 -20t-49.5 -55.5t-25 -81.5l-24 -190h-102l51 419h92zM539 -142q36 23 58.5 57t28.5 83l53 421h103l-52 -419q-9 -72 -43 -124.5
t-97 -81.5zM683 561q1 25 19 42t45 17q21 0 39.5 -12.5t17.5 -39.5q0 -25 -18 -42t-45 -17q-20 0 -39 12.5t-19 39.5z" />
    <glyph glyph-name="uni01F3" unicode="&#x1f3;" horiz-adv-x="1076" 
d="M245 -9q-60 1 -106.5 29.5t-72 76.5t-23.5 103q2 46 19 88.5t49.5 76t78 53t102.5 19.5q57 -2 99.5 -27t63.5 -60l-21 -25l55 452h103l-96 -777h-103l12 96l8 -25q-35 -36 -76.5 -59t-91.5 -21zM276 78q31 -1 57.5 10t48 32.5t33.5 51.5l10 85q-4 28 -21 50t-43 35
t-59 13q-43 1 -77 -16t-54 -48.5t-22 -75.5q-2 -39 13.5 -70t45 -48.5t68.5 -18.5zM741 334q-34 0 -54.5 21t-16.5 60l5 44h78l-1 -14q-2 -17 5 -21.5t25 -4.5h267l-290 -356l-18 21h264l-10 -84h-395l297 364l12 -30h-168z" />
    <glyph glyph-name="uni0237" unicode="&#x237;" horiz-adv-x="273" 
d="M-23 -142q36 23 58.5 57t28.5 83l53 421h103l-52 -419q-9 -72 -43 -124.5t-97 -81.5z" />
    <glyph glyph-name="uni0259" unicode="&#x259;" horiz-adv-x="528" 
d="M252 341q-23 0 -45.5 -8t-43.5 -21l-37 79q31 18 66.5 27.5t69.5 9.5q67 0 117 -24.5t78 -72t28 -116.5q0 -40 -15 -80.5t-45 -74.5t-76 -55t-107 -21q-37 0 -71.5 9.5t-63 32t-48.5 61t-29 95.5l354 97l17 -61l-297 -84l36 15q11 -38 38.5 -61t66.5 -23q44 0 74.5 19.5
t46.5 51t16 68.5q0 48 -19 78.5t-49 44.5t-62 14z" />
    <glyph glyph-name="uni0272" unicode="&#x272;" horiz-adv-x="561" 
d="M30 -202l-52 64q31 24 51 58.5t26 81.5l5 42h103l-6 -46q-8 -69 -42.5 -118.5t-84.5 -81.5zM196 419l-3 -96l-2 13q27 45 74 72.5t107 27.5q59 0 93 -35t29 -91l-38 -310h-103l33 274q3 32 -12.5 52.5t-53.5 21.5q-35 0 -65 -20.5t-50 -55.5t-26 -81l-24 -191h-103
l51 419h93z" />
    <glyph glyph-name="f_f" unicode="&#xfb00;" horiz-adv-x="782" 
d="M87 0l39 328h-71l12 91h71l20 170q11 90 60 139t131 49q22 0 48.5 -6.5t46.5 -20.5l-54 -75q-7 10 -18 14t-22 4q-36 0 -59 -24t-29 -82l-21 -168h131l-11 -91h-132l-39 -328h-103zM478 0l39 328h-71l12 91h71l20 170q11 90 60 139t131 49q22 0 48.5 -6.5t46.5 -20.5
l-54 -75q-7 10 -18 14t-22 4q-36 0 -59 -24t-29 -82l-21 -168h131l-11 -91h-132l-39 -328h-103z" />
    <glyph glyph-name="uni03BC" unicode="&#x3bc;" horiz-adv-x="554" 
d="M185 -17q-57 0 -90.5 34.5t-27.5 89.5l38 312h102l-34 -276q-2 -31 13 -51t50 -21q35 0 64.5 20.5t49.5 56t25 81.5l23 190h103l-52 -419h-93l4 96l4 -14q-17 -28 -44 -50.5t-61.5 -35.5t-73.5 -13zM99 371h93l-75 -606h-93z" />
    <glyph glyph-name="pi" unicode="&#x3c0;" horiz-adv-x="392" 
d="M50 354h376l-11 -90h-56l-32 -264h-92l33 264h-81l-32 -264h-93l33 264h-56z" />
    <glyph glyph-name="uni01C5" unicode="&#x1c5;" horiz-adv-x="1246" 
d="M75 0l88 726h222q100 0 167 -31t104.5 -82.5t51.5 -116t8 -131.5q-7 -86 -40.5 -153.5t-87 -115t-120.5 -72t-142 -24.5h-251zM193 103h130q58 0 108 17t88 50.5t61 84t27 116.5q6 68 -11 116t-50.5 78t-76.5 44t-88 14h-124zM895 334q-34 0 -54.5 21t-16.5 60l5 44h78
l-1 -14q-2 -17 5 -21.5t25 -4.5h267l-290 -356l-18 21h264l-10 -84h-395l297 364l12 -30h-168zM1004 669l75 -99l-28 -7l101 106h94l-188 -183h-1l-147 183h94z" />
    <glyph glyph-name="uni01C8" unicode="&#x1c8;" horiz-adv-x="887" 
d="M163 726h107l-77 -623h364l-13 -103h-469zM591 -142q36 23 58.5 57t28.5 83l53 421h103l-52 -419q-9 -72 -43 -124.5t-97 -81.5zM735 561q1 25 19 42t45 17q21 0 39.5 -12.5t17.5 -39.5q0 -25 -18 -42t-45 -17q-20 0 -39 12.5t-19 39.5z" />
    <glyph glyph-name="uni01CB" unicode="&#x1cb;" horiz-adv-x="1114" 
d="M707 -25h-3l-490 557l29 -12l-62 -520h-107l92 749h4l484 -557l-24 8l63 526h106zM818 -142q36 23 58.5 57t28.5 83l53 421h103l-52 -419q-9 -72 -43 -124.5t-97 -81.5zM962 561q1 25 19 42t45 17q21 0 39.5 -12.5t17.5 -39.5q0 -25 -18 -42t-45 -17q-20 0 -39 12.5
t-19 39.5z" />
    <glyph glyph-name="uni02BC" unicode="&#x2bc;" horiz-adv-x="203" 
d="M221 712q-8 -63 -17.5 -125.5t-17.5 -126.5h-89l31 252h93z" />
    <glyph glyph-name="circumflex" unicode="&#x2c6;" horiz-adv-x="468" 
d="M350 486l-74 99l27 8l-100 -107h-94l188 183v0l147 -183h-94z" />
    <glyph glyph-name="caron" unicode="&#x2c7;" horiz-adv-x="466" 
d="M233 669l75 -99l-28 -7l101 106h94l-188 -183h-1l-147 183h94z" />
    <glyph glyph-name="uni02C9" unicode="&#x2c9;" horiz-adv-x="405" 
d="M139 723h233l-7 -58h-233z" />
    <glyph glyph-name="ordfeminine" unicode="&#xaa;" horiz-adv-x="397" 
d="M188 423q-37 0 -64.5 17t-41 50.5t-7.5 82.5q6 48 28 82t54 52.5t66 18.5q39 0 61 -15t33 -38l9 43h74l-35 -287h-79l9 67l2 -15q-4 -8 -19 -22t-37.5 -25t-52.5 -11zM220 487q19 0 35 8t28 22.5t18 33.5l7 51q-4 27 -21.5 44t-45.5 17q-32 0 -56.5 -24t-29.5 -63
q-3 -25 4.5 -45t23.5 -32t37 -12z" />
    <glyph glyph-name="ordmasculine" unicode="&#xba;" horiz-adv-x="377" 
d="M77 583q6 43 30 76.5t62 51t83 14.5q47 -3 79.5 -25t48 -57.5t9.5 -79.5q-5 -43 -28.5 -76.5t-61 -51t-84.5 -14.5q-45 3 -78 23.5t-49.5 56.5t-10.5 82zM156 577q-2 -23 6 -42.5t23.5 -31.5t36.5 -13q23 -2 41.5 8t31 28.5t14.5 40.5q3 24 -4.5 43.5t-23.5 31.5t-38 14
q-22 1 -40.5 -9t-30.5 -29t-16 -41z" />
    <glyph glyph-name="gravecomb" unicode="&#x300;" 
d="M153 620l66 -134h-65l-115 134h114z" />
    <glyph glyph-name="acutecomb" unicode="&#x301;" 
d="M349 620l-136 -134h-64l86 134h114z" />
    <glyph glyph-name="uni0302" unicode="&#x302;" 
d="M350 486l-74 99l27 8l-100 -107h-94l188 183v0l147 -183h-94z" />
    <glyph glyph-name="uni03020301" 
d="M350 486l-74 99l27 8l-100 -107h-94l188 183v0l147 -183h-94zM581 750l-136 -134h-64l86 134h114z" />
    <glyph glyph-name="uni03020300" 
d="M350 486l-74 99l27 8l-100 -107h-94l188 183v0l147 -183h-94zM124 730l66 -134h-65l-115 134h114z" />
    <glyph glyph-name="uni03020309" 
d="M350 486l-74 99l27 8l-100 -107h-94l188 183v0l147 -183h-94zM414 619q20 14 34 26.5t17 29.5q2 17 -5 28t-27 12q-14 0 -25 -7t-20 -20l-36 25q20 30 45.5 44t53.5 14q39 -1 57 -23t17 -53q-1 -26 -22 -53.5t-70 -51.5z" />
    <glyph glyph-name="uni03020303" 
d="M374 699q-33 2 -52.5 17.5t-34.5 32.5q-11 12 -21.5 21.5t-24.5 9.5q-12 1 -22.5 -8t-17 -25t-8.5 -38l-54 4q2 39 17 70t40.5 48.5t57.5 15.5q26 -1 43.5 -16.5t31.5 -31.5q13 -14 24 -25t26 -11q19 -2 29.5 19t13.5 55l55 -4q-1 -42 -15 -73t-37.5 -47t-50.5 -14z
M350 486l-74 99l27 8l-100 -107h-94l188 183v0l147 -183h-94z" />
    <glyph glyph-name="tildecomb" unicode="&#x303;" 
d="M403 451q-37 2 -59.5 20.5t-40.5 37.5q-12 13 -23.5 23.5t-28.5 11.5q-14 1 -25.5 -9.5t-18.5 -28.5t-10 -43l-63 5q2 44 19.5 80t46.5 56.5t67 17.5q30 -1 50 -18.5t36 -36.5q14 -16 27 -28t29 -13t26 10t15.5 30.5t7.5 44.5l64 -5q0 -48 -16.5 -83.5t-43.5 -54
t-59 -17.5z" />
    <glyph glyph-name="uni0304" unicode="&#x304;" 
d="M153 541h233l-7 -58h-233z" />
    <glyph glyph-name="uni0306" unicode="&#x306;" 
d="M301 479q-28 1 -52 12.5t-42.5 33t-29 56t-10.5 83.5h69q1 -40 10.5 -65t26.5 -36.5t36 -13.5q26 -1 44 13t30.5 40.5t20.5 61.5h69q-11 -65 -35.5 -106.5t-59 -61t-77.5 -17.5z" />
    <glyph glyph-name="uni03060301" 
d="M301 479q-28 1 -52 12.5t-42.5 33t-29 56t-10.5 83.5h69q1 -40 10.5 -65t26.5 -36.5t36 -13.5q26 -1 44 13t30.5 40.5t20.5 61.5h69q-11 -65 -35.5 -106.5t-59 -61t-77.5 -17.5zM493 850l-136 -134h-64l86 134h114z" />
    <glyph glyph-name="uni03060300" 
d="M301 479q-28 1 -52 12.5t-42.5 33t-29 56t-10.5 83.5h69q1 -40 10.5 -65t26.5 -36.5t36 -13.5q26 -1 44 13t30.5 40.5t20.5 61.5h69q-11 -65 -35.5 -106.5t-59 -61t-77.5 -17.5zM297 823l66 -134h-65l-115 134h114z" />
    <glyph glyph-name="uni03060309" 
d="M301 479q-28 1 -52 12.5t-42.5 33t-29 56t-10.5 83.5h69q1 -40 10.5 -65t26.5 -36.5t36 -13.5q26 -1 44 13t30.5 40.5t20.5 61.5h69q-11 -65 -35.5 -106.5t-59 -61t-77.5 -17.5zM311 730q20 14 34 26.5t17 29.5q2 17 -5 28t-27 12q-14 0 -25 -7t-20 -20l-36 25
q20 30 45.5 44t53.5 14q39 -1 57 -23t17 -53q-1 -26 -22 -53.5t-70 -51.5z" />
    <glyph glyph-name="uni03060303" 
d="M403 702q-33 2 -52 17.5t-35 32.5q-10 12 -20.5 21.5t-24.5 9.5q-13 1 -23 -7.5t-16.5 -25t-8.5 -38.5l-54 5q2 38 17 69.5t40.5 48.5t57.5 15q26 -1 43.5 -16t31.5 -32q12 -14 23.5 -25t26.5 -11q19 -2 29.5 19t13.5 55l55 -4q-1 -42 -15.5 -72.5t-37.5 -47t-51 -14.5z
M301 479q-28 1 -52 12.5t-42.5 33t-29 56t-10.5 83.5h69q1 -40 10.5 -65t26.5 -36.5t36 -13.5q26 -1 44 13t30.5 40.5t20.5 61.5h69q-11 -65 -35 -106.5t-58.5 -61t-78.5 -17.5z" />
    <glyph glyph-name="uni0307" unicode="&#x307;" 
d="M130 571q1 25 19 42t45 17q21 0 39.5 -12.5t17.5 -39.5q0 -25 -18 -42t-45 -17q-20 0 -39 12.5t-19 39.5z" />
    <glyph glyph-name="uni0308" unicode="&#x308;" 
d="M78 537q3 25 22 40.5t40 13.5q20 -1 36 -18t13 -42t-22 -40t-39 -14q-21 1 -37 18.5t-13 41.5v0zM267 537q3 25 22 40.5t40 13.5q20 -1 36 -18.5t13 -41.5q-3 -25 -22 -40t-39 -14q-21 1 -37 18t-13 42v0z" />
    <glyph glyph-name="hookabovecomb" unicode="&#x309;" 
d="M149 589q20 14 34 26.5t17 29.5q2 17 -5 28t-27 12q-14 0 -25 -7t-20 -20l-36 25q20 30 45.5 44t53.5 14q39 -1 57 -23t17 -53q-1 -26 -22 -53.5t-70 -51.5z" />
    <glyph glyph-name="uni030A" unicode="&#x30a;" 
d="M132 541q4 43 34.5 67t73.5 22q41 -3 66 -29t20 -67q-3 -42 -34 -66.5t-72 -22.5t-66.5 28.5t-21.5 67.5zM188 537q-2 -19 8.5 -31t28.5 -13q19 -1 32 10.5t15 31.5q1 21 -9 32.5t-29 12.5q-18 1 -31.5 -10t-14.5 -33z" />
    <glyph glyph-name="uni030B" unicode="&#x30b;" 
d="M327 620q-34 -33 -68.5 -67t-67.5 -67h-65q27 33 54 67t54 67h93zM515 620q-33 -33 -67.5 -67t-68.5 -67h-65q27 33 54 67t55 67h92z" />
    <glyph glyph-name="uni030C" unicode="&#x30c;" 
d="M233 669l75 -99l-28 -7l101 106h94l-188 -183h-1l-147 183h94z" />
    <glyph glyph-name="uni030F" unicode="&#x30f;" 
d="M153 620l66 -134h-65l-115 134h114zM294 620l66 -134h-65l-115 134h114z" />
    <glyph glyph-name="uni0311" unicode="&#x311;" 
d="M409 678q27 -1 51.5 -12t43 -33t28.5 -56.5t11 -83.5h-70q1 41 -9.5 65.5t-26.5 37t-37 12.5q-25 2 -43.5 -12t-30.5 -40t-21 -63h-69q12 66 36 107.5t59 60.5t78 17z" />
    <glyph glyph-name="uni0312" unicode="&#x312;" 
d="M155 715l52 -36q-24 -20 -35 -58t-7 -75l-91 1q-3 28 5 60.5t27.5 61.5t48.5 46z" />
    <glyph glyph-name="uni031B" unicode="&#x31b;" 
d="M126 731q40 -3 64.5 17t36.5 68h77q-15 -63 -42.5 -95.5t-63.5 -43.5t-80 -8z" />
    <glyph glyph-name="dotbelowcomb" unicode="&#x323;" 
d="M0 -101q1 25 19 42t45 17q21 0 39.5 -12.5t17.5 -39.5q0 -25 -18 -42t-45 -17q-20 0 -39 12.5t-19 39.5z" />
    <glyph glyph-name="uni0324" unicode="&#x324;" 
d="M-36 -109q3 25 22 40.5t40 13.5q20 -1 36 -18t13 -42t-22 -40t-39 -14q-21 1 -37 18.5t-13 41.5v0zM153 -109q3 25 22 40.5t40 13.5q20 -1 36 -18.5t13 -41.5q-3 -25 -22 -40t-39 -14q-21 1 -37 18t-13 42v0z" />
    <glyph glyph-name="uni0326" unicode="&#x326;" 
d="M74 -192l-53 36q25 21 36 58.5t6 75.5l91 -1q4 -28 -4.5 -60.5t-27.5 -61.5t-48 -47z" />
    <glyph glyph-name="uni0327" unicode="&#x327;" 
d="M104 -144q9 -13 25 -21t37 -10q24 -1 46 9t24 31q3 16 -9 30t-48 16q-16 1 -33.5 -2t-31.5 -6l-11 51l70 49l78 -2l-77 -78l-19 27q12 3 26.5 5t28.5 1q54 -2 86 -26t26 -69q-3 -34 -26 -55t-56.5 -30t-69.5 -7q-39 3 -64 16t-39 30z" />
    <glyph glyph-name="uni0328" unicode="&#x328;" 
d="M169 -218q-47 2 -79.5 31.5t-32.5 75.5q0 20 10.5 44t32 45.5t56.5 34.5l113 -17q-55 -21 -88.5 -42t-36.5 -50q-2 -26 11.5 -37.5t32.5 -12.5q20 -1 38 11t34 34l33 -54q-22 -29 -56.5 -47t-67.5 -16z" />
    <glyph glyph-name="uni032E" unicode="&#x32e;" 
d="M178 -216q-28 1 -52 12.5t-42.5 33t-29 56t-10.5 83.5h69q1 -40 10.5 -65t26.5 -36.5t36 -13.5q26 -1 44 13t30.5 40.5t20.5 61.5h69q-11 -65 -35.5 -106.5t-59 -61t-77.5 -17.5z" />
    <glyph glyph-name="uni0331" unicode="&#x331;" 
d="M47 -72h233l-7 -58h-233z" />
    <glyph glyph-name="uni0335" unicode="&#x335;" 
d="M59 311h262l-13 -104h-262z" />
    <glyph glyph-name="zero" unicode="0" horiz-adv-x="645" 
d="M306 -1q-54 2 -100 20.5t-80 55.5t-52 91t-16 126q2 24 8 60t18 78.5t34.5 84t57 75.5t83 54.5t114.5 19.5q53 -1 100 -22t82 -61t52 -97.5t9 -132.5q-6 -72 -28 -136t-60.5 -113t-94 -76.5t-127.5 -26.5zM318 101q44 -2 77 20.5t56 60.5t36.5 85.5t16.5 95.5
q3 72 -16.5 115.5t-54.5 63.5t-76 21q-43 1 -76 -21.5t-56.5 -60t-37 -85t-16.5 -96.5q-3 -71 16.5 -115t54.5 -63.5t76 -20.5z" />
    <glyph glyph-name="one" unicode="1" horiz-adv-x="354" 
d="M126 659h178l-81 -659h-108l68 556h-70z" />
    <glyph glyph-name="two" unicode="2" horiz-adv-x="571" 
d="M42 0q102 91 169 156.5t107 112t60 79t26.5 57.5t6.5 47q0 39 -15.5 63.5t-41 37t-58.5 12.5q-35 0 -58.5 -12t-37 -30.5t-19.5 -39t-6 -37.5q0 -27 7 -49t20 -39l-72 -59q-14 16 -28 40t-22.5 53.5t-8.5 60.5q0 32 12 69t39.5 70t73 54t111.5 21t114.5 -23t75 -66
t25.5 -103q0 -41 -10.5 -80.5t-38 -83t-76 -98t-123.5 -126.5l-48 16h283l-12 -103h-455z" />
    <glyph glyph-name="three" unicode="3" horiz-adv-x="505" 
d="M466 659l-197 -282l-60 31q27 7 48 9t36 1q46 -2 85 -24.5t63 -62.5t24 -95q0 -41 -12.5 -83t-41 -78t-74 -58t-110.5 -24q-31 0 -66.5 8.5t-68 27t-56.5 48.5l64 83q22 -33 57 -49t69 -15q32 0 56 11.5t40 30.5t24.5 43t8.5 51q0 53 -37.5 83t-95.5 31q-23 1 -45 -4
t-34 -11l-4 4l169 235l31 -13h-234l13 102h348z" />
    <glyph glyph-name="four" unicode="4" horiz-adv-x="517" 
d="M-1 156v1l468 510h1l-52 -429h84l-10 -82h-84l-19 -156h-107l19 156h-300zM343 433l-187 -211l-10 16h163l25 205z" />
    <glyph glyph-name="five" unicode="5" horiz-adv-x="520" 
d="M235 -8q-23 0 -57 8t-68.5 26.5t-60.5 47.5l66 81q16 -22 37 -35t42.5 -18t37.5 -5q45 0 73.5 18t42 47t13.5 60q0 36 -12.5 59t-33.5 37.5t-45 21t-46 7.5q-28 0 -60 -8.5t-65 -30.5l-2 1l68 350h312l-12 -102h-232l-29 -156l-5 23q12 5 31.5 7.5t39.5 2.5q33 -1 68 -13
t65.5 -36.5t49 -63t18.5 -93.5q0 -38 -12.5 -79t-40.5 -76.5t-73 -57.5t-110 -23z" />
    <glyph glyph-name="six" unicode="6" horiz-adv-x="566" 
d="M279 -8q-65 0 -115.5 29t-80 81.5t-29.5 125.5q0 48 16.5 101.5t56 109.5t108 112.5t171.5 111.5l61 -82q-85 -33 -145 -79.5t-95 -97t-46 -96.5l-26 8q32 52 76.5 79t110.5 27q29 0 60.5 -11t59 -35t45 -60.5t17.5 -88.5q0 -38 -15 -79.5t-46 -76.5t-77 -57t-107 -22z
M280 88q39 0 65 14t41 35t21.5 44t6.5 41q0 34 -16 59t-43.5 39.5t-62.5 14.5q-40 0 -65.5 -14t-40.5 -34.5t-21 -42t-6 -38.5q0 -32 15.5 -59t43 -43t62.5 -16z" />
    <glyph glyph-name="seven" unicode="7" horiz-adv-x="492" 
d="M523 659l-339 -659h-126l299 571l39 -14h-321l13 102h435z" />
    <glyph glyph-name="eight" unicode="8" horiz-adv-x="554" 
d="M41 199q0 53 21 93t55 68.5t73 42.5q-23 20 -38 45t-13 60q1 27 11.5 54.5t32 51.5t55 38.5t80.5 14.5q50 0 89.5 -19t62.5 -50.5t23 -71.5q0 -49 -22.5 -80t-60.5 -56q26 -14 50 -37.5t39.5 -56t15.5 -74.5q0 -25 -9 -55.5t-28 -61t-48.5 -56t-70.5 -41.5t-92 -16
q-68 0 -118.5 29t-79 76.5t-28.5 101.5zM150 205q0 -33 14 -61t41 -45t64 -17q40 0 71.5 19.5t50 51t18.5 69.5q0 33 -16 61t-43 44.5t-62 16.5q-44 0 -75 -21t-47 -53t-16 -65zM241 503q-2 -29 19.5 -49.5t51.5 -20.5q26 0 43 12t25 29t8 33q0 32 -19.5 51t-48.5 19
q-34 0 -55 -20.5t-24 -53.5z" />
    <glyph glyph-name="nine" unicode="9" horiz-adv-x="558" 
d="M253 216q-34 1 -68 15t-61.5 40t-43.5 63.5t-14 83.5q2 38 18 78t47 74.5t77 55.5t107 20q67 -1 118 -30t79.5 -78.5t26.5 -112.5t-27 -120t-72 -109t-117 -101t-164 -98l-62 82q88 35 154 76.5t106.5 86t50.5 85.5l29 -9q-35 -50 -77 -76.5t-107 -25.5zM294 304
q59 -1 94 27.5t42 93.5q3 33 -11 61t-41 46t-64 18q-44 2 -74 -18t-45.5 -50t-17.5 -60q-1 -34 13.5 -60.5t42 -41.5t61.5 -16z" />
    <glyph glyph-name="uni00B2" unicode="&#xb2;" horiz-adv-x="404" 
d="M116 633q14 18 37 31.5t50.5 21.5t55.5 8q63 -1 97.5 -35t26.5 -95q-5 -40 -30.5 -76.5t-62.5 -67.5t-74.5 -57.5t-66.5 -48.5l23 69h203l-10 -86h-281l7 58q26 16 56 36.5t57.5 44t46.5 49.5t22 52q4 38 -9.5 54.5t-42.5 16.5q-23 0 -46.5 -12.5t-36.5 -29.5z" />
    <glyph glyph-name="uni00B3" unicode="&#xb3;" horiz-adv-x="387" 
d="M174 294q-41 0 -67 16t-39 32l36 60l15 -17.5t22 -17.5t29 -5q31 3 50.5 20.5t23.5 47.5q4 32 -14.5 49.5t-47.5 17.5q-12 0 -24.5 -3t-20.5 -6l-5 9l103 131l20 -16h-141l10 74h229l-127 -184l-65 18q13 11 31.5 18.5t41.5 7.5q24 0 49.5 -15.5t42 -42.5t11.5 -61
q-4 -37 -26 -67t-57 -48t-80 -18z" />
    <glyph glyph-name="uni00B9" unicode="&#xb9;" horiz-adv-x="274" 
d="M98 671h157l-45 -381h-97l35 289h-61z" />
    <glyph glyph-name="onequarter" unicode="&#xbc;" horiz-adv-x="883" 
d="M688 765q-95 -191 -188.5 -382t-188.5 -383h-93q94 192 188 383t189 382h93zM98 671h157l-45 -381h-97l35 289h-61zM831 164l-7 -59h-307l2 27l233 264h63l-48 -389h-89l35 281l23 4l-143 -164l-10 36h248z" />
    <glyph glyph-name="onehalf" unicode="&#xbd;" horiz-adv-x="896" 
d="M116 671h157l-45 -381h-97l35 289h-61zM656 766q-95 -192 -188.5 -383t-188.5 -383h-93q95 192 189 383t188 383h93zM540 334q14 18 37 31.5t50.5 21.5t55.5 8q63 -1 97.5 -35t26.5 -95q-5 -40 -30.5 -76.5t-62.5 -67.5t-74.5 -57.5t-66.5 -48.5l23 69h203l-10 -86h-281
l7 58q26 16 56 36.5t57.5 44t46.5 49.5t22 52q4 38 -9.5 54.5t-42.5 16.5q-23 0 -46.5 -12.5t-36.5 -29.5z" />
    <glyph glyph-name="threequarters" unicode="&#xbe;" horiz-adv-x="902" 
d="M172 294q-41 0 -67 16t-39 32l36 60l15 -17.5t22 -17.5t29 -5q31 3 50.5 20.5t23.5 47.5q4 32 -14.5 49.5t-47.5 17.5q-12 0 -24.5 -3t-20.5 -6l-5 9l103 131l20 -16h-141l10 74h229l-127 -184l-65 18q13 11 31.5 18.5t41.5 7.5q24 0 49.5 -15.5t42 -42.5t11.5 -61
q-4 -37 -26 -67t-57 -48t-80 -18zM710 766q-95 -192 -188.5 -383t-188.5 -383h-93q95 192 189 383t188 383h93zM849 157l-7 -58h-308l2 26l234 264h63l-48 -389h-89l35 282l23 3l-143 -164l-10 36h248z" />
    <glyph glyph-name="uni2074" unicode="&#x2074;" horiz-adv-x="391" 
d="M372 447l-7 -58h-308l2 26l234 264h63l-48 -389h-89l35 282l23 3l-143 -164l-10 36h248z" />
    <glyph glyph-name="underscore" unicode="_" horiz-adv-x="608" 
d="M113 89h405l-11 -89h-405z" />
    <glyph glyph-name="hyphen" unicode="-" horiz-adv-x="304" 
d="M86 263h187l-11 -90h-187z" />
    <glyph glyph-name="endash" unicode="&#x2013;" horiz-adv-x="516" 
d="M133 259h305l-11 -90h-305z" />
    <glyph glyph-name="emdash" unicode="&#x2014;" horiz-adv-x="710" 
d="M132 259h509l-11 -90h-509z" />
    <glyph glyph-name="parenleft" unicode="(" horiz-adv-x="383" 
d="M93 279q6 80 28 151.5t53.5 132.5t68.5 109.5t75 82.5l75 -48q-46 -45 -87 -109t-69.5 -145t-37.5 -179q-7 -87 3.5 -162.5t34 -135.5t54.5 -104l-87 -39q-34 45 -63 112.5t-43 152.5t-5 181v0z" />
    <glyph glyph-name="bracketleft" unicode="[" horiz-adv-x="351" 
d="M168 757h198l-11 -91h-106l-90 -727h107l-11 -90h-199z" />
    <glyph glyph-name="braceleft" unicode="{" horiz-adv-x="351" 
d="M324 666q-21 0 -33.5 -7.5t-20 -29t-12.5 -65.5l-16 -129q-4 -39 -18.5 -65.5t-32 -42.5t-31.5 -25q12 -8 25 -24.5t21.5 -43t2.5 -64.5l-15 -128q-5 -43 -3.5 -65.5t12.5 -30t31 -7.5h43l-11 -90h-67q-24 0 -45.5 1t-38 10.5t-23.5 34t-2 69.5l20 155q4 28 1 59
t-17.5 54t-47.5 24v0l11 89q33 2 53 24.5t30.5 54t13.5 58.5l19 155q6 47 19 72t31 35t40.5 11.5t47.5 1.5h67l-11 -91h-43z" />
    <glyph glyph-name="quotesinglbase" unicode="&#x201a;" horiz-adv-x="148" 
d="M58 -55q-11 7 -21.5 13t-21.5 12q24 21 37.5 51.5t10.5 65.5q14 2 28.5 4t28.5 3q3 -43 -14 -82t-48 -67v0z" />
    <glyph glyph-name="quotedblbase" unicode="&#x201e;" horiz-adv-x="358" 
d="M58 -55q-11 7 -21.5 13t-21.5 12q24 21 37.5 51.5t10.5 65.5q14 2 28.5 4t28.5 3q3 -43 -14 -82t-48 -67v0zM164 -55q-11 7 -21.5 13t-21.5 12q24 21 37 51.5t11 65.5q14 2 28.5 4t28.5 3q3 -43 -14 -82t-48 -67v0z" />
    <glyph glyph-name="parenright" unicode=")" horiz-adv-x="383" 
d="M311 310q-6 -79 -28 -150.5t-53.5 -132.5t-68.5 -109.5t-75 -82.5l-75 48q46 45 87 108.5t69.5 145t36.5 179.5q8 87 -2.5 162.5t-34 136t-54.5 103.5l87 39q35 -45 63.5 -113t42.5 -152.5t5 -181.5v0z" />
    <glyph glyph-name="bracketright" unicode="]" horiz-adv-x="368" 
d="M132 757h198l-111 -908h-199l12 90h106l89 727h-106z" />
    <glyph glyph-name="braceright" unicode="}" horiz-adv-x="359" 
d="M78 -61q21 0 33 7.5t19.5 30t12.5 65.5l15 125q6 40 20.5 67t32 43.5t30.5 24.5q-11 9 -24.5 25t-21.5 42.5t-4 65.5l16 129q6 44 4.5 65.5t-12.5 29t-32 7.5h-43l11 91h67q25 0 47 -1.5t38 -11t22.5 -34.5t0.5 -73l-19 -159q-2 -21 -1 -44t7.5 -43t20.5 -33t37 -13v0
l-10 -89q-24 -1 -41.5 -14t-29 -32.5t-18 -42.5t-9.5 -44l-18 -155q-6 -47 -18.5 -72t-31 -34.5t-41 -11t-47.5 -1.5h-67l11 90h43z" />
    <glyph glyph-name="guillemotleft" unicode="&#xab;" horiz-adv-x="609" 
d="M148 242q5 4 20 18.5t35.5 35t43 42.5t43 42.5t35.5 35t20 18.5l-13 -105q-6 -5 -17 -17.5t-23.5 -26t-24 -25.5t-17.5 -18q5 -5 13 -17t17 -26.5t17.5 -26t12.5 -17.5l-12 -105zM321 242q5 4 20 18.5t35.5 35t43.5 42.5t43.5 42.5t35.5 35t20 18.5l-13 -105
q-6 -5 -17 -17t-24 -26t-24 -26t-17 -18q4 -5 12 -17t17.5 -26.5t18 -26t12.5 -17.5l-13 -105z" />
    <glyph glyph-name="quoteleft" unicode="&#x2018;" horiz-adv-x="166" 
d="M194 598q-12 -6 -24.5 -12t-24.5 -12q-25 28 -32 66.5t6 80.5q14 -1 28 -3t27 -4q-11 -35 -5 -65.5t25 -50.5v0z" />
    <glyph glyph-name="quotedblleft" unicode="&#x201c;" horiz-adv-x="252" 
d="M195 598q-12 -6 -24.5 -12t-25.5 -12q-24 28 -31 66.5t6 80.5q14 -1 28 -3t27 -4q-11 -35 -5 -65.5t25 -50.5v0zM300 598l-24 -12t-25 -12q-24 28 -31.5 66.5t5.5 80.5q14 -1 28 -3t27 -4q-10 -35 -4.5 -65.5t24.5 -50.5v0z" />
    <glyph glyph-name="guilsinglleft" unicode="&#x2039;" horiz-adv-x="397" 
d="M148 242q5 4 20 18.5t35.5 35t43 42.5t43 42.5t35.5 35t20 18.5l-13 -105q-6 -5 -17 -17.5t-23.5 -26t-24 -25.5t-17.5 -18q5 -5 13 -17t17 -26.5t17.5 -26t12.5 -17.5l-12 -105z" />
    <glyph glyph-name="guillemotright" unicode="&#xbb;" horiz-adv-x="609" 
d="M436 242q-5 4 -19.5 18.5l-35 35t-43.5 42.5t-43.5 42.5t-35.5 35t-19 18.5l12 -105q6 -5 17 -17.5t24 -26t24 -25.5t17 -18q-4 -5 -12.5 -17t-17.5 -26.5t-17 -26t-13 -17.5l13 -105zM263 242q-5 4 -20 18.5t-35.5 35t-43.5 42.5t-43.5 42.5l-35 35t-19.5 18.5l12 -105
q6 -5 17.5 -17t24.5 -26t24 -26t17 -18q-5 -5 -13 -17t-17.5 -26.5t-17.5 -26t-13 -17.5l13 -105z" />
    <glyph glyph-name="quoteright" unicode="&#x2019;" horiz-adv-x="166" 
d="M148 574q-10 6 -20.5 12t-21.5 12q24 20 37 50.5t11 65.5q13 2 28 4t29 3q4 -42 -13 -80.5t-50 -66.5v0z" />
    <glyph glyph-name="quotedblright" unicode="&#x201d;" horiz-adv-x="251" 
d="M123 574q-10 6 -20.5 12t-21.5 12q24 20 37 50.5t10 65.5q14 2 29 4t29 3q3 -42 -14 -80.5t-49 -66.5v0zM228 574q-10 6 -20.5 12t-21.5 12q24 20 37 50.5t11 65.5q13 2 28 4t29 3q3 -42 -14 -80.5t-49 -66.5v0z" />
    <glyph glyph-name="guilsinglright" unicode="&#x203a;" horiz-adv-x="398" 
d="M262 242q-4 4 -19 18.5t-35.5 35t-43.5 42.5t-43.5 42.5l-35 35t-19.5 18.5l12 -105q6 -5 17.5 -17.5t24 -26t23.5 -25.5t17 -18q-4 -5 -12.5 -17t-17.5 -26.5t-17 -26t-13 -17.5l13 -105z" />
    <glyph glyph-name="exclam" unicode="!" horiz-adv-x="201" 
d="M126 750h93l-71 -571h-92zM72 -4q-25 4 -37.5 20.5t-7.5 39.5q6 21 25.5 33.5t44.5 8.5t36.5 -21.5t6.5 -39.5q-6 -23 -24 -34t-44 -7z" />
    <glyph glyph-name="quotedbl" unicode="&#x22;" horiz-adv-x="344" 
d="M244 730q-8 -63 -17 -125.5t-17 -126.5h-87l30 252h91zM380 730q-8 -63 -17.5 -125.5t-17.5 -126.5h-88l31 252h92z" />
    <glyph glyph-name="numbersign" unicode="#" horiz-adv-x="579" 
d="M345 652q-12 -48 -24 -95t-24 -95h94q12 48 23.5 95t23.5 95h94q-12 -48 -24 -95t-24 -95h99q-5 -22 -9.5 -44.5t-9.5 -45.5h-101q-6 -23 -11.5 -47t-11.5 -49h100q-5 -22 -11 -44.5t-11 -45.5h-100q-11 -47 -22.5 -93t-22.5 -93h-93q11 47 22.5 93t22.5 93h-93
q-11 -47 -22.5 -93t-22.5 -93h-94q11 47 22.5 93t22.5 93h-90q6 23 11.5 45.5t10.5 44.5h90q7 25 12 49t11 47h-89q5 23 10 45.5t10 44.5h90q12 48 24 95t24 95h93zM277 372q-6 -23 -11.5 -47t-12.5 -49h94q6 25 11.5 49t11.5 47h-93z" />
    <glyph glyph-name="percent" unicode="%" horiz-adv-x="822" 
d="M216 272q-30 2 -55 13.5t-42.5 32.5t-26 53t-5.5 74q4 50 23.5 90.5t54.5 64t86 21.5q28 -1 52.5 -12.5t42 -32.5t26.5 -52.5t6 -73.5q-3 -50 -22.5 -90.5t-54 -64.5t-85.5 -23zM224 345q21 0 34.5 15t20.5 40.5t9 53.5t-1.5 46t-10.5 28t-16 14.5t-18 5.5
q-22 0 -35.5 -14t-20.5 -38t-10 -56q-1 -34 5.5 -54.5t18 -30t24.5 -10.5zM599 -18q-30 1 -54.5 12.5t-42 33t-26 53t-5.5 72.5q4 50 23.5 91t54.5 64.5t86 22.5q29 -2 54 -13.5t42.5 -33t26 -53t5.5 -73.5q-4 -48 -23.5 -89t-55 -65t-85.5 -22zM607 54q23 0 36.5 15.5
t20 41t8.5 53.5q3 37 -3.5 56.5t-17.5 27.5t-25 9q-21 0 -35 -13.5t-21 -37.5t-10 -56q-1 -35 5.5 -55.5t18 -30t23.5 -10.5zM736 622l-507 -624l-102 2l506 622h103z" />
    <glyph glyph-name="ampersand" unicode="&#x26;" horiz-adv-x="714" 
d="M634 0h-30h-41.5h-37h-15.5l-283 457q-9 14 -19 35.5t-16 47t-3 51.5q3 42 27.5 80.5t68 63t105.5 24.5q61 0 106 -24.5t72 -58.5l-63 -71q-28 29 -54.5 46.5t-55.5 17.5q-47 0 -71 -27t-26 -61q-1 -13 3.5 -28.5t11 -28.5t9.5 -20zM318 343q-27 2 -54.5 -7.5t-50 -27.5
t-36.5 -42.5t-16 -53.5q-3 -36 14.5 -65t48.5 -45.5t70 -17.5q35 -2 63 8t48.5 27t33.5 38l61 -62q-32 -47 -91 -78t-141 -27q-67 2 -118.5 32t-78.5 80t-21 111q4 49 29.5 89t65.5 68.5t87 44t95 13.5zM569 429h98l-157 -307l-71 48z" />
    <glyph glyph-name="quotesingle" unicode="'" horiz-adv-x="167" 
d="M222 730q-8 -63 -17.5 -125.5t-17.5 -126.5h-89l31 252h93z" />
    <glyph glyph-name="asterisk" unicode="*" horiz-adv-x="335" 
d="M201 521l-40 -22t-41 -22q-6 14 -12.5 28.5t-12.5 28.5q21 10 41 21t40 21q-16 11 -34 22.5t-35 22.5q9 13 17.5 26.5t17.5 26.5q18 -11 36.5 -22.5t35.5 -22.5l11 91h65q-3 -23 -6 -45.5t-6 -45.5l42 22l42 22q6 -13 12 -26.5t12 -26.5q-22 -11 -42.5 -22.5t-42.5 -22.5
v0l36 -22l36 -22q-10 -14 -19.5 -28t-19.5 -28q-18 11 -35.5 22.5t-35.5 22.5q-3 -21 -6 -42.5t-6 -43.5h-61z" />
    <glyph glyph-name="comma" unicode="," horiz-adv-x="203" 
d="M42 -204l-53 36q25 21 36 58.5t6 75.5l91 -1q4 -28 -4.5 -60.5t-27.5 -61.5t-48 -47z" />
    <glyph glyph-name="period" unicode="." horiz-adv-x="166" 
d="M36 50q0 28 21 46t44 18q18 0 33 -15t15 -37q0 -18 -9.5 -32t-24 -22t-28.5 -8q-20 0 -35.5 14t-15.5 36v0z" />
    <glyph glyph-name="slash" unicode="/" horiz-adv-x="392" 
d="M485 747q-95 -192 -189 -383t-188 -383h-93q95 192 188.5 383t188.5 383h93z" />
    <glyph glyph-name="colon" unicode=":" horiz-adv-x="178" 
d="M36 50q0 28 21 46t44 18q18 0 33 -15t15 -37q0 -18 -10 -32t-24 -22t-28 -8q-21 0 -36 14t-15 36v0zM70 325q0 27 20.5 45.5t44.5 18.5q18 0 33 -15t15 -37q0 -19 -10 -32.5t-24 -21.5t-29 -8q-20 0 -35 13.5t-15 36.5v0z" />
    <glyph glyph-name="semicolon" unicode=";" horiz-adv-x="204" 
d="M100 304q0 18 10 32.5t24.5 23t29.5 8.5q19 0 33.5 -15t14.5 -37q0 -28 -20 -45.5t-43 -17.5q-19 0 -34 14.5t-15 36.5v0zM167 88q-29 -53 -57 -105t-57 -105h-83q27 53 52.5 105t51.5 105h93z" />
    <glyph glyph-name="question" unicode="?" horiz-adv-x="446" 
d="M147 264q4 33 17 54t31.5 36t41.5 29t48 31q44 32 66.5 68t22.5 76q0 27 -11 48t-31.5 33.5t-49.5 12.5q-37 0 -62.5 -10.5t-42.5 -32t-31 -54.5v0q-19 7 -38.5 14.5t-38.5 15.5q10 21 26 48t42 52t64 41.5t92 16.5q52 0 91.5 -24t62 -64.5t22.5 -89.5q0 -63 -32.5 -110
t-89.5 -87q-20 -13 -43.5 -28t-42.5 -37.5t-23 -57.5l-10 -79h-93zM159 -2q-19 0 -34.5 13.5t-15.5 36.5q0 27 21 45t43 18q19 0 34 -15t15 -37q0 -27 -20 -44t-43 -17v0z" />
    <glyph glyph-name="at" unicode="@" horiz-adv-x="1024" 
d="M439 -220q-82 0 -154 23.5t-127 71.5t-86 120.5t-31 168.5q0 63 19 130.5t60.5 131t107 114.5t157 81.5t211.5 30.5q94 0 166.5 -27.5t123 -76t76.5 -113t26 -139.5q0 -61 -18.5 -116t-51.5 -97t-78.5 -66.5t-101.5 -24.5q-41 0 -70.5 19.5t-42.5 54.5t-5 81l18 -47
q-16 -26 -46.5 -51t-68.5 -42t-78 -17q-55 0 -98.5 23t-68 67t-24.5 104q0 70 31 127.5t85.5 91.5t125.5 34q44 0 73 -12t48 -31t31 -42l17 67h97l-37 -269q-2 -18 0 -33t12 -23t27 -8q23 0 46 15.5t41.5 44.5t30 67t11.5 83q0 76 -36 138t-105 99.5t-170 37.5
q-107 0 -183.5 -29t-128 -76.5t-81 -102t-42.5 -106t-13 -89.5q0 -80 24.5 -138t68 -95.5t102 -56t126.5 -18.5q58 0 114.5 18.5t106.5 49.5l42 -60q-39 -30 -87 -49.5t-97 -29t-95 -9.5zM484 74q32 0 58.5 12t47 34t32.5 52l12 87q-4 28 -20.5 48.5t-42.5 32.5t-59 12
q-41 0 -75 -21.5t-53.5 -56.5t-19.5 -77q0 -34 15 -62t42.5 -44.5t62.5 -16.5z" />
    <glyph glyph-name="backslash" unicode="\" horiz-adv-x="398" 
d="M194 747q47 -192 94 -383t93 -383h-104q-47 192 -94 383t-94 383h105z" />
    <glyph glyph-name="exclamdown" unicode="&#xa1;" horiz-adv-x="201" 
d="M98 -202h-93l71 571h92zM152 552q25 -4 37.5 -20.5t7.5 -39.5q-6 -22 -25.5 -34t-44.5 -9q-25 5 -36.5 22.5t-6.5 39.5q6 23 24 33.5t44 7.5z" />
    <glyph glyph-name="section" unicode="&#xa7;" horiz-adv-x="574" 
d="M365 132l-34 41q45 -6 80 -26t53.5 -53.5t12.5 -81.5q-7 -55 -41 -98t-87 -67t-118 -20q-42 3 -82.5 14t-74.5 30.5t-60 44.5l64 84q26 -23 51.5 -40t52.5 -26.5t55 -10.5q31 -2 59 6.5t46.5 27.5t20.5 47q4 28 -12 47t-44.5 31.5t-61.5 22.5q-31 11 -63 25.5t-57.5 35.5
t-39 50.5t-8.5 69.5q7 53 37 86t72.5 46.5t85.5 8.5l-13 -37q-50 19 -79 45.5t-40 59t-7 69.5q5 43 32.5 83t77 64.5t121.5 19.5q58 -4 105.5 -25t81.5 -53l-55 -76q-33 30 -65.5 44t-66.5 17q-37 2 -63 -6.5t-39.5 -24.5t-15.5 -35q-3 -28 12.5 -46.5t45.5 -31.5t66 -25
q31 -11 62 -25t56 -34t38 -50t7 -73q-7 -58 -50.5 -101.5t-117.5 -53.5zM427 275q5 26 -12 46t-44.5 34t-56.5 20q-54 5 -89.5 -16t-40.5 -54q-5 -29 10 -50t43 -36.5t62 -27.5q27 1 55 10.5t49 28t24 45.5z" />
    <glyph glyph-name="paragraph" unicode="&#xb6;" horiz-adv-x="562" 
d="M256 428q-42 0 -75 20t-51.5 54t-18.5 76q0 50 25.5 91.5t68.5 66.5t92 25h258l-94 -761h-91l82 671h-73l-83 -671h-92z" />
    <glyph glyph-name="periodcentered" unicode="&#xb7;" horiz-adv-x="219" 
d="M70 280q0 28 21 46t44 18q18 0 33 -15t15 -37q0 -18 -9.5 -32t-24 -22t-28.5 -8q-20 0 -35.5 14t-15.5 36v0z" />
    <glyph glyph-name="questiondown" unicode="&#xbf;" horiz-adv-x="434" 
d="M319 275q-4 -33 -16.5 -54t-31 -36t-41.5 -28.5t-48 -31.5q-45 -32 -67.5 -68t-22.5 -76q0 -27 11 -48t32 -33.5t49 -12.5q38 0 63 10.5t42.5 32.5t30.5 54v0q20 -7 39.5 -14.5t37.5 -15.5q-9 -21 -25 -48t-42 -52t-64.5 -41.5t-92.5 -16.5q-51 0 -90.5 24t-62.5 65
t-23 89q0 64 33 111t90 86q19 13 43 28t42.5 37.5t22.5 57.5l10 79h93zM307 541q19 0 34.5 -13.5t15.5 -36.5q0 -27 -20.5 -45t-43.5 -18q-18 0 -33.5 15t-15.5 37q0 28 20.5 44.5t42.5 16.5v0z" />
    <glyph glyph-name="dagger" unicode="&#x2020;" horiz-adv-x="300" 
d="M87 470h240l-11 -91h-240zM179 616h93l-76 -615h-93z" />
    <glyph glyph-name="daggerdbl" unicode="&#x2021;" horiz-adv-x="300" 
d="M37 301h301l-11 -90h-301zM87 470h240l-11 -91h-240zM178 616h94l-76 -615h-93z" />
    <glyph glyph-name="bullet" unicode="&#x2022;" horiz-adv-x="485" 
d="M144 290q0 41 21 75.5t56 55t76 20.5q35 0 62 -16t42.5 -44t15.5 -63q0 -41 -21.5 -75t-56.5 -54t-76 -20q-34 0 -61 16.5t-42.5 43.5t-15.5 61v0z" />
    <glyph glyph-name="ellipsis" unicode="&#x2026;" horiz-adv-x="497" 
d="M36 50q0 28 21 46t44 18q18 0 33 -15t15 -37q0 -18 -9.5 -32t-24 -22t-28.5 -8q-20 0 -35.5 14t-15.5 36v0zM202 50q0 28 21 46t44 18q18 0 33 -15t15 -37q0 -18 -9.5 -32t-24 -22t-29.5 -8q-19 0 -34.5 14t-15.5 36v0zM368 50q0 28 21 46t44 18q18 0 33 -15t15 -37
q0 -18 -10 -32t-24 -22t-29 -8q-20 0 -35 14t-15 36v0z" />
    <glyph glyph-name="perthousand" unicode="&#x2030;" horiz-adv-x="1154" 
d="M217 272q-31 2 -56 13.5t-42.5 32.5t-26 53t-5.5 74q4 49 23 90t54 64.5t86 21.5q29 -1 54 -12.5t42.5 -33t26 -53t5.5 -72.5q-3 -49 -22.5 -90t-54 -65t-84.5 -23zM207 402q10 -16 18.5 -20t16.5 1.5t17 16.5q7 13 8 24.5t-1 22.5t-5 22t-3 23q-10 19 -18 22.5t-16 -3
t-18 -18.5q-7 -13 -8 -24t1 -21t4.5 -21t3.5 -25zM600 -18q-30 1 -55 12.5t-42.5 32.5t-26 53t-5.5 73q4 50 23 90.5t54 64.5t86 23q29 -2 54 -13.5t42.5 -33t26.5 -53t6 -73.5q-4 -48 -23.5 -88.5t-54 -64.5t-85.5 -23zM591 111q11 -16 19.5 -19.5t16 2t16.5 16.5
q7 13 8 24.5t-0.5 22t-4.5 21.5t-4 24q-10 19 -18 22t-16 -3.5t-18 -18.5q-9 -17 -9 -30.5t4 -27.5t6 -33zM736 622l-507 -624l-102 2l506 622h103zM934 -18q-31 1 -56 12.5t-42.5 33t-26 53t-5.5 72.5q5 50 24 90.5t53.5 64.5t85.5 23q30 -2 55 -13.5t42.5 -33t26 -53
t5.5 -73.5q-4 -48 -23.5 -88.5t-54 -64.5t-84.5 -23zM923 111q12 -16 20.5 -19.5t16 2t16.5 16.5q7 13 8 24.5t-1 22.5t-4.5 21.5t-2.5 23.5q-10 19 -18.5 22t-16.5 -3.5t-17 -18.5q-7 -13 -8.5 -23.5t0.5 -20.5t4.5 -21.5t2.5 -25.5z" />
    <glyph glyph-name="plus" unicode="+" horiz-adv-x="551" 
d="M274 417h94l-17 -138h136l-11 -90h-136l-17 -137h-94l17 137h-135l11 90h135z" />
    <glyph glyph-name="less" unicode="&#x3c;" horiz-adv-x="592" 
d="M470 -14q-103 64 -205.5 128t-205.5 127q118 64 236.5 128t237.5 128l-16 -126q-59 -32 -119.5 -64.5t-120.5 -65.5q52 -32 104.5 -64.5t104.5 -64.5v0z" />
    <glyph glyph-name="equal" unicode="=" horiz-adv-x="718" 
d="M126 199h513l-12 -90h-512zM150 396h513l-12 -90h-512z" />
    <glyph glyph-name="greater" unicode="&#x3e;" horiz-adv-x="584" 
d="M93 112q60 32 120 64.5t121 64.5q-52 33 -104.5 65.5t-105.5 64.5l16 126q103 -64 205.5 -128t206.5 -128q-119 -63 -237.5 -127t-237.5 -128v0z" />
    <glyph glyph-name="bar" unicode="|" horiz-adv-x="291" 
d="M178 710h93l-116 -945h-93z" />
    <glyph glyph-name="asciitilde" unicode="~" horiz-adv-x="462" 
d="M316 428q-37 2 -59.5 20t-40.5 37q-12 14 -23.5 24.5t-28.5 11.5q-14 1 -26 -9.5t-18.5 -29t-9.5 -43.5l-64 6q3 44 20.5 80t46.5 56.5t67 17.5q29 -1 49 -18.5t37 -36.5q14 -16 27 -28t29 -13q15 -1 25.5 9.5t16 30.5t7.5 44l64 -4q0 -48 -16.5 -84t-44 -54t-58.5 -17z
" />
    <glyph glyph-name="logicalnot" unicode="&#xac;" horiz-adv-x="494" 
d="M84 303h364l-24 -195h-107l11 92h-258z" />
    <glyph glyph-name="plusminus" unicode="&#xb1;" horiz-adv-x="532" 
d="M294 579h94l-17 -138h135l-10 -90h-136l-17 -137h-94l17 137h-135l10 90h136zM108 173h365l-11 -90h-365z" />
    <glyph glyph-name="multiply" unicode="&#xd7;" horiz-adv-x="520" 
d="M310 251q27 24 51.5 46t52.5 46q17 -19 33.5 -39.5t32.5 -39.5q-24 -22 -50 -45t-50 -46q20 -22 39.5 -45.5t40.5 -47.5l-91 -80q-19 23 -40 46l-42 46q-24 -23 -50 -45.5t-51 -44.5q-17 19 -34.5 38.5t-34.5 38.5q26 23 51.5 45.5t51.5 46.5l-83 94l90 81z" />
    <glyph glyph-name="divide" unicode="&#xf7;" horiz-adv-x="507" 
d="M211 101q0 28 21 46t43 18q18 0 33.5 -15t15.5 -37q0 -19 -10 -33t-24 -22t-28 -8q-21 0 -36 14.5t-15 36.5v0zM247 397q0 27 21 45t44 18q18 0 33 -14.5t15 -36.5q0 -28 -20.5 -45t-42.5 -17q-20 0 -35 13.5t-15 36.5v0zM106 298h365l-11 -90h-365z" />
    <glyph glyph-name="fraction" unicode="&#x2044;" horiz-adv-x="300" 
d="M432 766q-95 -192 -188.5 -383t-188.5 -383h-93q95 192 189 383t188 383h93z" />
    <glyph glyph-name="uni2206" unicode="&#x2206;" horiz-adv-x="508" 
d="M327 739l111 -482h-65l-67 314l-144 -314h-64l229 482v0zM158 311h240l-7 -54h-240z" />
    <glyph glyph-name="product" unicode="&#x220f;" horiz-adv-x="743" 
d="M297 761h300l-103 -839h-91l92 749h-116l-92 -749h-93z" />
    <glyph glyph-name="summation" unicode="&#x2211;" horiz-adv-x="558" 
d="M170 761h408l-40 -90h-257l52 -333l-134 -334h258l17 -89h-408l168 423z" />
    <glyph glyph-name="minus" unicode="&#x2212;" horiz-adv-x="619" 
d="M114 251h365l-11 -90h-365z" />
    <glyph glyph-name="uni2215" unicode="&#x2215;" horiz-adv-x="392" 
d="M457 747q-95 -192 -189 -383t-188 -383h-93q95 192 188.5 383t188.5 383h93z" />
    <glyph glyph-name="uni2219" unicode="&#x2219;" horiz-adv-x="222" 
d="M115 236q-35 3 -56.5 29t-17.5 60q5 36 32 58.5t62 20.5t56 -28t17 -61q-4 -34 -31.5 -57t-61.5 -22z" />
    <glyph glyph-name="radical" unicode="&#x221a;" horiz-adv-x="565" 
d="M525 616h64l-354 -621l-100 301h-82l8 54h121l70 -215z" />
    <glyph glyph-name="infinity" unicode="&#x221e;" horiz-adv-x="470" 
d="M282 308q-3 -26 -24 -47t-51 -33t-61 -12q-32 0 -52.5 13t-29.5 32t-9 38q0 22 12.5 45t38 39t62.5 16q31 0 58.5 -12t43 -32.5t12.5 -46.5v0zM226 301q0 28 20.5 50.5t52 35t63.5 12.5t51.5 -12.5t28.5 -31.5t9 -39q0 -21 -12 -44.5t-37 -39.5t-63 -16q-29 0 -55 11
t-42 30.5t-16 43.5v0zM226 306q2 17 -17.5 27.5t-45.5 10.5q-27 0 -40 -11.5t-13 -29.5q0 -13 10 -23t34 -10t47.5 10t24.5 26v0zM281 306q-1 -16 20 -26t44 -10q31 0 41.5 13.5t10.5 27.5q0 15 -10 24t-32 9q-26 0 -48.5 -10.5t-25.5 -27.5v0z" />
    <glyph glyph-name="integral" unicode="&#x222b;" horiz-adv-x="387" 
d="M340 666q-21 0 -33.5 -7.5t-20 -29t-12.5 -65.5l-74 -600q-5 -45 -18.5 -69.5t-31.5 -34t-40.5 -10.5t-46.5 -1h-67l11 90h43q21 0 33.5 7.5t20 30t12.5 65.5l73 595v0q6 47 18.5 72t31 35t41 11.5t47.5 1.5h67l-11 -91h-43z" />
    <glyph glyph-name="approxequal" unicode="&#x2248;" horiz-adv-x="480" 
d="M283 86q-37 2 -59.5 20t-40.5 37q-12 14 -23.5 24.5t-28.5 11.5q-14 1 -26 -9.5t-18.5 -29t-9.5 -43.5l-64 6q3 44 20.5 80t46.5 56.5t67 17.5q29 -1 49 -18.5t37 -36.5q14 -16 27 -28t29 -13q15 -1 25.5 9.5t16 30.5t7.5 44l64 -4q0 -48 -16.5 -84t-44 -54t-58.5 -17z
M289 276q-37 2 -59.5 20t-40.5 37q-12 14 -23.5 24.5t-28.5 11.5q-14 1 -26 -9.5t-18.5 -29t-9.5 -43.5l-64 6q3 44 20.5 80t46.5 56.5t67 17.5q29 -1 49 -18.5t37 -36.5q14 -16 27 -28t29 -13q15 -1 25.5 9.5t16 30.5t7.5 44l64 -4q0 -48 -16.5 -84t-44 -54t-58.5 -17z" />
    <glyph glyph-name="notequal" unicode="&#x2260;" horiz-adv-x="718" 
d="M653 496q-40 -41 -90.5 -92.5t-105.5 -107.5t-109.5 -112t-104.5 -107.5t-91 -92.5l-47 46q40 42 90.5 93.5t105.5 107.5l110 112t105.5 107.5t90.5 93.5zM126 199h513l-12 -90h-512zM150 396h513l-12 -90h-512z" />
    <glyph glyph-name="lessequal" unicode="&#x2264;" horiz-adv-x="555" 
d="M470 217q-102 64 -204.5 128t-206.5 128q119 64 237.5 128t236.5 127l-15 -125q-59 -32 -120 -64.5t-120 -65.5q52 -32 104 -64.5t104 -65.5v0zM58 147h365l-11 -90h-365z" />
    <glyph glyph-name="greaterequal" unicode="&#x2265;" horiz-adv-x="556" 
d="M152 728q104 -63 206.5 -127t205.5 -128q-119 -64 -237 -128t-237 -128l16 126q59 33 119.5 65.5t119.5 64.5q-52 33 -104 65.5t-104 64.5zM80 147h365l-11 -90h-365z" />
    <glyph glyph-name="dollar" unicode="$" horiz-adv-x="581" 
d="M218 -68l53 440l34 33l48 387h63l-50 -413l-34 -34l-51 -413h-63zM519 574q-36 22 -79.5 39t-84.5 19q-33 1 -56.5 -6.5t-39.5 -20.5t-24 -30t-10 -35q-2 -30 17 -53t51.5 -41.5t68.5 -35.5q42 -18 80 -44t60.5 -67t16.5 -106q-4 -38 -22 -75t-50.5 -66t-79.5 -45
t-109 -13q-46 2 -88.5 13.5t-79.5 31t-68 46.5l58 80q22 -20 52 -37t63.5 -27.5t65.5 -12.5q39 -1 71 12t52.5 38.5t23.5 59.5q2 31 -14.5 54t-44 41t-59.5 33q-32 14 -64.5 32t-59.5 42t-42 58t-10 80q6 59 38 102t83.5 65t115.5 22q49 -3 88.5 -13.5t71.5 -26.5t59 -35z
" />
    <glyph glyph-name="cent" unicode="&#xa2;" horiz-adv-x="465" 
d="M272 486h64l-68 -554h-63zM402 28q-29 -18 -66.5 -28.5t-75.5 -10.5q-31 0 -68.5 10t-71.5 33t-56 62.5t-22 96.5q0 42 15.5 84t45 76.5t73 55t100.5 20.5q59 0 101 -17.5t69 -45.5l-59 -63q-15 15 -42 28t-63 13q-35 0 -66.5 -19t-50.5 -51.5t-19 -74.5
q0 -34 16.5 -62.5t46 -45.5t69.5 -17q23 0 43 6.5t37 17.5z" />
    <glyph glyph-name="sterling" unicode="&#xa3;" horiz-adv-x="579" 
d="M413 391l-12 -103h-312l12 103h312zM185 542q6 48 37.5 85.5t83 58.5t114.5 21q72 0 117.5 -28t64.5 -76l-83 -53q-9 14 -21.5 26t-33.5 20t-54 8q-39 0 -65 -11.5t-39.5 -34t-17.5 -54.5l-37 -299l-3 -20q-2 -15 -6.5 -32t-11 -31.5t-15.5 -23.5l-7 5h201q34 0 50.5 10
t18.5 33l6 40l92 1l-8 -69q-4 -33 -19.5 -60t-47 -42.5t-82.5 -15.5h-397l12 103h45q21 0 33 6.5t19.5 27t12.5 62.5z" />
    <glyph glyph-name="currency" unicode="&#xa4;" horiz-adv-x="505" 
d="M415 436q9 -17 13 -37t2 -41q-2 -25 -11.5 -46.5t-25.5 -39.5l25 -31l-49 -42q-7 8 -13.5 16t-13.5 15q-38 -21 -84 -20q-23 1 -42.5 8t-34.5 18v0l-33 -28l-40 47l33 28q-10 17 -14 38t-2 43v0q2 24 11 45t24 38q-6 8 -12 15t-12 15l49 41l25 -28q20 10 41 16.5t44 5.5
t43 -9t36 -20v0l32 26l39 -46zM188 360q-3 -35 20 -61t58 -28q26 -1 48 11t37 32.5t16 45.5q3 36 -20 62.5t-59 27.5q-25 1 -47 -11t-36.5 -32t-16.5 -47v0z" />
    <glyph glyph-name="yen" unicode="&#xa5;" horiz-adv-x="698" 
d="M176 304h372l-10 -84h-372zM165 159h371l-10 -85h-371zM305 299l-216 427h131l169 -335l-33 -3l248 338h132l-324 -427l-37 -299h-107z" />
    <glyph glyph-name="colonmonetary" unicode="&#x20a1;" horiz-adv-x="699" 
d="M603 788l-420 -853h-96l419 853h97zM769 788l-420 -853h-97l419 853h98zM620 39q-16 -10 -45.5 -22t-68 -21t-83.5 -9q-62 0 -123.5 19.5t-112 60t-81 105t-30.5 153.5q0 58 13.5 115.5t42 110t73.5 92.5t107.5 63t143.5 23q75 0 133 -22.5t96 -50.5l-55 -97
q-27 23 -69 43.5t-95 23.5q-68 2 -120 -20.5t-87.5 -63.5t-53.5 -94.5t-18 -114.5q0 -54 17.5 -98.5t49 -76.5t76 -49.5t97.5 -17.5q39 0 69 8t52.5 18.5t37.5 19.5z" />
    <glyph glyph-name="franc" unicode="&#x20a3;" horiz-adv-x="591" 
d="M163 726h435l-12 -102h-325l-27 -219h284l-13 -102h-284l-36 -303h-110zM42 186h233l-7 -58h-233z" />
    <glyph glyph-name="lira" unicode="&#x20a4;" horiz-adv-x="601" 
d="M437 447l-12 -96h-319l12 96h319zM418 296l-11 -96h-319l12 96h318zM198 542q6 48 37.5 85.5t82.5 58.5t115 21q72 0 117.5 -28t64.5 -76l-84 -53q-4 5 -9.5 13.5t-16 17.5t-30 16t-52.5 7q-39 0 -65 -11.5t-40 -34t-18 -54.5l-39 -324v5q1 7 -0.5 -2t-5.5 -25.5t-10 -32
t-15 -22.5v0h192q33 0 50 10t19 33l5 40l93 1l-8 -69q-4 -33 -20 -60t-47 -42.5t-82 -15.5h-398l13 103h45q21 0 33 6.5t19 27t12 62.5z" />
    <glyph glyph-name="uni20A6" unicode="&#x20a6;" horiz-adv-x="856" 
d="M473 413h388l-8 -72h-389zM427 341h-396l8 72h397zM726 -25h-3l-490 559l30 -14l-62 -520h-107l91 749h5l483 -559l-24 10l62 526h107z" />
    <glyph glyph-name="peseta" unicode="&#x20a7;" horiz-adv-x="640" 
d="M554 529h103v-73h-104zM169 456h-107l1 73h106v-73zM353 726q53 0 95.5 -13.5t73.5 -39.5t47.5 -63t16.5 -86q0 -45 -15 -91.5t-48 -86t-85.5 -63.5t-127.5 -24h-102l-32 -259h-110l89 726h198zM320 362q44 0 73.5 15.5t47.5 39t25.5 48.5t7.5 44q0 26 -11.5 52t-38 43.5
t-71.5 17.5h-101l-32 -260h100z" />
    <glyph glyph-name="uni20A9" unicode="&#x20a9;" horiz-adv-x="1013" 
d="M81 455h907l-9 -72h-907zM114 722h124l123 -533l-18 7l187 364l32 -145l-251 -449zM466 722h106l142 -524l-21 4l240 520h114l-377 -754z" />
    <glyph glyph-name="dong" unicode="&#x20ab;" horiz-adv-x="600" 
d="M379 722h257l-9 -72h-257zM58 72h466l-8 -72h-466zM269 137q-60 1 -106 29.5t-69.5 80t-15.5 119.5q9 69 42.5 118t84 74.5t109.5 24.5q31 -1 59.5 -12t50 -29.5t33.5 -43.5l-8 -29l39 314h102l-78 -636h-102l12 98l5 -26q-31 -41 -68.5 -62t-89.5 -20zM303 224
q28 -1 53 10.5t44 33.5t31 51l10 84q-6 27 -21 49t-39.5 35.5t-57.5 13.5q-34 2 -64 -15t-50.5 -47.5t-24.5 -71.5q-5 -39 8.5 -71.5t42.5 -51.5t68 -20z" />
    <glyph glyph-name="Euro" unicode="&#x20ac;" horiz-adv-x="758" 
d="M89 469h371l-10 -84h-371zM72 327h370l-10 -84h-370zM682 39q-16 -10 -45.5 -22t-68 -21t-83.5 -9q-62 0 -123.5 19.5t-112 60t-81 105t-30.5 153.5q0 58 13.5 115.5t42 110t73.5 92.5t107.5 63t143.5 23q75 0 133 -22.5t96 -50.5l-55 -97q-27 23 -69 43.5t-95 23.5
q-68 2 -120 -20.5t-87.5 -63.5t-53.5 -94.5t-18 -114.5q0 -54 17.5 -98.5t49 -76.5t76 -49.5t97.5 -17.5q39 0 69 8t52.5 18.5t37.5 19.5z" />
    <glyph glyph-name="uni20AD" unicode="&#x20ad;" horiz-adv-x="672" 
d="M70 440h537l-13 -103h-538zM236 440l-8 -36l17 21l322 301h138l-338 -315l263 -411h-135l-215 344l-62 -55l-36 -289h-107l88 726h108z" />
    <glyph glyph-name="uni20B1" unicode="&#x20b1;" horiz-adv-x="621" 
d="M507 588h152l-9 -73h-152zM505 457h138l-9 -73h-138zM171 384h-135l9 73h135zM187 515h-135l9 73h135zM343 726q52 0 94.5 -13.5t73.5 -39.5t47.5 -63t16.5 -86q0 -45 -15 -91.5t-47.5 -86t-85 -63.5t-127.5 -24h-103l-32 -259h-110l89 726h199zM309 362q45 0 74 15.5
t47 39t26 48.5t8 44q0 26 -11.5 52t-38.5 43.5t-72 17.5h-100l-32 -260h99z" />
    <glyph glyph-name="uni20B2" unicode="&#x20b2;" horiz-adv-x="746" 
d="M660 48q-21 -16 -59.5 -29.5t-84 -21.5t-86.5 -8q-32 0 -71 8t-79 24.5t-77 43t-66 64t-46 87.5t-16 113q1 52 16 108t45 108.5t77 93.5t111 65.5t148 23.5q61 -1 122.5 -17.5t110.5 -48.5l-47 -97q-38 26 -89 41.5t-99 14.5q-64 0 -111 -18.5t-80 -49t-53 -68
t-29.5 -77.5t-10.5 -76q0 -51 16 -89t43.5 -66t61 -45.5t69 -26.5t66.5 -10q31 -2 62.5 3t54.5 16l17 141h-141l13 101h249zM419 821h93l-116 -945h-93z" />
    <glyph glyph-name="uni20B5" unicode="&#x20b5;" horiz-adv-x="699" 
d="M620 39q-16 -10 -45.5 -22t-68 -21t-83.5 -9q-62 0 -123.5 19.5t-112 60t-81 105t-30.5 153.5q0 58 13.5 115.5t42 110t73.5 92.5t107.5 63t143.5 23q75 0 133 -22.5t96 -50.5l-55 -97q-27 23 -69 43.5t-95 23.5q-68 2 -120 -20.5t-87.5 -63.5t-53.5 -94.5t-18 -114.5
q0 -54 17.5 -98.5t49 -76.5t76 -49.5t97.5 -17.5q39 0 69 8t52.5 18.5t37.5 19.5zM413 833h93l-116 -945h-93z" />
    <glyph glyph-name="uni20B9" unicode="&#x20b9;" horiz-adv-x="539" 
d="M105 260l12 102h85q55 0 87.5 21.5t48.5 52t19 57.5q3 20 -1.5 42t-17 42t-37 33t-62.5 13h-90l13 103h407l-13 -103h-243l-83 73q57 0 104 -10.5t79 -34t46.5 -61.5t8.5 -94q-6 -43 -24 -85t-51 -76t-83 -54.5t-119 -20.5h-86zM343 0l-155 297l128 3l151 -300h-124z
M131 449l10 89h406l-11 -89h-405z" />
    <glyph glyph-name="uni20BA" unicode="&#x20ba;" horiz-adv-x="645" 
d="M595 321v-33.5t-3 -35.5q-10 -69 -43 -117t-82.5 -78t-111.5 -43.5t-131 -13.5h-106l88 726h107l-84 -682l-2 59q53 0 96.5 8t76 25t53 46.5t25.5 71.5q2 11 2 20.5v18.5zM449 455l33 -65l-401 -209l-33 65zM419 582l34 -65l-400 -207l-33 65z" />
    <glyph glyph-name="uni20BC" unicode="&#x20bc;" horiz-adv-x="759" 
d="M407 831h93l-102 -831h-93zM578 464q5 46 -13 83t-53.5 59t-83.5 22t-90 -22t-69 -59t-33 -83l-57 -466h-105l58 469q9 79 53.5 138.5t111.5 92.5t144 33v0q77 0 135.5 -33t88 -92.5t19.5 -138.5l-57 -469h-106z" />
    </font>
</defs>
</svg>
